<svg xmlns="http://www.w3.org/2000/svg" xmlns:xlink="http://www.w3.org/1999/xlink" viewBox="0 0 683.56 514.72"><defs><style>.cls-1{fill:url(#linear-gradient);}.cls-2{fill:url(#linear-gradient-2);}.cls-3{fill:url(#linear-gradient-3);}.cls-4{fill:url(#linear-gradient-4);}.cls-5{fill:url(#linear-gradient-5);}.cls-6,.cls-8{fill:#fff;}.cls-6{opacity:0.3;}.cls-7{fill:url(#linear-gradient-6);}.cls-8{opacity:0.29;}.cls-9{fill:url(#linear-gradient-7);}.cls-10{fill:url(#linear-gradient-8);}.cls-11{fill:url(#linear-gradient-9);}.cls-12{fill:url(#linear-gradient-10);}.cls-13{fill:url(#linear-gradient-11);}.cls-14{fill:url(#linear-gradient-12);}</style><linearGradient id="linear-gradient" x1="550.12" y1="264.56" x2="585.16" y2="264.56" gradientUnits="userSpaceOnUse"><stop offset="0" stop-color="#b9177c"/><stop offset="1" stop-color="#de3b7a"/></linearGradient><linearGradient id="linear-gradient-2" x1="567.64" y1="194.93" x2="567.64" y2="187.53" gradientUnits="userSpaceOnUse"><stop offset="0" stop-color="#e98756"/><stop offset="1" stop-color="#f5e478"/></linearGradient><linearGradient id="linear-gradient-3" x1="631.61" y1="264.56" x2="666.66" y2="264.56" xlink:href="#linear-gradient"/><linearGradient id="linear-gradient-4" x1="649.14" y1="192.99" x2="649.14" y2="188" xlink:href="#linear-gradient-2"/><linearGradient id="linear-gradient-5" y1="345.06" x2="146.83" y2="345.06" gradientUnits="userSpaceOnUse"><stop offset="0" stop-color="#3841f8"/><stop offset="0.99" stop-color="#4690fb"/></linearGradient><linearGradient id="linear-gradient-6" x1="254.57" y1="317.94" x2="453.39" y2="317.94" xlink:href="#linear-gradient-5"/><linearGradient id="linear-gradient-7" x1="137.45" y1="369.89" x2="282.2" y2="369.89" xlink:href="#linear-gradient"/><linearGradient id="linear-gradient-8" x1="556.79" y1="525.98" x2="556.79" y2="301.21" xlink:href="#linear-gradient-2"/><linearGradient id="linear-gradient-9" x1="41.29" y1="103.29" x2="92.35" y2="103.29" xlink:href="#linear-gradient-5"/><linearGradient id="linear-gradient-10" x1="56.04" y1="20.63" x2="75.82" y2="20.63" xlink:href="#linear-gradient"/><linearGradient id="linear-gradient-11" x1="44.27" y1="6.47" x2="87.59" y2="6.47" xlink:href="#linear-gradient"/><linearGradient id="linear-gradient-12" x1="50.31" y1="13.73" x2="81.56" y2="13.73" xlink:href="#linear-gradient"/></defs><title>Asset 12</title><g id="Layer_2" data-name="Layer 2"><g id="Layer_7" data-name="Layer 7"><rect class="cls-1" x="550.12" y="193.61" width="35.04" height="141.89"/><rect class="cls-2" x="544.05" y="187.11" width="47.18" height="6.5" rx="2.58"/><rect class="cls-3" x="631.61" y="193.61" width="35.04" height="141.89"/><rect class="cls-4" x="625.55" y="187.11" width="47.18" height="6.5" rx="2.58"/><rect class="cls-5" y="179.23" width="146.83" height="331.66" rx="11.97"/><rect class="cls-6" x="12.6" y="196.1" width="116.33" height="11.44" rx="2.23"/><rect class="cls-6" x="12.6" y="219.71" width="116.33" height="11.44" rx="2.23"/><rect class="cls-6" x="12.6" y="243.32" width="116.33" height="11.44" rx="2.23"/><rect class="cls-6" x="12.6" y="266.94" width="116.33" height="11.44" rx="2.23"/><rect class="cls-6" x="12.6" y="290.55" width="116.33" height="11.44" rx="2.23"/><rect class="cls-6" x="12.6" y="314.16" width="116.33" height="11.44" rx="2.23"/><rect class="cls-6" x="12.6" y="337.78" width="116.33" height="11.44" rx="2.23"/><rect class="cls-6" x="12.6" y="361.39" width="116.33" height="11.44" rx="2.23"/><rect class="cls-6" x="12.6" y="385" width="116.33" height="11.44" rx="2.23"/><rect class="cls-6" x="12.6" y="408.62" width="116.33" height="11.44" rx="2.23"/><rect class="cls-6" x="12.6" y="432.23" width="116.33" height="11.44" rx="2.23"/><rect class="cls-6" x="12.6" y="455.84" width="116.33" height="11.44" rx="2.23"/><path class="cls-7" d="M437.24,509.74H270.72a16.16,16.16,0,0,1-16.15-16.16V155.82a16.16,16.16,0,0,1,14.78-16.1L427.48,126.2A16.15,16.15,0,0,1,445,141.91l8.38,351.29A16.15,16.15,0,0,1,437.24,509.74Z"/><path class="cls-8" d="M294.51,482.79h-7.94a4.44,4.44,0,0,1-4.55-4.27l-3.17-308.77a4.34,4.34,0,0,1,4.46-4.27h7.95a4.46,4.46,0,0,1,4.55,4.27L299,478.52A4.33,4.33,0,0,1,294.51,482.79Z"/><path class="cls-8" d="M326,482.79h-7.94a4.44,4.44,0,0,1-4.55-4.27l-3.17-308.77a4.35,4.35,0,0,1,4.47-4.27h7.94a4.45,4.45,0,0,1,4.55,4.27l3.16,308.77A4.33,4.33,0,0,1,326,482.79Z"/><path class="cls-8" d="M357.54,482.79h-8a4.45,4.45,0,0,1-4.55-4.27l-3.16-308.77a4.33,4.33,0,0,1,4.46-4.27h7.94a4.44,4.44,0,0,1,4.55,4.27L362,478.52A4.34,4.34,0,0,1,357.54,482.79Z"/><path class="cls-8" d="M389.05,482.79h-7.94a4.44,4.44,0,0,1-4.55-4.27l-3.17-308.77a4.34,4.34,0,0,1,4.46-4.27h7.95a4.44,4.44,0,0,1,4.54,4.27l3.17,308.77A4.34,4.34,0,0,1,389.05,482.79Z"/><path class="cls-8" d="M420.56,482.79h-7.94a4.44,4.44,0,0,1-4.55-4.27L404.9,169.75a4.34,4.34,0,0,1,4.46-4.27h7.95a4.45,4.45,0,0,1,4.55,4.27L425,478.52A4.33,4.33,0,0,1,420.56,482.79Z"/><path class="cls-9" d="M272.11,514.72H147.54a10.08,10.08,0,0,1-10.09-10.08v-265a10.09,10.09,0,0,1,9.73-10.08l124.08-4.48a10.08,10.08,0,0,1,10.45,10.06l.49,269.5A10.08,10.08,0,0,1,272.11,514.72Z"/><rect class="cls-6" x="154.77" y="245.42" width="20.38" height="37.23"/><rect class="cls-6" x="184.95" y="245.42" width="20.38" height="37.23"/><rect class="cls-6" x="184.95" y="297.16" width="20.38" height="37.23"/><rect class="cls-6" x="184.95" y="348.89" width="20.38" height="37.23"/><rect class="cls-6" x="184.95" y="400.62" width="20.38" height="37.23"/><rect class="cls-6" x="184.95" y="452.35" width="20.38" height="37.23"/><rect class="cls-6" x="215.13" y="245.42" width="20.38" height="37.23"/><rect class="cls-6" x="245.3" y="245.42" width="20.38" height="37.23"/><rect class="cls-6" x="154.77" y="297.16" width="20.38" height="37.23"/><rect class="cls-6" x="215.13" y="297.16" width="20.38" height="37.23"/><rect class="cls-6" x="245.3" y="297.16" width="20.38" height="37.23"/><rect class="cls-6" x="154.77" y="348.89" width="20.38" height="37.23"/><rect class="cls-6" x="215.13" y="348.89" width="20.38" height="37.23"/><rect class="cls-6" x="245.3" y="348.89" width="20.38" height="37.23"/><rect class="cls-6" x="154.77" y="400.62" width="20.38" height="37.23"/><rect class="cls-6" x="215.13" y="400.62" width="20.38" height="37.23"/><rect class="cls-6" x="245.3" y="400.62" width="20.38" height="37.23"/><rect class="cls-6" x="154.77" y="452.35" width="20.38" height="37.23"/><rect class="cls-6" x="215.13" y="452.35" width="20.38" height="37.23"/><rect class="cls-6" x="245.3" y="452.35" width="20.38" height="37.23"/><path class="cls-10" d="M670.86,512.24H445.19a9.8,9.8,0,0,1-9.79-9.47L430,342.15A9.79,9.79,0,0,1,439.81,332h234a9.8,9.8,0,0,1,9.8,10l-2.9,160.62A9.81,9.81,0,0,1,670.86,512.24Z"/><rect class="cls-8" x="551.81" y="363.33" width="9.94" height="29.09"/><rect class="cls-8" x="583.85" y="363.33" width="9.94" height="29.09"/><rect class="cls-8" x="615.88" y="363.33" width="9.94" height="29.09"/><rect class="cls-8" x="547.31" y="363.33" width="9.94" height="29.09"/><rect class="cls-8" x="579.35" y="363.33" width="9.94" height="29.09"/><rect class="cls-8" x="611.38" y="363.33" width="9.94" height="29.09"/><rect class="cls-8" x="643.42" y="363.33" width="9.94" height="29.09"/><rect class="cls-8" x="551.81" y="412.49" width="9.94" height="29.09"/><rect class="cls-8" x="583.85" y="412.49" width="9.94" height="29.09"/><rect class="cls-8" x="615.88" y="412.49" width="9.94" height="29.09"/><rect class="cls-8" x="547.31" y="412.49" width="9.94" height="29.09"/><rect class="cls-8" x="579.35" y="412.49" width="9.94" height="29.09"/><rect class="cls-8" x="611.38" y="412.49" width="9.94" height="29.09"/><rect class="cls-8" x="643.42" y="412.49" width="9.94" height="29.09"/><path class="cls-11" d="M91.89,174.73v-.11l-4.8-35.15s0-.06,0-.1L77.36,68.16a2.93,2.93,0,0,0-2.91-2.54H68.74V29.13A1.79,1.79,0,0,0,67,27.35h-2a1.78,1.78,0,0,0-1.78,1.78V65.62H55.4a3,3,0,0,0-2.93,2.64l-5.35,53.17s0,.08,0,.12l-3.89,38.64a.41.41,0,0,0,0,.11l-1.45,14.42-.47,4.51H92.35Zm-6.46-4-12.27-4.15,11.19-3.78Zm-9-49.77-10.85,5.73-10.16-5.37,11.12-8.66ZM59.66,99.2l6.81-6.81,7.24,7.23-7,5.47Zm5.93,34.12L78,139.86l-10,5.46L55.6,138.6ZM67.94,152l11.47,6.25L64,163.47l-10.54-3.56Zm15.15,1.56-9-4.91,7.76-4.22Zm-2.6-19L71.88,130l7.45-3.93Zm-4-29.62,1.29,9.44L71.29,109ZM74.73,92.34l-4.1-4.1,3.12-3.12ZM58.05,71.49H71.89l.86,6.32-6.28,6.27-8.8-8.8ZM56.91,82.83l5.41,5.41L55.7,94.86Zm-2,20,7,5.92-8.29,6.46Zm-2.37,23.55L59.3,130l-7.54,4Zm-1.64,16.3,10.92,5.94L49.62,155.3ZM48.69,164.5l6.12,2.07-6.55,2.21ZM64,169.67l15,5.05H49Z"/><path class="cls-12" d="M75.09,20.37a13,13,0,0,0-18.3,0,2.52,2.52,0,0,0,1.79,4.31,2.5,2.5,0,0,0,1.78-.74,7.89,7.89,0,0,1,11.14,0,2.56,2.56,0,0,0,1.79.74,2.53,2.53,0,0,0,1.8-4.31Z"/><path class="cls-13" d="M86.85,8.64A29.66,29.66,0,0,0,45,8.62a2.52,2.52,0,0,0,1.78,4.31,2.49,2.49,0,0,0,1.79-.74,24.58,24.58,0,0,1,34.68,0,2.53,2.53,0,1,0,3.58-3.57Z"/><path class="cls-14" d="M80.82,14.66a21.09,21.09,0,0,0-29.77,0,2.51,2.51,0,0,0,0,3.56,2.53,2.53,0,0,0,3.58,0,16,16,0,0,1,22.61,0,2.52,2.52,0,1,0,3.58-3.56Z"/></g></g></svg>