<svg xmlns="http://www.w3.org/2000/svg" xmlns:xlink="http://www.w3.org/1999/xlink" viewBox="0 0 1066.28 781.03"><defs><style>.cls-1{isolation:isolate;}.cls-2{fill:url(#linear-gradient);}.cls-3{fill:#92d0ff;}.cls-4{fill:url(#linear-gradient-2);}.cls-5{fill:url(#linear-gradient-3);}.cls-6{fill:url(#linear-gradient-4);}.cls-7{fill:url(#linear-gradient-5);}.cls-8{fill:url(#linear-gradient-6);}.cls-10,.cls-9{fill:none;stroke:#2c348c;stroke-miterlimit:10;stroke-width:2px;}.cls-10{stroke-dasharray:18.11 18.11;}.cls-11{fill:#cfe0f5;}.cls-12{fill:#b3d3f4;}.cls-13{fill:#fff4e1;}.cls-14,.cls-15{fill:#e6f1fc;}.cls-15,.cls-20,.cls-22{mix-blend-mode:multiply;}.cls-16{fill:url(#linear-gradient-7);}.cls-17{fill:url(#linear-gradient-8);}.cls-18{fill:#fff;}.cls-19{fill:gray;}.cls-20,.cls-22{fill:#c9d3f4;}.cls-20{opacity:0.55;}.cls-21{fill:url(#linear-gradient-9);}.cls-22{opacity:0.35;}.cls-23{fill:url(#linear-gradient-10);}.cls-24{fill:url(#linear-gradient-11);}</style><linearGradient id="linear-gradient" x1="923.81" y1="744.69" x2="923.81" y2="398.51" gradientUnits="userSpaceOnUse"><stop offset="0" stop-color="#5382ec"/><stop offset="1" stop-color="#78bfff"/></linearGradient><linearGradient id="linear-gradient-2" x1="988.49" y1="744.69" x2="988.49" y2="503.24" xlink:href="#linear-gradient"/><linearGradient id="linear-gradient-3" x1="389.99" y1="686.66" x2="231.42" y2="528.09" gradientUnits="userSpaceOnUse"><stop offset="0" stop-color="#466de5"/><stop offset="1" stop-color="#78bfff"/></linearGradient><linearGradient id="linear-gradient-4" x1="162.46" y1="744.69" x2="162.46" y2="447" xlink:href="#linear-gradient-3"/><linearGradient id="linear-gradient-5" x1="452.66" y1="753.54" x2="452.66" y2="577.63" gradientTransform="translate(-301.91 -41.36) rotate(3.82)" xlink:href="#linear-gradient-3"/><linearGradient id="linear-gradient-6" x1="93.82" y1="753.06" x2="144.4" y2="665.45" xlink:href="#linear-gradient-3"/><linearGradient id="linear-gradient-7" x1="763.03" y1="847.24" x2="422.01" y2="256.57" gradientUnits="userSpaceOnUse"><stop offset="0" stop-color="#b3d3f4"/><stop offset="1" stop-color="#d3dced"/></linearGradient><linearGradient id="linear-gradient-8" x1="611.67" y1="261.16" x2="611.67" y2="718.78" gradientUnits="userSpaceOnUse"><stop offset="0" stop-color="#f5e478"/><stop offset="1" stop-color="#e98756"/></linearGradient><linearGradient id="linear-gradient-9" x1="763.03" y1="847.24" x2="460.3" y2="322.88" gradientUnits="userSpaceOnUse"><stop offset="0" stop-color="#cde8ff"/><stop offset="1" stop-color="#eee7e9"/></linearGradient><linearGradient id="linear-gradient-10" x1="759.87" y1="911.7" x2="463.46" y2="615.3" xlink:href="#linear-gradient-9"/><linearGradient id="linear-gradient-11" x1="1188.71" y1="789.86" x2="1252.92" y2="678.64" gradientTransform="matrix(-1, 0, 0.21, 1, 1920.5, 0)" xlink:href="#linear-gradient-3"/></defs><title>contact</title><g class="cls-1"><g id="Layer_2" data-name="Layer 2"><g id="Layer_4" data-name="Layer 4"><path class="cls-2" d="M836.29,744.69C833.09,634.56,858,500.9,944.74,425c13.93-12.17,31-27.86,50.71-26.43,9.2.67,13.76,11.18,15.14,19,2.47,13.93.07,28.26-3.33,42-18.78,75.84-80.72,208.6-96.56,285.11"/><path class="cls-3" d="M982.63,428.17a436.05,436.05,0,0,0-43.09,68.65,505.39,505.39,0,0,0-28.88,69.73,556.67,556.67,0,0,0-17.58,67.1,545,545,0,0,0-8.31,58.58,379.92,379.92,0,0,0-1.47,46c.06,1.52.14,3,.2,4.55,0,.35.56.35.55,0a379.35,379.35,0,0,1,1-44.09,536.18,536.18,0,0,1,7.41-57.45,560.3,560.3,0,0,1,16.14-65.74,511.54,511.54,0,0,1,27.59-70.36,453.07,453.07,0,0,1,40.69-68.56q3-4.14,6.09-8.22c.15-.2-.19-.4-.35-.2Z"/><path class="cls-4" d="M910.7,744.69c11.62-71.28,23.81-129.48,64.66-189,16.8-24.5,49.17-54.78,74.93-52.28,27.63,2.69,8,44.45-8.37,75.61-21.87,41.57-37.81,86.81-45.34,133.17,2.27-14,12-53.74,40.61-71.42,8.41-5.19,29.09-8.22,29.09,9,0,30.24-29.4,66.57-36.75,95"/><path class="cls-3" d="M1041.67,525.21c-6.89,8.74-12.59,18.43-18,28.12-7.55,13.46-14.4,27.32-20.86,41.33q-11,23.8-20.29,48.31c-6.22,16.36-11.88,32.94-16.63,49.78-4.16,14.74-7.71,29.73-9.52,45-.2,1.62-.35,3.25-.51,4.87,0,.26.38.26.4,0,1.45-14.89,4.83-29.66,8.71-44.08,4.48-16.66,9.92-33.07,15.89-49.25q9.13-24.72,20-48.77c6.44-14.3,13.3-28.41,20.76-42.2,5.59-10.33,11.46-20.63,18.42-30.11.65-.88,1.31-1.76,2-2.62.18-.23-.14-.56-.33-.33Z"/><path class="cls-3" d="M1050.14,652.11a87.56,87.56,0,0,0-11.05,13.61,135.31,135.31,0,0,0-9.4,16.74,197.4,197.4,0,0,0-7.8,18.86c-2.38,6.63-4.47,13.37-6.33,20.16s-3.51,13.67-4.91,20.58l-.51,2.56c-.06.31.41.44.47.13a342.43,342.43,0,0,1,10.93-40.6c4.31-12.48,9.55-24.78,16.61-36a92,92,0,0,1,12.28-15.77c.19-.19-.1-.49-.29-.3Z"/><path class="cls-5" d="M257.43,744.69c-16.8-139-4.6-199.5,11.22-238,7.38-17.94,18-35.7,33-48.36,60-50.63,58.17,47.81,55.35,77.65-6.42,68-23.46,140.63-25,208.7"/><path class="cls-6" d="M203.36,744.69c-1.91-43.72-21.42-86.36-46.27-121.64-25-35.48-59.36-63.78-81.87-101-12-20-31.13-51.36-2.92-67.73,31.28-18.15,77.23.88,102.38,21.63C202,498.48,220,530.46,235,562c26.51,55.77,31.83,120.89,32.24,182.65"/><path class="cls-7" d="M209.32,744.69c.12-44.5-22.54-91.47-58.34-126.22-23.39-22.71-51.37-44-83.27-53.35-16.57-4.87-62.86-12.57-67.5,15-1.76,10.43,7.65,30,30.2,47.9,31.35,24.82,118,63.42,128.41,116.71"/><path class="cls-3" d="M21.51,581.58q9.19,2.52,18.13,5.88c6.45,2.41,12.79,5.12,19,8.08q9.87,4.69,19.3,10.24,9.78,5.75,19,12.33,9.63,6.87,18.55,14.63a227.71,227.71,0,0,1,17.16,16.59,209.38,209.38,0,0,1,15.63,18.91,192.28,192.28,0,0,1,13.25,20.82,183.36,183.36,0,0,1,10.65,23.14,179.23,179.23,0,0,1,7.42,25.09c.46,2.12.88,4.24,1.27,6.38,0,.27.46.15.41-.12a170.31,170.31,0,0,0-6.44-25.74A176.76,176.76,0,0,0,165,694.33a188.48,188.48,0,0,0-12.77-21.51,205.91,205.91,0,0,0-15-19.28,222.92,222.92,0,0,0-17-17.34c-5.8-5.3-11.88-10.31-18.17-15s-12.54-8.93-19.1-13q-9.47-5.81-19.4-10.78-9.36-4.68-19.08-8.55c-6.06-2.41-12.22-4.57-18.47-6.42-1.46-.43-2.91-.85-4.37-1.24a.18.18,0,0,0-.1.35Z"/><path class="cls-3" d="M87.39,471.75A175.32,175.32,0,0,1,123.58,498a269.62,269.62,0,0,1,35.48,40.27,341.49,341.49,0,0,1,31.57,53.42,387.44,387.44,0,0,1,24.16,65.5,435.54,435.54,0,0,1,13.27,76.39q.44,5,.75,10.06c0,.46.74.46.71,0a414.82,414.82,0,0,0-11.62-77.88,391.34,391.34,0,0,0-23.08-66.88,348.73,348.73,0,0,0-31.23-55.35,278.88,278.88,0,0,0-35.38-41.91,187.25,187.25,0,0,0-36.29-27.78q-2.15-1.23-4.34-2.39c-.21-.11-.4.21-.19.33Z"/><path class="cls-3" d="M324.32,457.47a378.4,378.4,0,0,0-16.87,51.39,576.08,576.08,0,0,0-11.33,56.58c-2.95,19.32-5.1,38.75-6.65,58.23s-2.51,38.78-3,58.2c-.46,18.44-.58,36.91-.13,55.36.05,2.13.11,4.25.17,6.38a.31.31,0,0,0,.62,0c-.28-18.19-.37-36.38,0-54.57q.56-28.89,2.57-57.72c1.41-19.75,3.41-39.47,6.2-59.07,2.7-19,6.13-37.88,10.59-56.54a414.52,414.52,0,0,1,15.95-52.19c.76-2,1.54-4,2.34-5.93.11-.28-.34-.4-.45-.12Z"/><path class="cls-8" d="M166.91,744.69c-5.37-24-10.09-49-24.39-69.7-9.36-13.52-28.44-32.37-45.42-32.07-12.63.22-15.5,12.36-14,23.3,3.85,28.65,19.74,37.4,25.91,68.38-3.07-11.73-22-52.38-38.65-36.84-18.28,17.09,9,46.93,9,46.93"/><path class="cls-3" d="M77.35,705.45c7.77,9,15.16,18.64,20.34,29.43a81.36,81.36,0,0,1,3.94,9.86.22.22,0,0,0,.42-.11,69,69,0,0,0-7.72-17.21,131.47,131.47,0,0,0-10.68-15.1c-2-2.43-4-4.79-6.05-7.12-.15-.17-.4.08-.25.25Z"/><path class="cls-3" d="M103.63,660.64a100.37,100.37,0,0,1,12.66,16.08,188.56,188.56,0,0,1,10.76,19c3.17,6.35,6.08,12.83,8.79,19.39,2.32,5.6,4.49,11.26,6.55,17,1.41,3.9,2.75,7.82,4.12,11.73l.33,1c.09.27.51.16.42-.11-1.23-3.7-2.42-7.4-3.71-11.07q-3-8.35-6.3-16.57c-2.64-6.5-5.47-12.92-8.56-19.23A201.25,201.25,0,0,0,118,678.48a108.08,108.08,0,0,0-12.47-16.4c-.54-.58-1.09-1.14-1.65-1.7a.18.18,0,0,0-.26.26Z"/><line class="cls-9" x1="654.49" y1="518.14" x2="663.49" y2="518.14"/><path class="cls-10" d="M681.6,518.14H967.13a87.56,87.56,0,1,0,0-175.11H299.66a46.44,46.44,0,1,1,0-92.88H860.5a41.13,41.13,0,1,0,0-82.25H347.28a22.63,22.63,0,1,1,0-45.25H478.44"/><line class="cls-9" x1="487.5" y1="122.65" x2="496.5" y2="122.65"/><path class="cls-11" d="M531.82,49.53a47.62,47.62,0,0,0-41.2,81l-6.43,13.06,14.43-6.75a47.64,47.64,0,1,0,33.2-87.35Z"/><path class="cls-12" d="M502.67,118.83l-4.93-5.9a5.36,5.36,0,0,1,.69-7.55l5.66-4.73a5.37,5.37,0,0,1,7.56.68s2.61,3.94,5.69,3.24c3.49-.8,11.09-6.35,15.18-10.65,2.88-3-2-8.37-2-8.37a5.36,5.36,0,0,1,.68-7.55l5.67-4.73a5.37,5.37,0,0,1,7.55.68l4.92,5.9C560.48,93.15,512.33,130.42,502.67,118.83Z"/><path class="cls-11" d="M739.38,121.74c7.06-6.78,10-13.74,19.7-15.92,2-.44,4.1-.69,5.81-1.76,4.73-2.94,3.77-9.65,4.83-15,2.09-10.47,15.76-17.08,25.79-12.48,4.19,1.93,8,5.48,12.64,5.17,9.28-.63,8.17-12.08,14.51-18.61,6-6.17,18.19-7,26-3.06a39.85,39.85,0,0,1,13.67,11.1c3.78,4.89,3.61,12.45,6.39,17.83,2.66,5.22,9,7.48,11.79,12.6,2.4,4.45,3.14,9.17,1.18,13.87-4,9.51-15.59,16.38-26.14,16.38H713.1S731.51,129.28,739.38,121.74Z"/><path class="cls-11" d="M398.24,54.09c-6-5.72-8.44-11.6-16.66-13.44a15.65,15.65,0,0,1-4.91-1.49c-4-2.49-3.18-8.16-4.08-12.65C370.82,17.67,359.27,12.08,350.8,16c-3.55,1.63-6.76,4.63-10.69,4.36-7.84-.53-6.9-10.21-12.26-15.72-5.07-5.22-15.38-5.9-22-2.59a33.76,33.76,0,0,0-11.56,9.38c-3.19,4.13-3,10.52-5.4,15.07s-7.61,6.32-9.95,10.65c-2,3.76-2.66,7.75-1,11.72,3.35,8,13.18,13.84,22.09,13.84H420.44S404.88,60.47,398.24,54.09Z"/><polygon class="cls-11" points="953.51 184.1 869.85 139.33 891.88 73.93 993.71 126.65 953.51 184.1"/><polygon class="cls-11" points="993.71 126.65 891.88 73.93 964.46 58.43 993.71 126.65"/><rect class="cls-13" x="881.45" y="90.67" width="91.8" height="77.54" transform="translate(163.34 -411.88) rotate(27.37)"/><polygon class="cls-14" points="891.88 73.93 857.6 140.13 924.44 135.73 891.88 73.93"/><polygon class="cls-14" points="993.71 126.65 959.43 192.85 924.44 135.73 993.71 126.65"/><polygon class="cls-15" points="959.43 192.85 857.6 140.13 935.04 115.6 959.43 192.85"/><polygon class="cls-14" points="959.43 192.85 857.6 140.13 930.19 124.64 959.43 192.85"/><polygon class="cls-11" points="282.02 211.78 213.85 228.85 193.39 182.01 275.49 160.27 282.02 211.78"/><polygon class="cls-11" points="275.49 160.27 193.39 182.01 225.5 137.39 275.49 160.27"/><rect class="cls-13" x="206.48" y="166.1" width="67.99" height="57.43" transform="translate(-41.87 68.07) rotate(-14.84)"/><polygon class="cls-14" points="193.39 182.01 207.53 235.39 242.01 199.71 193.39 182.01"/><polygon class="cls-14" points="275.49 160.27 289.62 213.64 242.01 199.71 275.49 160.27"/><polygon class="cls-15" points="289.62 213.64 207.53 235.39 237.8 183.4 289.62 213.64"/><polygon class="cls-14" points="289.62 213.64 207.53 235.39 239.64 190.77 289.62 213.64"/><polygon class="cls-16" points="611.66 147.07 315.26 406.61 315.26 763.5 908.07 763.5 908.07 406.61 611.66 147.07"/><rect class="cls-17" x="345.22" y="265.89" width="532.88" height="460.78"/><rect class="cls-18" x="375.74" y="301.82" width="471.85" height="41.69"/><rect class="cls-18" x="375.74" y="363.04" width="471.85" height="41.69"/><rect class="cls-18" x="375.74" y="424.27" width="471.85" height="247.93"/><path class="cls-19" d="M385.82,323.16c0-3.7,2.05-5.8,4.8-5.8s4.81,2.1,4.81,5.8-2,5.79-4.81,5.79S385.82,326.86,385.82,323.16Zm7,0c0-2.55-.9-3.6-2.2-3.6s-2.17,1.05-2.17,3.6.89,3.6,2.17,3.6S392.82,325.7,392.82,323.16Z"/><path class="cls-19" d="M405.15,325.24c0,2-1.45,3.71-4.65,3.71a7.74,7.74,0,0,1-4.28-1.2l1-2a5.36,5.36,0,0,0,3.18,1c1.3,0,2.1-.55,2.1-1.46s-.58-1.46-2.61-1.46h-2.87l.58-6.3h6.84v2.08h-4.68l-.17,2.13h.91C403.84,321.77,405.15,323.26,405.15,325.24Z"/><path class="cls-19" d="M414.59,325.24c0,2-1.45,3.71-4.65,3.71a7.74,7.74,0,0,1-4.28-1.2l1-2a5.36,5.36,0,0,0,3.18,1c1.3,0,2.1-.55,2.1-1.46s-.58-1.46-2.61-1.46h-2.87l.58-6.3h6.84v2.08h-4.68l-.17,2.13H410C413.28,321.77,414.59,323.26,414.59,325.24Z"/><path class="cls-19" d="M425,325.51c0,2.11-1.89,3.44-4.74,3.44s-4.71-1.33-4.71-3.44a2.86,2.86,0,0,1,1.7-2.64,2.6,2.6,0,0,1-1.3-2.3c0-2,1.76-3.21,4.31-3.21s4.34,1.24,4.34,3.21a2.59,2.59,0,0,1-1.32,2.3A2.85,2.85,0,0,1,425,325.51Zm-2.63-.08c0-1-.82-1.6-2.11-1.6s-2.08.61-2.08,1.6.8,1.62,2.08,1.62S422.4,326.42,422.4,325.43Zm-3.84-4.75c0,.85.67,1.37,1.73,1.37s1.76-.52,1.76-1.37-.71-1.41-1.76-1.41S418.56,319.8,418.56,320.68Z"/><path class="cls-19" d="M434.58,326.65v2.11h-8.47v-1.68l4.32-4.08c1-.95,1.17-1.52,1.17-2.07,0-.88-.61-1.39-1.79-1.39a2.74,2.74,0,0,0-2.32,1.12l-1.89-1.21a5.19,5.19,0,0,1,4.45-2.09c2.49,0,4.16,1.28,4.16,3.32,0,1.09-.31,2.08-1.87,3.53l-2.58,2.44Z"/><path class="cls-19" d="M444.39,317.56v1.68l-4.17,9.52h-2.81l4-9.09h-3.71v1.82h-2.3v-3.93Z"/><path class="cls-19" d="M454.47,325.22c0,2.29-1.88,3.73-4.25,3.73-3.09,0-5-1.93-5-5.55,0-3.87,2.34-6,5.72-6a6.11,6.11,0,0,1,3.12.77l-1,1.91a3.69,3.69,0,0,0-2.1-.56c-1.87,0-3.07,1.1-3.15,3.25a3.78,3.78,0,0,1,2.77-1A3.56,3.56,0,0,1,454.47,325.22Zm-2.52.13a1.69,1.69,0,0,0-1.9-1.68,1.76,1.76,0,0,0-1.94,1.68c0,1,.72,1.67,2,1.67A1.68,1.68,0,0,0,452,325.35Z"/><path class="cls-19" d="M463.78,326.65v2.11h-8.47v-1.68l4.32-4.08c1-.95,1.17-1.52,1.17-2.07,0-.88-.61-1.39-1.79-1.39a2.74,2.74,0,0,0-2.32,1.12l-1.89-1.21a5.19,5.19,0,0,1,4.45-2.09c2.49,0,4.16,1.28,4.16,3.32,0,1.09-.31,2.08-1.87,3.53L459,326.65Z"/><path class="cls-19" d="M464.81,323.16c0-3.7,2.05-5.8,4.81-5.8s4.8,2.1,4.8,5.8-2,5.79-4.8,5.79S464.81,326.86,464.81,323.16Zm7,0c0-2.55-.9-3.6-2.19-3.6s-2.18,1.05-2.18,3.6.89,3.6,2.18,3.6S471.81,325.7,471.81,323.16Z"/><path class="cls-19" d="M484.62,322.92c0,3.87-2.32,6-5.71,6a5.93,5.93,0,0,1-3.1-.77l1-1.9a3.55,3.55,0,0,0,2.09.56c1.86,0,3.08-1.1,3.16-3.27a3.83,3.83,0,0,1-2.79,1,3.55,3.55,0,0,1-3.86-3.49c0-2.29,1.88-3.73,4.25-3.73C482.72,317.36,484.62,319.3,484.62,322.92ZM481.73,321c0-1-.72-1.67-2-1.67a1.69,1.69,0,1,0,0,3.35A1.74,1.74,0,0,0,481.73,321Z"/><path class="cls-19" d="M385.52,390.18l.83-1.79a6,6,0,0,0,3,.83c1.16,0,1.59-.31,1.59-.79,0-1.4-5.2,0-5.2-3.41,0-1.63,1.47-2.78,4-2.78A7.11,7.11,0,0,1,393,383l-.84,1.78a4.93,4.93,0,0,0-2.48-.64c-1.12,0-1.6.35-1.6.8,0,1.47,5.2.05,5.2,3.44,0,1.6-1.49,2.74-4.06,2.74A7.37,7.37,0,0,1,385.52,390.18Z"/><path class="cls-19" d="M403.52,382.37V391h-2.37v-1a3.44,3.44,0,0,1-2.67,1.16c-2.16,0-3.68-1.22-3.68-3.88v-4.86h2.5v4.5c0,1.44.64,2.08,1.74,2.08s2-.74,2-2.32v-4.26Z"/><path class="cls-19" d="M415.22,386.67a4.18,4.18,0,0,1-4.29,4.44,3.35,3.35,0,0,1-2.59-1v4h-2.5V382.37h2.38v1a3.37,3.37,0,0,1,2.71-1.12A4.18,4.18,0,0,1,415.22,386.67Zm-2.53,0a2.2,2.2,0,1,0-2.19,2.39A2.17,2.17,0,0,0,412.69,386.67Z"/><path class="cls-19" d="M426.26,386.67a4.18,4.18,0,0,1-4.29,4.44,3.39,3.39,0,0,1-2.6-1v4h-2.49V382.37h2.38v1a3.37,3.37,0,0,1,2.71-1.12A4.18,4.18,0,0,1,426.26,386.67Zm-2.53,0a2.2,2.2,0,1,0-2.19,2.39A2.17,2.17,0,0,0,423.73,386.67Z"/><path class="cls-19" d="M427.28,386.67a4.74,4.74,0,1,1,4.74,4.44A4.43,4.43,0,0,1,427.28,386.67Zm6.93,0a2.21,2.21,0,1,0-2.19,2.39A2.17,2.17,0,0,0,434.21,386.67Z"/><path class="cls-19" d="M443.74,382.24v2.3c-.2,0-.36,0-.56,0a2.11,2.11,0,0,0-2.28,2.4V391h-2.5v-8.61h2.38v1.13A3.49,3.49,0,0,1,443.74,382.24Z"/><path class="cls-19" d="M451.09,390.56a3.56,3.56,0,0,1-2,.55c-2,0-3.22-1-3.22-3.09v-3.54h-1.33v-1.92h1.33v-2.1h2.5v2.1h2.14v1.92h-2.14V388a1,1,0,0,0,1.07,1.13,1.69,1.69,0,0,0,1-.32Z"/><path class="cls-19" d="M467.28,386.59c0,2.87-1.31,4.5-3.28,4.5a2.13,2.13,0,0,1-2.19-1.39,3,3,0,0,1-2.74,1.39,4.06,4.06,0,0,1,0-8.08,3.1,3.1,0,0,1,2.47,1.05v-.94h2.17v5.19c0,.76.34,1,.77,1,.74,0,1.19-.85,1.19-2.7,0-3.25-2.4-5.5-6-5.5a5.81,5.81,0,1,0-.06,11.61,7.34,7.34,0,0,0,3.15-.7l.51,1.47a8.74,8.74,0,0,1-3.66.77c-4.63,0-7.68-3.14-7.68-7.37s3.09-7.3,7.74-7.3S467.28,382.58,467.28,386.59Zm-5.71.45a2,2,0,1,0-2,2.21A2,2,0,0,0,461.57,387Z"/><path class="cls-19" d="M483.6,386.05V391h-2.49v-4.55c0-1.39-.63-2-1.64-2s-1.9.72-1.9,2.26V391h-2.5v-4.55c0-1.39-.59-2-1.63-2s-1.89.72-1.89,2.26V391h-2.5v-8.61h2.39v1a3.47,3.47,0,0,1,2.7-1.12,3.22,3.22,0,0,1,2.84,1.41,3.88,3.88,0,0,1,3.1-1.41C482.13,382.24,483.6,383.42,483.6,386.05Z"/><path class="cls-19" d="M485.29,386.67a4.74,4.74,0,1,1,4.74,4.44A4.43,4.43,0,0,1,485.29,386.67Zm6.93,0a2.21,2.21,0,1,0-4.4,0,2.21,2.21,0,1,0,4.4,0Z"/><path class="cls-19" d="M504.72,382.37,501.09,391h-2.58l-3.62-8.61h2.58l2.39,5.86,2.46-5.86Z"/><path class="cls-19" d="M504.86,386.67a4.74,4.74,0,1,1,4.74,4.44A4.43,4.43,0,0,1,504.86,386.67Zm6.93,0a2.21,2.21,0,1,0-4.4,0,2.21,2.21,0,1,0,4.4,0Z"/><path class="cls-19" d="M524.79,386.05V391h-2.5v-4.55c0-1.39-.64-2-1.75-2s-2.06.74-2.06,2.32V391H516v-8.61h2.39v1a3.76,3.76,0,0,1,2.85-1.14C523.25,382.24,524.79,383.42,524.79,386.05Z"/><path class="cls-19" d="M526.73,379.77a1.43,1.43,0,0,1,1.56-1.39,1.41,1.41,0,0,1,1.55,1.35,1.56,1.56,0,0,1-3.11,0Zm.31,2.6h2.49V391H527Z"/><path class="cls-19" d="M531.21,386.67c0-2.59,2-4.43,4.81-4.43a3.94,3.94,0,0,1,3.85,2.19l-1.93,1a2.17,2.17,0,0,0-1.94-1.18,2.39,2.39,0,0,0,0,4.77,2.13,2.13,0,0,0,1.94-1.19l1.93,1.06a4,4,0,0,1-3.85,2.18C533.21,391.11,531.21,389.27,531.21,386.67Z"/><path class="cls-19" d="M540.48,390.18l.83-1.79a6,6,0,0,0,3,.83c1.16,0,1.59-.31,1.59-.79,0-1.4-5.2,0-5.2-3.41,0-1.63,1.47-2.78,4-2.78A7,7,0,0,1,548,383l-.83,1.78a4.93,4.93,0,0,0-2.48-.64c-1.12,0-1.6.35-1.6.8,0,1.47,5.2.05,5.2,3.44,0,1.6-1.49,2.74-4.06,2.74A7.37,7.37,0,0,1,540.48,390.18Z"/><path class="cls-19" d="M549.2,389.54a1.55,1.55,0,0,1,3.1,0,1.55,1.55,0,1,1-3.1,0Z"/><path class="cls-19" d="M553.25,386.67c0-2.59,2-4.43,4.8-4.43a3.94,3.94,0,0,1,3.85,2.19l-1.93,1a2.17,2.17,0,0,0-1.94-1.18,2.39,2.39,0,0,0,0,4.77,2.13,2.13,0,0,0,1.94-1.19l1.93,1.06a4,4,0,0,1-3.85,2.18C555.25,391.11,553.25,389.27,553.25,386.67Z"/><path class="cls-19" d="M562.59,386.67a4.74,4.74,0,1,1,4.74,4.44A4.43,4.43,0,0,1,562.59,386.67Zm6.93,0a2.21,2.21,0,1,0-4.4,0,2.21,2.21,0,1,0,4.4,0Z"/><path class="cls-19" d="M588.26,386.05V391h-2.5v-4.55c0-1.39-.62-2-1.63-2s-1.91.72-1.91,2.26V391h-2.49v-4.55c0-1.39-.59-2-1.64-2s-1.88.72-1.88,2.26V391h-2.5v-8.61h2.38v1a3.48,3.48,0,0,1,2.71-1.12,3.2,3.2,0,0,1,2.83,1.41,3.88,3.88,0,0,1,3.11-1.41C586.79,382.24,588.26,383.42,588.26,386.05Z"/><path class="cls-19" d="M400.9,442.07V447h-2.5v-4.55c0-1.39-.62-2-1.63-2s-1.9.72-1.9,2.26V447h-2.5v-4.55c0-1.39-.59-2-1.63-2s-1.89.72-1.89,2.26V447h-2.5v-8.61h2.39v1a3.47,3.47,0,0,1,2.7-1.12,3.19,3.19,0,0,1,2.83,1.41,3.88,3.88,0,0,1,3.11-1.41C399.43,438.26,400.9,439.44,400.9,442.07Z"/><path class="cls-19" d="M411.62,443.4H405.1a2.3,2.3,0,0,0,2.47,1.72,2.92,2.92,0,0,0,2.16-.83l1.33,1.44a4.53,4.53,0,0,1-3.56,1.4c-3,0-4.91-1.88-4.91-4.44a4.38,4.38,0,0,1,4.59-4.43,4.26,4.26,0,0,1,4.49,4.46C411.67,442.92,411.63,443.19,411.62,443.4Zm-6.55-1.46h4.24a2.15,2.15,0,0,0-4.24,0Z"/><path class="cls-19" d="M412.49,446.2l.84-1.8a5.81,5.81,0,0,0,3,.84c1.15,0,1.58-.31,1.58-.79,0-1.41-5.2,0-5.2-3.41,0-1.63,1.47-2.78,4-2.78A7.09,7.09,0,0,1,420,439l-.83,1.78a5,5,0,0,0-2.48-.64c-1.12,0-1.6.35-1.6.8,0,1.47,5.2.05,5.2,3.44,0,1.6-1.49,2.74-4.07,2.74A7.5,7.5,0,0,1,412.49,446.2Z"/><path class="cls-19" d="M429.44,442.08V447H427.1v-1.08a2.81,2.81,0,0,1-2.62,1.21c-2,0-3.22-1.12-3.22-2.61s1.07-2.58,3.7-2.58h2c0-1.07-.64-1.7-2-1.7a4.17,4.17,0,0,0-2.48.8l-.9-1.74a6.66,6.66,0,0,1,3.72-1C427.92,438.26,429.44,439.47,429.44,442.08Zm-2.5,2.2v-.88h-1.71c-1.17,0-1.53.43-1.53,1s.52,1,1.4,1A1.82,1.82,0,0,0,426.94,444.28Z"/><path class="cls-19" d="M440.67,438.39v7.17c0,3.2-1.73,4.67-4.83,4.67a7.15,7.15,0,0,1-4.23-1.18l1-1.8a5.07,5.07,0,0,0,3,1c1.76,0,2.53-.8,2.53-2.35v-.37a3.55,3.55,0,0,1-2.72,1.07,4.16,4.16,0,1,1,0-8.32,3.44,3.44,0,0,1,2.84,1.23v-1.1Zm-2.46,4a2.27,2.27,0,1,0-2.26,2.11A2.09,2.09,0,0,0,438.21,442.42Z"/><path class="cls-19" d="M451.38,443.4h-6.52a2.3,2.3,0,0,0,2.47,1.72,2.92,2.92,0,0,0,2.16-.83l1.33,1.44a4.53,4.53,0,0,1-3.56,1.4c-3,0-4.91-1.88-4.91-4.44a4.38,4.38,0,0,1,4.59-4.43,4.26,4.26,0,0,1,4.49,4.46C451.43,442.92,451.39,443.19,451.38,443.4Zm-6.55-1.46h4.24a2.15,2.15,0,0,0-4.24,0Z"/><polygon class="cls-20" points="611.66 633.19 315.26 406.61 315.26 726.67 908.07 726.67 908.07 406.61 611.66 633.19"/><polygon class="cls-21" points="611.66 670.07 315.26 406.61 315.26 763.5 908.07 763.5 908.07 406.61 611.66 670.07"/><polygon class="cls-22" points="611.66 484.07 315.26 763.5 908.07 763.5 611.66 484.07"/><polygon class="cls-23" points="611.66 511.3 315.26 763.5 908.07 763.5 611.66 511.3"/><path class="cls-24" d="M805.54,780.82c-6-31.26.26-63.37,12.76-90.1,8.17-17.48,27-41.84,48-41.46,15.61.29,22.16,16,23.06,30.12,2.37,37-15,48.35-14.94,88.41.87-15.18,15.55-64.44,38.47-47.63,22.44,16.46.57,60.66.57,60.66"/><path class="cls-3" d="M906.67,729.85a179.42,179.42,0,0,0-9.39,17.44,112.08,112.08,0,0,0-7.41,20.86,70.57,70.57,0,0,0-2,12.67c0,.29.41.28.44,0a97.55,97.55,0,0,1,4.9-22.13,141.4,141.4,0,0,1,8.55-19.4q2.48-4.69,5.17-9.26a.18.18,0,0,0-.31-.18Z"/><path class="cls-3" d="M864.85,671.91A98.66,98.66,0,0,0,854,692.5a205.87,205.87,0,0,0-8,24.72c-2.17,8.28-4,16.66-5.5,25.09-1.32,7.27-2.45,14.58-3.44,21.91q-1,7.66-1.78,15.36l-.12,1.24c0,.28.41.28.44,0,.51-4.73,1.1-9.46,1.73-14.18.94-7.13,2-14.25,3.23-21.33,1.46-8.33,3.15-16.62,5.18-24.83a222,222,0,0,1,7.56-24.83,110.28,110.28,0,0,1,10.41-21.37c.48-.74,1-1.47,1.48-2.19.13-.19-.18-.37-.31-.18Z"/></g></g></g></svg>