<svg xmlns="http://www.w3.org/2000/svg" viewBox="0 0 203.21 134.44"><defs><style>.cls-1{fill:#22d1ee;}</style></defs><title>Asset 9</title><g id="Layer_2" data-name="Layer 2"><g id="Layer_4" data-name="Layer 4"><path class="cls-1" d="M51.07,96.92c-10.85,0-20.38,8.42-21.24,18.76S37.1,134.44,48,134.44,68.32,126,69.18,115.68,61.92,96.92,51.07,96.92Zm-2.6,31.27c-7.23,0-12.65-5.61-12.08-12.51s6.92-12.5,14.16-12.5,12.65,5.61,12.07,12.5S55.7,128.19,48.47,128.19Z"/><path class="cls-1" d="M162.55,96.92c-10.85,0-20.37,8.42-21.23,18.76s7.27,18.76,18.12,18.76,20.37-8.41,21.23-18.76S173.4,96.92,162.55,96.92ZM160,128.19c-7.24,0-12.65-5.61-12.08-12.51s6.92-12.5,14.15-12.5,12.65,5.61,12.08,12.5S167.19,128.19,160,128.19Z"/><path class="cls-1" d="M202.82,79.6,176.94,35.83a3,3,0,0,0-2.64-1.44H138.24a3.54,3.54,0,0,0-3.54,3.13l-6.49,78.16a2.9,2.9,0,0,0,3,3.13h13.12l.52-6.25H135l6-71.91h31l24.57,41.56-2.52,30.35h-16.4l-.52,6.25h19.68a3.54,3.54,0,0,0,3.53-3.13l2.86-34.39A2.82,2.82,0,0,0,202.82,79.6Z"/><path class="cls-1" d="M151.26,75l1.81-21.89h26.24l.51-6.25H150.31A3.56,3.56,0,0,0,146.77,50l-2.33,28.14a2.9,2.9,0,0,0,3,3.13h49.18l.52-6.25Z"/><path class="cls-1" d="M140.05,12.51H15.45a3.55,3.55,0,0,0-3.54,3.12L3.6,115.68a2.91,2.91,0,0,0,3,3.13H32.85l.52-6.25H10.42l7.79-93.8h118l-7.78,93.8H66.16l-.52,6.25h65.58a3.54,3.54,0,0,0,3.54-3.13l8.31-100.05A2.9,2.9,0,0,0,140.05,12.51Z"/><polygon class="cls-1" points="8.18 100.05 27.85 100.05 27.33 106.3 7.66 106.3 8.18 100.05"/><polygon class="cls-1" points="73.76 100.05 129.5 100.05 128.98 106.3 73.24 106.3 73.76 100.05"/><polygon class="cls-1" points="185.25 100.05 198.36 100.05 197.84 106.3 184.73 106.3 185.25 100.05"/><polygon class="cls-1" points="24.25 25.01 139.01 25.01 138.5 31.27 23.73 31.27 24.25 25.01"/><polygon class="cls-1" points="46.49 112.56 53.05 112.56 52.53 118.81 45.97 118.81 46.49 112.56"/><polygon class="cls-1" points="157.98 112.56 164.53 112.56 164.01 118.81 157.46 118.81 157.98 112.56"/><polygon class="cls-1" points="13.63 0 59.54 0 59.02 6.25 13.12 6.25 13.63 0"/><polygon class="cls-1" points="0.52 0 7.08 0 6.56 6.25 0 6.25 0.52 0"/></g></g></svg>