<svg xmlns="http://www.w3.org/2000/svg" viewBox="0 0 124.43 82.32"><defs><style>.cls-1{fill:#2c348c;}.cls-2{fill:#ea7704;}</style></defs><title>Asset 22</title><g id="Layer_2" data-name="Layer 2"><g id="Layer_4" data-name="Layer 4"><path class="cls-1" d="M31.27,59.35c-6.64,0-12.48,5.15-13,11.49s4.45,11.48,11.09,11.48,12.48-5.15,13-11.48S37.91,59.35,31.27,59.35ZM29.68,78.49a7.12,7.12,0,0,1-7.4-7.65A8.7,8.7,0,0,1,31,63.18a7.12,7.12,0,0,1,7.4,7.66A8.7,8.7,0,0,1,29.68,78.49Z"/><path class="cls-1" d="M99.54,59.35c-6.65,0-12.48,5.15-13,11.49S91,82.32,97.63,82.32s12.47-5.15,13-11.48S106.18,59.35,99.54,59.35ZM98,78.49a7.12,7.12,0,0,1-7.4-7.65,8.7,8.7,0,0,1,8.67-7.66,7.11,7.11,0,0,1,7.39,7.66A8.69,8.69,0,0,1,98,78.49Z"/><path class="cls-1" d="M124.19,48.74l-15.84-26.8a1.85,1.85,0,0,0-1.62-.88H84.65A2.18,2.18,0,0,0,82.48,23l-4,47.87a1.78,1.78,0,0,0,1.85,1.91h8l.32-3.83h-6l3.66-44h19l15,25.45-1.54,18.58h-10l-.32,3.83h12.05a2.18,2.18,0,0,0,2.17-1.91l1.75-21.06A1.71,1.71,0,0,0,124.19,48.74Z"/><path class="cls-1" d="M92.62,46l1.11-13.4h16.06l.32-3.83H92a2.16,2.16,0,0,0-2.16,1.91L88.44,47.86a1.79,1.79,0,0,0,1.85,1.92h30.12l.32-3.83Z"/><path class="cls-1" d="M85.76,7.66H9.46A2.18,2.18,0,0,0,7.29,9.57L2.2,70.84a1.79,1.79,0,0,0,1.85,1.91H20.12l.31-3.83h-14l4.77-57.43H83.43L78.66,68.92H40.51l-.31,3.83H80.35a2.18,2.18,0,0,0,2.17-1.91L87.61,9.57A1.78,1.78,0,0,0,85.76,7.66Z"/><polygon class="cls-1" points="5.01 61.26 17.05 61.26 16.74 65.09 4.69 65.09 5.01 61.26"/><polygon class="cls-1" points="45.16 61.26 79.3 61.26 78.98 65.09 44.85 65.09 45.16 61.26"/><polygon class="cls-1" points="113.43 61.26 121.47 61.26 121.15 65.09 113.11 65.09 113.43 61.26"/><polygon class="cls-1" points="14.85 15.32 85.12 15.32 84.81 19.14 14.53 19.14 14.85 15.32"/><polygon class="cls-1" points="28.47 68.92 32.48 68.92 32.16 72.75 28.15 72.75 28.47 68.92"/><polygon class="cls-1" points="96.73 68.92 100.75 68.92 100.43 72.75 96.42 72.75 96.73 68.92"/><polygon class="cls-1" points="8.35 0 36.46 0 36.14 3.83 8.03 3.83 8.35 0"/><polygon class="cls-1" points="0.32 0 4.33 0 4.02 3.83 0 3.83 0.32 0"/><path class="cls-2" d="M31.83,32.77a5.25,5.25,0,0,0-5,4.32,4,4,0,0,0,.2,2l2.55,6.45a.21.21,0,0,0,.21.14.31.31,0,0,0,.26-.14l4.58-6.45a4.94,4.94,0,0,0,.84-2A3.59,3.59,0,0,0,31.83,32.77Zm-1,6.48A1.8,1.8,0,0,1,29,37.09a2.62,2.62,0,0,1,2.5-2.16,1.8,1.8,0,0,1,1.82,2.16A2.62,2.62,0,0,1,30.81,39.25Z"/><path class="cls-1" d="M25.7,38.83l-.58,3.69H23.25l.53-3.41c.17-1-.22-1.52-1-1.52s-1.51.54-1.69,1.69l-.52,3.24H18.72l.54-3.41c.16-1-.2-1.52-1-1.52s-1.51.54-1.69,1.69l-.51,3.24H14.21l1-6.45H17l-.12.74A3.06,3.06,0,0,1,19.06,36,2,2,0,0,1,21,37,3.42,3.42,0,0,1,23.51,36C25.05,36,26,36.86,25.7,38.83Z"/><path class="cls-1" d="M43.66,36.07l-3.74,6.45H38l-1.7-6.45h1.93l1.1,4.39,2.54-4.39Z"/><path class="cls-1" d="M43.26,39.29A4,4,0,0,1,47.34,36a2.77,2.77,0,0,1,3,3.32,4,4,0,0,1-4.06,3.33A2.78,2.78,0,0,1,43.26,39.29Zm5.2,0a1.37,1.37,0,0,0-1.37-1.78,2,2,0,0,0-1.93,1.78,1.37,1.37,0,0,0,1.37,1.79A2,2,0,0,0,48.46,39.29Z"/><path class="cls-1" d="M58.27,38.83l-.58,3.69H55.82l.54-3.41c.16-1-.24-1.52-1.07-1.52a1.8,1.8,0,0,0-1.82,1.74L53,42.52H51.09l1-6.45H53.9l-.12.75A3.29,3.29,0,0,1,56.05,36C57.57,36,58.58,36.86,58.27,38.83Z"/><path class="cls-1" d="M60.48,34.12a1.29,1.29,0,0,1,1.33-1c.69,0,1.09.43,1,1a1.31,1.31,0,0,1-1.33,1.08A.9.9,0,0,1,60.48,34.12Zm-.08,2h1.87l-1,6.45H59.38Z"/><path class="cls-1" d="M63,39.29A4,4,0,0,1,67.15,36a2.47,2.47,0,0,1,2.63,1.64l-1.57.78a1.34,1.34,0,0,0-1.32-.88,2,2,0,0,0-2,1.78,1.39,1.39,0,0,0,1.41,1.79,1.89,1.89,0,0,0,1.59-.89l1.33.8a3.58,3.58,0,0,1-3.15,1.63C64,42.62,62.72,41.24,63,39.29Z"/><path class="cls-1" d="M69.56,41.92l.83-1.34a4,4,0,0,0,2.15.62c.86,0,1.22-.22,1.28-.58.17-1.06-3.9,0-3.5-2.56.2-1.23,1.44-2.09,3.32-2.09a4.75,4.75,0,0,1,2.39.56l-.83,1.34a3.32,3.32,0,0,0-1.78-.48c-.84,0-1.25.26-1.3.6-.17,1.1,3.9,0,3.5,2.58-.19,1.2-1.44,2-3.38,2A4.9,4.9,0,0,1,69.56,41.92Z"/></g></g></svg>