<svg xmlns="http://www.w3.org/2000/svg" xmlns:xlink="http://www.w3.org/1999/xlink" viewBox="0 0 890.28 500.07"><defs><style>.cls-1{fill:#bff6fd;}.cls-2{fill:url(#linear-gradient);}.cls-3{opacity:0.5;}.cls-4{fill:#fff;}.cls-5{fill:url(#linear-gradient-2);}.cls-6{fill:#cb236e;}.cls-7{fill:url(#linear-gradient-3);}.cls-8{fill:url(#linear-gradient-4);}.cls-9{fill:url(#linear-gradient-5);}.cls-10{fill:#fff6ef;}.cls-11{fill:url(#linear-gradient-6);}.cls-12{fill:url(#linear-gradient-7);}.cls-13{fill:url(#linear-gradient-8);}.cls-14{fill:url(#linear-gradient-9);}.cls-15{fill:url(#linear-gradient-10);}.cls-16{fill:url(#linear-gradient-11);}.cls-17{fill:url(#linear-gradient-12);}.cls-18{fill:url(#linear-gradient-13);}.cls-19{fill:url(#linear-gradient-14);}.cls-20,.cls-25{fill:none;stroke:#fff;stroke-miterlimit:10;}.cls-21{fill:url(#linear-gradient-15);}.cls-22{fill:url(#linear-gradient-16);}.cls-23{fill:url(#linear-gradient-17);}.cls-24{fill:url(#linear-gradient-18);}.cls-25{stroke-width:2px;}.cls-26{fill:url(#linear-gradient-19);}.cls-27{fill:url(#linear-gradient-20);}.cls-28{fill:url(#linear-gradient-21);}.cls-29{fill:url(#linear-gradient-22);}.cls-30{fill:url(#linear-gradient-23);}.cls-31{fill:url(#linear-gradient-24);}.cls-32{fill:#ef4979;}.cls-33{fill:url(#linear-gradient-25);}.cls-34{fill:url(#linear-gradient-26);}.cls-35{fill:url(#linear-gradient-27);}.cls-36{fill:url(#linear-gradient-28);}.cls-37{fill:url(#linear-gradient-29);}.cls-38{fill:url(#linear-gradient-30);}.cls-39{fill:url(#linear-gradient-31);}.cls-40{fill:url(#linear-gradient-32);}.cls-41{fill:#22276b;}.cls-42{fill:url(#linear-gradient-33);}.cls-43{fill:url(#linear-gradient-34);}.cls-44{fill:url(#linear-gradient-35);}.cls-45{fill:url(#linear-gradient-36);}.cls-46{fill:url(#linear-gradient-37);}.cls-47{fill:url(#linear-gradient-38);}.cls-48{fill:#e3675b;}.cls-49{fill:url(#linear-gradient-39);}.cls-50{fill:url(#linear-gradient-40);}.cls-51{fill:url(#linear-gradient-41);}.cls-52{fill:url(#linear-gradient-42);}.cls-53{fill:url(#linear-gradient-43);}.cls-54{fill:url(#linear-gradient-44);}.cls-55{fill:url(#linear-gradient-45);}.cls-56{fill:url(#linear-gradient-46);}</style><linearGradient id="linear-gradient" x1="682.84" y1="366.6" x2="682.84" y2="-23.27" gradientUnits="userSpaceOnUse"><stop offset="0.42" stop-color="#e98756"/><stop offset="1" stop-color="#f5e478"/></linearGradient><linearGradient id="linear-gradient-2" x1="768.13" y1="32.06" x2="768.13" y2="377.52" gradientUnits="userSpaceOnUse"><stop offset="0" stop-color="#b9177c"/><stop offset="1" stop-color="#de3b7a"/></linearGradient><linearGradient id="linear-gradient-3" x1="664.87" y1="151.11" x2="823.23" y2="151.11" gradientTransform="matrix(-1.1, 0.03, -0.03, -1, 1183.17, 271.71)" xlink:href="#linear-gradient-2"/><linearGradient id="linear-gradient-4" x1="7369.36" y1="189.49" x2="7589.42" y2="189.49" gradientTransform="matrix(-1, 0, 0, 1, 7829.51, 0)" gradientUnits="userSpaceOnUse"><stop offset="0" stop-color="#3841f8"/><stop offset="0.99" stop-color="#4690fb"/></linearGradient><linearGradient id="linear-gradient-5" x1="7474.65" y1="331.76" x2="7568.37" y2="331.76" gradientTransform="matrix(1, 0, 0, -1, -7213.51, 663.53)" gradientUnits="userSpaceOnUse"><stop offset="0" stop-color="#5382ec"/><stop offset="0.08" stop-color="#5b90f0"/><stop offset="0.25" stop-color="#68a5f7"/><stop offset="0.44" stop-color="#71b4fb"/><stop offset="0.66" stop-color="#76bcfe"/><stop offset="1" stop-color="#78bfff"/></linearGradient><linearGradient id="linear-gradient-6" x1="7506.23" y1="277.09" x2="7506.23" y2="380.33" gradientTransform="matrix(1, 0, 0, -1, -7182.94, 645.57)" xlink:href="#linear-gradient-2"/><linearGradient id="linear-gradient-7" x1="7536.97" y1="277.69" x2="7536.97" y2="377.7" gradientTransform="matrix(1, 0, 0, -1, -7244.43, 645.57)" xlink:href="#linear-gradient-2"/><linearGradient id="linear-gradient-8" x1="980.19" y1="129.77" x2="1138.56" y2="129.77" gradientTransform="matrix(1.1, 0.03, -0.03, 1, -509.56, -17.59)" xlink:href="#linear-gradient-2"/><linearGradient id="linear-gradient-9" x1="553.54" y1="189.49" x2="773.6" y2="189.49" gradientTransform="matrix(1, 0, 0, 1, 0, 0)" xlink:href="#linear-gradient-4"/><linearGradient id="linear-gradient-10" x1="506.72" y1="59.78" x2="506.72" y2="417.59" gradientTransform="matrix(1, 0, 0, 1, 0, 0)" xlink:href="#linear-gradient-5"/><linearGradient id="linear-gradient-11" x1="340.23" y1="104.18" x2="671.57" y2="104.18" xlink:href="#linear-gradient-2"/><linearGradient id="linear-gradient-12" x1="470.49" y1="349" x2="535.56" y2="349" xlink:href="#linear-gradient-2"/><linearGradient id="linear-gradient-13" x1="658.84" y1="331.76" x2="752.55" y2="331.76" gradientTransform="matrix(1, 0, 0, 1, 0, 0)" xlink:href="#linear-gradient-5"/><linearGradient id="linear-gradient-14" x1="503.18" y1="426.68" x2="503.18" y2="403.28" gradientUnits="userSpaceOnUse"><stop offset="0" stop-color="#5382ec"/><stop offset="0.13" stop-color="#598cef"/><stop offset="0.7" stop-color="#6fb1fb"/><stop offset="1" stop-color="#78bfff"/></linearGradient><linearGradient id="linear-gradient-15" x1="399.57" y1="275.6" x2="399.57" y2="383.34" xlink:href="#linear-gradient-2"/><linearGradient id="linear-gradient-16" x1="422.81" y1="331.25" x2="452.52" y2="331.25" xlink:href="#linear-gradient-2"/><linearGradient id="linear-gradient-17" x1="399.57" y1="219.38" x2="399.57" y2="286.07" xlink:href="#linear-gradient-2"/><linearGradient id="linear-gradient-18" x1="422.81" y1="249.04" x2="452.52" y2="249.04" xlink:href="#linear-gradient-2"/><linearGradient id="linear-gradient-19" x1="552.89" y1="331.25" x2="582.59" y2="331.25" xlink:href="#linear-gradient-2"/><linearGradient id="linear-gradient-20" x1="590.98" y1="331.25" x2="620.69" y2="331.25" xlink:href="#linear-gradient-2"/><linearGradient id="linear-gradient-21" x1="552.89" y1="249.05" x2="582.59" y2="249.05" xlink:href="#linear-gradient-2"/><linearGradient id="linear-gradient-22" x1="590.98" y1="249.04" x2="620.69" y2="249.04" xlink:href="#linear-gradient-2"/><linearGradient id="linear-gradient-23" x1="690.41" y1="277.09" x2="690.41" y2="380.33" xlink:href="#linear-gradient-2"/><linearGradient id="linear-gradient-24" x1="721.16" y1="277.69" x2="721.16" y2="377.7" xlink:href="#linear-gradient-2"/><linearGradient id="linear-gradient-25" x1="184.7" y1="368.04" x2="184.7" y2="44.82" xlink:href="#linear-gradient"/><linearGradient id="linear-gradient-26" x1="125.08" y1="393.87" x2="103.15" y2="119.82" xlink:href="#linear-gradient-2"/><linearGradient id="linear-gradient-27" x1="253.27" y1="406.19" x2="253.27" y2="424.13" gradientUnits="userSpaceOnUse"><stop offset="0" stop-color="#e98756"/><stop offset="1" stop-color="#f5e478"/></linearGradient><linearGradient id="linear-gradient-28" x1="432.97" y1="222.02" x2="383.04" y2="219.99" gradientTransform="matrix(1, 0, 0, 1, 0, 0)" xlink:href="#linear-gradient-4"/><linearGradient id="linear-gradient-29" x1="78.18" y1="379.3" x2="145.95" y2="379.3" xlink:href="#linear-gradient-27"/><linearGradient id="linear-gradient-30" x1="461.88" y1="214.5" x2="238.5" y2="215.43" gradientUnits="userSpaceOnUse"><stop offset="0" stop-color="#5382ec"/><stop offset="1" stop-color="#78bfff"/></linearGradient><linearGradient id="linear-gradient-31" x1="113.35" y1="458.54" x2="113.35" y2="413.08" gradientUnits="userSpaceOnUse"><stop offset="0" stop-color="#b9177c"/><stop offset="0.68" stop-color="#7b1dbc"/></linearGradient><linearGradient id="linear-gradient-32" x1="113.35" y1="414.03" x2="113.35" y2="449.19" xlink:href="#linear-gradient-27"/><linearGradient id="linear-gradient-33" x1="207.71" y1="458.54" x2="207.71" y2="413.08" xlink:href="#linear-gradient-31"/><linearGradient id="linear-gradient-34" x1="207.71" y1="414.03" x2="207.71" y2="449.19" xlink:href="#linear-gradient-27"/><linearGradient id="linear-gradient-35" x1="346.06" y1="458.54" x2="346.06" y2="413.08" xlink:href="#linear-gradient-31"/><linearGradient id="linear-gradient-36" x1="346.06" y1="414.03" x2="346.06" y2="449.19" xlink:href="#linear-gradient-27"/><linearGradient id="linear-gradient-37" x1="404.28" y1="458.54" x2="404.28" y2="413.08" xlink:href="#linear-gradient-31"/><linearGradient id="linear-gradient-38" x1="404.28" y1="414.03" x2="404.28" y2="449.19" xlink:href="#linear-gradient-27"/><linearGradient id="linear-gradient-39" x1="144.61" y1="350.4" x2="91.88" y2="355.74" xlink:href="#linear-gradient-30"/><linearGradient id="linear-gradient-40" x1="99.88" y1="353.78" x2="78.78" y2="355.92" xlink:href="#linear-gradient-30"/><linearGradient id="linear-gradient-41" x1="694.47" y1="404.32" x2="714.72" y2="404.32" gradientUnits="userSpaceOnUse"><stop offset="0" stop-color="#e8c896"/><stop offset="0.99" stop-color="#e46678"/></linearGradient><linearGradient id="linear-gradient-42" x1="741.67" y1="396.33" x2="761.91" y2="396.33" xlink:href="#linear-gradient-41"/><linearGradient id="linear-gradient-43" x1="779.8" y1="396.33" x2="800.04" y2="396.33" xlink:href="#linear-gradient-41"/><linearGradient id="linear-gradient-44" x1="750.75" y1="404.32" x2="679.7" y2="404.32" xlink:href="#linear-gradient-41"/><linearGradient id="linear-gradient-45" x1="789.64" y1="396.33" x2="741.56" y2="396.33" xlink:href="#linear-gradient-41"/><linearGradient id="linear-gradient-46" x1="826.87" y1="396.46" x2="765.01" y2="395.85" xlink:href="#linear-gradient-41"/></defs><title>Asset 10</title><g id="Layer_2" data-name="Layer 2"><g id="Layer_7" data-name="Layer 7"><path class="cls-1" d="M470,476.42S215.33,547.56,77.44,443.05-37.61-49.66,339.16,19.73C411.18,32,471.78,131.27,672,53.1S899.49,98.77,888.08,162.88,853.82,390.35,470,476.42Z"/><path class="cls-2" d="M678.58,390.28s144-100.4,12-390.28C690.58,0,538.76,167.85,678.58,390.28Z"/><g class="cls-3"><path class="cls-4" d="M687.5,25.53Q684.59,47.21,682.72,69c-.61,7.26-1.32,14.5-1.79,21.76l-.81,10.89c-.27,3.62-.45,7.26-.68,10.89l-.65,10.89c-.22,3.63-.35,7.27-.54,10.9-.3,7.27-.75,14.53-.9,21.81l-.66,21.81-.29,21.82-.09,5.45v5.46l0,10.91c0,7.27,0,14.55.21,21.82l.44,21.82c0,3.64.28,7.27.4,10.91l.42,10.9c.43,14.55,1.45,29.07,2.26,43.61.29,7.28,1,14.53,1.53,21.79l.85,10.89.77,10.9-1.37-10.84-1.31-10.85c-.83-7.24-1.83-14.47-2.43-21.73L676.19,309c-.72-7.26-1-14.54-1.49-21.82-2-29.11-2.39-58.3-2.3-87.47s1.59-58.34,3.94-87.41S682.09,54.18,687.5,25.53Z"/></g><path class="cls-5" d="M744,411.25S899,310.86,798.71,21C798.71,21,628.51,188.82,744,411.25Z"/><g class="cls-3"><path class="cls-4" d="M792.84,46.51q-5.19,21.39-9.43,43c-1.38,7.2-2.89,14.37-4.14,21.59l-2,10.81c-.69,3.6-1.25,7.23-1.87,10.84-1.22,7.23-2.48,14.44-3.57,21.69l-1.7,10.86-.84,5.43-.76,5.44-3.07,21.77-2.68,21.81c-1,7.27-1.65,14.56-2.46,21.85s-1.63,14.56-2.21,21.86l-2,21.9c-.36,3.65-.56,7.31-.82,11l-.78,11c-1.17,14.61-1.77,29.26-2.55,43.9-.5,7.32-.62,14.66-.87,22l-.34,11-.42,11-.18-11-.12-11c-.05-7.34-.23-14.68,0-22l.47-22,.12-5.5c.06-1.84.18-3.67.26-5.51l.55-11c.39-7.33.64-14.68,1.22-22l1.68-22c.27-3.67.57-7.33,1-11l1.12-11c.78-7.31,1.42-14.63,2.38-21.91,3.42-29.19,8-58.23,13.53-87.09,1.34-7.22,2.83-14.41,4.36-21.6s3.17-14.34,4.8-21.5c.83-3.58,1.75-7.13,2.63-10.7L785.47,73l1.4-5.33Q789.6,57,792.84,46.51Z"/></g><rect class="cls-6" x="596.92" y="74.84" width="23.25" height="57.34"/><rect class="cls-7" x="271.82" y="135.58" width="174.48" height="10.29" rx="3.66" transform="translate(714.19 291.08) rotate(-178.45)"/><path class="cls-8" d="M248.69,236.1H451.56c6.23,0,9.86-6.95,8.19-15.29l-3.25-16.18-11.43-56.85-171.91-4.91L240.5,220.81C238.83,229.15,242.47,236.1,248.69,236.1Z"/><rect class="cls-9" x="261.15" y="236.1" width="93.71" height="191.32" transform="translate(616.01 663.53) rotate(-180)"/><rect class="cls-10" x="275.53" y="273.98" width="64.95" height="97.62" transform="translate(616.01 645.57) rotate(-180)"/><rect class="cls-11" x="310.23" y="279.14" width="26.11" height="87.29" transform="translate(646.57 645.57) rotate(-180)"/><rect class="cls-12" x="279.49" y="279.14" width="26.11" height="87.29" transform="translate(585.09 645.57) rotate(-180)"/><rect class="cls-13" x="566.43" y="135.58" width="174.5" height="10.29" rx="3.66" transform="translate(-3.56 17.69) rotate(-1.55)"/><path class="cls-14" d="M765,236.1H562.13c-6.22,0-9.86-6.95-8.18-15.29l3.25-16.18,11.43-56.85,171.91-4.91,32.66,77.94C774.87,229.15,771.23,236.1,765,236.1Z"/><polygon class="cls-15" points="659.19 157.85 659.19 427.42 354.26 427.42 354.26 157.85 354.61 157.85 506.72 69.61 658.84 157.85 659.19 157.85"/><path class="cls-16" d="M657.76,158.65l-151-89L354,158.75a9.16,9.16,0,0,1-13.78-7.91v-.06a9.17,9.17,0,0,1,4.54-7.91l162-94.53,160.34,94.53a9.14,9.14,0,0,1,4.51,7.89h0A9.16,9.16,0,0,1,657.76,158.65Z"/><rect class="cls-17" x="470.49" y="286" width="65.08" height="126.01"/><rect class="cls-18" x="658.84" y="236.1" width="93.71" height="191.32"/><rect class="cls-19" x="455.83" y="412.01" width="94.7" height="15.42"/><rect class="cls-20" x="478.28" y="293.55" width="21.24" height="85.24" rx="6.24"/><rect class="cls-20" x="478.28" y="381.8" width="21.24" height="18.6" rx="6.24"/><rect class="cls-20" x="505.82" y="293.55" width="21.24" height="85.24" rx="6.24"/><rect class="cls-20" x="505.82" y="381.8" width="21.24" height="18.6" rx="6.24"/><rect class="cls-21" x="384.72" y="286" width="29.7" height="90.51"/><rect class="cls-22" x="422.81" y="286" width="29.71" height="90.51"/><path class="cls-23" d="M414.42,220.5v57.1h-29.7V254.14A33.9,33.9,0,0,1,414.42,220.5Z"/><path class="cls-24" d="M452.52,254.14V277.6H422.81V220.49a33.93,33.93,0,0,1,29.71,33.65Z"/><path class="cls-25" d="M413,212.91h10.93a40.27,40.27,0,0,1,40.27,40.27v130a0,0,0,0,1,0,0H372.72a0,0,0,0,1,0,0v-130A40.27,40.27,0,0,1,413,212.91Z"/><rect class="cls-26" x="552.89" y="286" width="29.7" height="90.51"/><rect class="cls-27" x="590.98" y="286" width="29.71" height="90.51"/><path class="cls-28" d="M582.59,220.5v57.1h-29.7V254.14A33.9,33.9,0,0,1,582.59,220.5Z"/><path class="cls-29" d="M620.69,254.14V277.6H591V220.49a33.93,33.93,0,0,1,29.71,33.65Z"/><path class="cls-25" d="M581.16,212.91h10.93a40.27,40.27,0,0,1,40.27,40.27v130a0,0,0,0,1,0,0H540.89a0,0,0,0,1,0,0v-130A40.27,40.27,0,0,1,581.16,212.91Z"/><rect class="cls-10" x="673.22" y="273.98" width="64.95" height="97.62"/><rect class="cls-30" x="677.36" y="279.14" width="26.11" height="87.29"/><rect class="cls-31" x="708.1" y="279.14" width="26.11" height="87.29"/><rect class="cls-32" x="583.08" y="63.33" width="50.94" height="19.04" rx="6.89"/><path class="cls-33" d="M160.53,390.28S315.52,289.88,215.28,0C215.28,0,45.08,167.85,160.53,390.28Z"/><g class="cls-3"><path class="cls-4" d="M209.41,25.53q-5.19,21.4-9.43,43c-1.38,7.2-2.89,14.38-4.14,21.6l-2,10.81c-.69,3.6-1.25,7.22-1.87,10.83-1.22,7.23-2.48,14.45-3.57,21.7l-1.7,10.86-.84,5.43-.76,5.44L182,176.94l-2.68,21.82c-1,7.26-1.65,14.56-2.46,21.84s-1.63,14.57-2.21,21.87l-2,21.9c-.36,3.64-.56,7.3-.82,11l-.78,11c-1.17,14.62-1.77,29.26-2.55,43.91-.5,7.32-.62,14.65-.87,22l-.34,11-.42,11-.18-11-.12-11c-.05-7.34-.23-14.69,0-22l.47-22,.12-5.51c.06-1.83.18-3.67.26-5.5l.55-11c.39-7.34.64-14.68,1.22-22l1.68-22c.27-3.66.57-7.32,1-11l1.12-11c.78-7.31,1.42-14.63,2.38-21.91,3.43-29.19,8-58.23,13.53-87.09,1.34-7.22,2.83-14.42,4.36-21.6s3.17-14.34,4.8-21.5c.83-3.58,1.75-7.14,2.63-10.7L202,52.06l1.4-5.33Q206.17,36.07,209.41,25.53Z"/></g><path class="cls-34" d="M131.68,391.32S21.75,320.11,92.85,114.49C92.85,114.49,213.58,233.55,131.68,391.32Z"/><g class="cls-3"><path class="cls-4" d="M98,138.6a571,571,0,0,1,15,60.68c4,20.46,7.28,41.08,9.72,61.79.68,5.17,1.13,10.36,1.68,15.55s1.13,10.36,1.47,15.57l1.15,15.6c.4,5.19.55,10.41.81,15.61l.35,7.81.17,3.91.07,3.91.23,15.63c.11,5.21,0,10.42-.13,15.63s-.23,10.41-.39,15.61c-.26-5.2-.51-10.4-.72-15.6s-.33-10.4-.72-15.59c-.62-10.38-1.11-20.76-2-31.12l-.58-7.77c-.19-2.59-.34-5.19-.61-7.77l-1.43-15.52c-.42-5.18-1-10.34-1.58-15.51s-1.06-10.33-1.76-15.48l-1.88-15.47-2.16-15.43c-.33-2.57-.71-5.14-1.12-7.71l-1.18-7.7c-.76-5.14-1.64-10.26-2.47-15.39C106.49,179.34,102.67,158.9,98,138.6Z"/></g><rect class="cls-35" x="78.18" y="405.18" width="350.18" height="21.63"/><path class="cls-36" d="M317.25,23.32H279L284,58,183.62,162.48V386.59a20.12,20.12,0,0,0,20.12,20.12H434.92V162.48Z"/><polygon class="cls-37" points="145.95 331.8 145.95 426.8 78.18 426.8 78.18 373.58 92.17 331.8 145.95 331.8"/><path class="cls-38" d="M279,23.32,145.33,162.48V386.59a20.12,20.12,0,0,0,20.12,20.12H396.62V162.48Z"/><path class="cls-39" d="M113.34,410.73a24.08,24.08,0,1,0,24.09,24.08A24.08,24.08,0,0,0,113.34,410.73Zm0,34a9.93,9.93,0,1,1,9.93-9.92A9.93,9.93,0,0,1,113.34,444.73Z"/><path class="cls-40" d="M113.34,414.88a19.93,19.93,0,1,0,19.93,19.93A19.92,19.92,0,0,0,113.34,414.88Zm0,29.85a9.93,9.93,0,1,1,9.93-9.92A9.93,9.93,0,0,1,113.34,444.73Z"/><path class="cls-41" d="M123.27,434.81a9.93,9.93,0,1,1-9.93-9.93A9.93,9.93,0,0,1,123.27,434.81Z"/><path class="cls-42" d="M207.7,410.73a24.08,24.08,0,1,0,24.09,24.08A24.08,24.08,0,0,0,207.7,410.73Zm0,34a9.93,9.93,0,1,1,9.93-9.92A9.93,9.93,0,0,1,207.7,444.73Z"/><path class="cls-43" d="M207.7,414.88a19.93,19.93,0,1,0,19.93,19.93A19.92,19.92,0,0,0,207.7,414.88Zm0,29.85a9.93,9.93,0,1,1,9.93-9.92A9.93,9.93,0,0,1,207.7,444.73Z"/><path class="cls-41" d="M217.63,434.81a9.93,9.93,0,1,1-9.93-9.93A9.93,9.93,0,0,1,217.63,434.81Z"/><path class="cls-44" d="M346.06,410.73a24.08,24.08,0,1,0,24.09,24.08A24.08,24.08,0,0,0,346.06,410.73Zm0,34a9.93,9.93,0,1,1,9.93-9.92A9.93,9.93,0,0,1,346.06,444.73Z"/><path class="cls-45" d="M346.06,414.88A19.93,19.93,0,1,0,366,434.81,19.92,19.92,0,0,0,346.06,414.88Zm0,29.85a9.93,9.93,0,1,1,9.93-9.92A9.93,9.93,0,0,1,346.06,444.73Z"/><path class="cls-41" d="M356,434.81a9.93,9.93,0,1,1-9.93-9.93A9.93,9.93,0,0,1,356,434.81Z"/><path class="cls-46" d="M404.27,410.73a24.08,24.08,0,1,0,24.09,24.08A24.08,24.08,0,0,0,404.27,410.73Zm0,34a9.93,9.93,0,1,1,9.93-9.92A9.93,9.93,0,0,1,404.27,444.73Z"/><path class="cls-47" d="M404.27,414.88a19.93,19.93,0,1,0,19.93,19.93A19.92,19.92,0,0,0,404.27,414.88Zm0,29.85a9.93,9.93,0,1,1,9.93-9.92A9.93,9.93,0,0,1,404.27,444.73Z"/><path class="cls-41" d="M414.2,434.81a9.93,9.93,0,1,1-9.93-9.93A9.93,9.93,0,0,1,414.2,434.81Z"/><rect class="cls-48" x="116.7" y="374.66" width="15.29" height="5.32" rx="2.66"/><path class="cls-49" d="M132.54,336.08H99.59L87.47,369.64A3.94,3.94,0,0,0,92,374.59l40-8.37Z"/><path class="cls-50" d="M94.19,339.74A3.68,3.68,0,0,1,94,341L83.05,372a3.67,3.67,0,0,1-4.69,2.24l-.18-.07v-.58l12.56-37.5a3.79,3.79,0,0,1,1,.2A3.66,3.66,0,0,1,94.19,339.74Z"/><path class="cls-48" d="M101.06,322.92h44.27a0,0,0,0,1,0,0v8.88a0,0,0,0,1,0,0H92.17a0,0,0,0,1,0,0v0A8.88,8.88,0,0,1,101.06,322.92Z"/><rect class="cls-51" x="694.47" y="381.22" width="20.24" height="46.21"/><rect class="cls-52" x="741.67" y="365.24" width="20.24" height="62.18"/><rect class="cls-53" x="779.8" y="365.24" width="20.24" height="62.18"/><rect class="cls-54" x="714.72" y="381.22" width="42.21" height="46.21"/><rect class="cls-55" x="761.91" y="365.24" width="29.39" height="62.18"/><rect class="cls-56" x="799.18" y="365.24" width="29.39" height="62.18"/></g></g></svg>