<svg xmlns="http://www.w3.org/2000/svg" xmlns:xlink="http://www.w3.org/1999/xlink" viewBox="0 0 862.63 632.3"><defs><style>.cls-1{fill:url(#linear-gradient);}.cls-2{fill:url(#linear-gradient-2);}.cls-3{fill:url(#linear-gradient-3);}.cls-4{fill:url(#linear-gradient-4);}.cls-5{fill:url(#linear-gradient-5);}.cls-6{fill:url(#linear-gradient-6);}.cls-7{fill:url(#linear-gradient-7);}.cls-8{fill:url(#linear-gradient-8);}.cls-9{fill:url(#linear-gradient-9);}.cls-10{fill:url(#linear-gradient-10);}.cls-11{fill:url(#linear-gradient-11);}.cls-12{fill:url(#linear-gradient-12);}.cls-13{fill:#fdbf0e;}.cls-14{fill:url(#linear-gradient-13);}.cls-15{fill:url(#linear-gradient-14);}.cls-16{fill:url(#linear-gradient-15);}.cls-17{fill:url(#linear-gradient-16);}.cls-18{fill:url(#linear-gradient-17);}.cls-19{fill:url(#linear-gradient-18);}.cls-20{fill:url(#linear-gradient-19);}.cls-21{fill:url(#linear-gradient-20);}.cls-22{fill:url(#linear-gradient-21);}.cls-23{fill:url(#linear-gradient-22);}.cls-24{fill:url(#linear-gradient-23);}.cls-25{fill:url(#linear-gradient-24);}.cls-26{fill:url(#linear-gradient-25);}.cls-27{fill:url(#linear-gradient-26);}.cls-28{fill:url(#linear-gradient-27);}.cls-29{fill:url(#linear-gradient-28);}.cls-30{fill:url(#linear-gradient-29);}.cls-31{fill:url(#linear-gradient-30);}.cls-32{fill:url(#linear-gradient-31);}.cls-33{fill:url(#linear-gradient-32);}.cls-34{fill:#cfdfef;}.cls-35{fill:url(#linear-gradient-33);}.cls-36{fill:url(#linear-gradient-34);}.cls-37{fill:url(#linear-gradient-35);}.cls-38{fill:url(#linear-gradient-36);}.cls-39{fill:url(#linear-gradient-37);}.cls-40{fill:url(#linear-gradient-38);}.cls-41{fill:#1a3e57;}.cls-42{fill:#3e7ba8;}.cls-43{fill:url(#linear-gradient-39);}.cls-44{fill:url(#linear-gradient-40);}.cls-45{fill:url(#linear-gradient-41);}.cls-46{fill:url(#linear-gradient-42);}.cls-47{fill:url(#linear-gradient-43);}.cls-48{fill:url(#linear-gradient-44);}.cls-49{fill:#ff4515;}.cls-50{fill:url(#linear-gradient-45);}.cls-51{fill:url(#linear-gradient-46);}.cls-52{fill:url(#linear-gradient-47);}.cls-53{fill:url(#linear-gradient-48);}.cls-54{fill:url(#linear-gradient-49);}.cls-55{fill:url(#linear-gradient-50);}.cls-56{fill:url(#linear-gradient-51);}.cls-57{fill:url(#linear-gradient-52);}.cls-58{fill:url(#linear-gradient-53);}.cls-59{fill:url(#linear-gradient-54);}.cls-60{fill:url(#linear-gradient-55);}.cls-61{fill:url(#linear-gradient-56);}.cls-62{fill:url(#linear-gradient-57);}.cls-63{fill:url(#linear-gradient-58);}.cls-64{fill:url(#linear-gradient-59);}.cls-65{fill:url(#linear-gradient-60);}.cls-66{fill:url(#linear-gradient-61);}.cls-67{fill:url(#linear-gradient-62);}.cls-68{fill:url(#linear-gradient-63);}.cls-69{fill:url(#linear-gradient-64);}.cls-70{fill:url(#linear-gradient-65);}.cls-71{fill:url(#linear-gradient-66);}.cls-72{fill:url(#linear-gradient-67);}.cls-73{fill:url(#linear-gradient-68);}.cls-74{fill:url(#linear-gradient-69);}.cls-75{fill:url(#linear-gradient-70);}.cls-76{fill:url(#linear-gradient-71);}.cls-77{fill:url(#linear-gradient-72);}.cls-78{fill:url(#linear-gradient-73);}.cls-79{isolation:isolate;}.cls-80{fill:url(#linear-gradient-74);}.cls-81{fill:url(#linear-gradient-75);}.cls-82{fill:url(#linear-gradient-76);}.cls-83{fill:url(#linear-gradient-77);}.cls-84{fill:url(#linear-gradient-78);}.cls-85{fill:url(#linear-gradient-79);}.cls-86{fill:url(#linear-gradient-80);}.cls-87{fill:url(#linear-gradient-81);}.cls-88{fill:url(#linear-gradient-82);}.cls-89{fill:url(#linear-gradient-83);}.cls-90{fill:url(#linear-gradient-84);}.cls-91{fill:url(#linear-gradient-85);}.cls-92{fill:url(#linear-gradient-86);}.cls-93{fill:#fff;}.cls-94{fill:url(#linear-gradient-87);}.cls-95{fill:url(#linear-gradient-88);}.cls-96{fill:url(#linear-gradient-89);}.cls-97{fill:url(#linear-gradient-90);}.cls-98{fill:url(#linear-gradient-91);}.cls-99{fill:url(#linear-gradient-92);}.cls-100{fill:#db9289;}.cls-101{fill:#442b28;}</style><linearGradient id="linear-gradient" x1="-84.95" y1="1741.7" x2="-84.95" y2="1590.11" gradientTransform="translate(-501.71 -1083.49) rotate(-29.04)" gradientUnits="userSpaceOnUse"><stop offset="0" stop-color="#ce6f5f"/><stop offset="0.05" stop-color="#d17665"/><stop offset="0.34" stop-color="#df9e88"/><stop offset="0.6" stop-color="#e9bba1"/><stop offset="0.83" stop-color="#f0cdb1"/><stop offset="1" stop-color="#f2d3b6"/></linearGradient><linearGradient id="linear-gradient-2" x1="-2846.63" y1="1927.26" x2="-2277.21" y2="1927.26" gradientTransform="matrix(-0.72, -0.7, 0.7, -0.72, -2989.27, 135.11)" gradientUnits="userSpaceOnUse"><stop offset="0.42" stop-color="#e98756"/><stop offset="1" stop-color="#f5e478"/></linearGradient><linearGradient id="linear-gradient-3" x1="70.36" y1="431.09" x2="83.51" y2="417.51" gradientUnits="userSpaceOnUse"><stop offset="0" stop-color="#3e7ba8"/><stop offset="0.06" stop-color="#386d9c"/><stop offset="0.22" stop-color="#2c4e82"/><stop offset="0.39" stop-color="#22356e"/><stop offset="0.56" stop-color="#1b245f"/><stop offset="0.75" stop-color="#161957"/><stop offset="0.97" stop-color="#151654"/></linearGradient><linearGradient id="linear-gradient-4" x1="-2590.91" y1="1927.27" x2="-2598" y2="1927.27" gradientTransform="matrix(-0.72, -0.7, 0.7, -0.72, -2989.27, 135.11)" gradientUnits="userSpaceOnUse"><stop offset="0" stop-color="#b9177c"/><stop offset="1" stop-color="#de3b7a"/></linearGradient><linearGradient id="linear-gradient-5" x1="214.15" y1="577.01" x2="261.11" y2="577.01" gradientTransform="matrix(1, 0, 0, 1, 0, 0)" xlink:href="#linear-gradient-4"/><linearGradient id="linear-gradient-6" x1="-2622.49" y1="1871.99" x2="-2622.49" y2="1961.73" xlink:href="#linear-gradient-4"/><linearGradient id="linear-gradient-7" x1="-2392.64" y1="1927.83" x2="-2399.74" y2="1927.83" gradientTransform="matrix(0.72, 0.7, 0.7, -0.72, 426.67, 3443.43)" xlink:href="#linear-gradient-4"/><linearGradient id="linear-gradient-8" x1="0.33" y1="369.94" x2="47.29" y2="369.94" gradientTransform="matrix(1, 0, 0, 1, 0, 0)" xlink:href="#linear-gradient-4"/><linearGradient id="linear-gradient-9" x1="-2424.23" y1="1872.55" x2="-2424.23" y2="1962.29" gradientTransform="matrix(0.72, 0.7, 0.7, -0.72, 426.67, 3443.43)" xlink:href="#linear-gradient-4"/><linearGradient id="linear-gradient-10" x1="-2547.58" y1="1883.13" x2="-2547.58" y2="1964.26" gradientTransform="translate(-2987.53 121.12) rotate(-135.67)" gradientUnits="userSpaceOnUse"><stop offset="0" stop-color="#3e7ba8"/><stop offset="0.03" stop-color="#386c9b"/><stop offset="0.1" stop-color="#2d5185"/><stop offset="0.18" stop-color="#243b73"/><stop offset="0.27" stop-color="#1d2a65"/><stop offset="0.38" stop-color="#191f5b"/><stop offset="0.53" stop-color="#161856"/><stop offset="0.97" stop-color="#151654"/></linearGradient><linearGradient id="linear-gradient-11" x1="-2516.3" y1="1943.41" x2="-2413.61" y2="1943.41" xlink:href="#linear-gradient-4"/><linearGradient id="linear-gradient-12" x1="-6496.24" y1="-2637.56" x2="-6476.96" y2="-2637.56" gradientTransform="translate(6628.03 3101.82)" gradientUnits="userSpaceOnUse"><stop offset="0" stop-color="#cfdfef"/><stop offset="0.14" stop-color="#d6dce1"/><stop offset="0.39" stop-color="#ded9d0"/><stop offset="0.65" stop-color="#e3d7c5"/><stop offset="0.97" stop-color="#e5d6c2"/></linearGradient><linearGradient id="linear-gradient-13" x1="-6487.75" y1="-2636.38" x2="-6483.45" y2="-2636.38" gradientTransform="translate(-6345.2 -2172.73) rotate(-180)" gradientUnits="userSpaceOnUse"><stop offset="0" stop-color="#ff4515"/><stop offset="0.05" stop-color="#ff4c14"/><stop offset="0.34" stop-color="#ff750c"/><stop offset="0.6" stop-color="#ff9207"/><stop offset="0.83" stop-color="#ffa403"/><stop offset="1" stop-color="#ffaa02"/></linearGradient><linearGradient id="linear-gradient-14" x1="-6487.92" y1="-2636.38" x2="-6483.29" y2="-2636.38" gradientTransform="matrix(-0.7, 0.72, -0.72, -0.7, -6265.22, 3289.3)" xlink:href="#linear-gradient-3"/><linearGradient id="linear-gradient-15" x1="-6489.94" y1="-2645.94" x2="-6481.19" y2="-2645.94" gradientTransform="translate(-6460.82 -1852.86) rotate(177.18)" xlink:href="#linear-gradient-3"/><linearGradient id="linear-gradient-16" x1="-6489.94" y1="-2629.18" x2="-6481.19" y2="-2629.18" gradientTransform="matrix(-1, 0.05, -0.05, -1, -6472.11, -1847.56)" xlink:href="#linear-gradient-3"/><linearGradient id="linear-gradient-17" x1="-2557.32" y1="1927.33" x2="-2535.97" y2="1927.33" gradientTransform="matrix(0, -1, 1, 0, -1746.27, -2024.73)" xlink:href="#linear-gradient-12"/><linearGradient id="linear-gradient-18" x1="-2548.83" y1="1927.33" x2="-2544.53" y2="1927.33" gradientTransform="matrix(0, -1, 1, 0, -1746.25, -2024.74)" xlink:href="#linear-gradient-13"/><linearGradient id="linear-gradient-19" x1="-2549" y1="1927.33" x2="-2544.37" y2="1927.33" gradientTransform="matrix(-0.72, -0.7, 0.7, -0.72, -2989.27, 135.11)" xlink:href="#linear-gradient-3"/><linearGradient id="linear-gradient-20" x1="-2551.02" y1="1918.95" x2="-2542.27" y2="1918.95" gradientTransform="translate(-1866.52 -1921.36) rotate(-92.81)" xlink:href="#linear-gradient-3"/><linearGradient id="linear-gradient-21" x1="-2551.02" y1="1935.71" x2="-2542.27" y2="1935.71" gradientTransform="translate(-1871.61 -1932.58) rotate(-92.81)" xlink:href="#linear-gradient-3"/><linearGradient id="linear-gradient-22" x1="166.32" y1="538.36" x2="196.21" y2="507.48" xlink:href="#linear-gradient-3"/><linearGradient id="linear-gradient-23" x1="-828.28" y1="1284.17" x2="-867.57" y2="1278.48" gradientTransform="matrix(1.11, -0.06, 0.06, 1.16, 963.46, -1058.62)" gradientUnits="userSpaceOnUse"><stop offset="0" stop-color="#ce6f5f"/><stop offset="0.56" stop-color="#e3a991"/><stop offset="1" stop-color="#f2d3b6"/></linearGradient><linearGradient id="linear-gradient-24" x1="-662.99" y1="1790.1" x2="-692.94" y2="1786.5" gradientTransform="matrix(1.07, -0.05, 0.05, 1, 756.93, -1330.69)" xlink:href="#linear-gradient-23"/><linearGradient id="linear-gradient-25" x1="-218.77" y1="1651.01" x2="-254.19" y2="1651.01" gradientTransform="matrix(1, 0, 0, 1, 329.41, -1176.25)" xlink:href="#linear-gradient-23"/><linearGradient id="linear-gradient-26" x1="-222.36" y1="1636.13" x2="-250.59" y2="1636.13" gradientTransform="translate(322.18 -1174.38)" xlink:href="#linear-gradient-23"/><linearGradient id="linear-gradient-27" x1="236.76" y1="367.74" x2="236.76" y2="216.16" gradientTransform="matrix(1, 0, 0, 1, 0, 0)" xlink:href="#linear-gradient"/><linearGradient id="linear-gradient-28" x1="19.54" y1="705.14" x2="111.37" y2="705.14" gradientTransform="translate(-213.51 -470.48) rotate(-19.12)" xlink:href="#linear-gradient-2"/><linearGradient id="linear-gradient-29" x1="17.28" y1="705.91" x2="73.23" y2="704.48" gradientTransform="translate(-213.51 -470.48) rotate(-19.12)" gradientUnits="userSpaceOnUse"><stop offset="0" stop-color="#ff4515"/><stop offset="0.18" stop-color="#ff5113"/><stop offset="0.52" stop-color="#ff720d"/><stop offset="0.96" stop-color="#ffa703"/><stop offset="0.99" stop-color="#ffaa02"/></linearGradient><linearGradient id="linear-gradient-30" x1="9.78" y1="711.17" x2="113.5" y2="697.02" gradientTransform="translate(-213.51 -470.48) rotate(-19.12)" gradientUnits="userSpaceOnUse"><stop offset="0" stop-color="#ff4515"/><stop offset="0.09" stop-color="#ff5c11"/><stop offset="0.23" stop-color="#ff780b"/><stop offset="0.38" stop-color="#ff8e07"/><stop offset="0.54" stop-color="#ff9e04"/><stop offset="0.73" stop-color="#ffa703"/><stop offset="0.99" stop-color="#ffaa02"/></linearGradient><linearGradient id="linear-gradient-31" x1="63.39" y1="700.33" x2="63.39" y2="982.04" gradientTransform="translate(-213.51 -470.48) rotate(-19.12)" xlink:href="#linear-gradient-4"/><linearGradient id="linear-gradient-32" x1="63.39" y1="788.92" x2="63.39" y2="711.2" gradientTransform="translate(-213.51 -470.48) rotate(-19.12)" gradientUnits="userSpaceOnUse"><stop offset="0" stop-color="#3e7ba8"/><stop offset="0.12" stop-color="#4681ac"/><stop offset="0.32" stop-color="#5d90b7"/><stop offset="0.56" stop-color="#82aac9"/><stop offset="0.84" stop-color="#b4cde2"/><stop offset="0.97" stop-color="#cfdfef"/></linearGradient><linearGradient id="linear-gradient-33" x1="-345.63" y1="156.01" x2="-391.26" y2="149.41" gradientTransform="matrix(1.11, -0.08, 0.08, 1.16, 496.45, 78.09)" xlink:href="#linear-gradient-23"/><linearGradient id="linear-gradient-34" x1="-215.26" y1="454.11" x2="-250.06" y2="449.92" gradientTransform="matrix(1.07, -0.07, 0.06, 1, 324.37, -169.09)" xlink:href="#linear-gradient-23"/><linearGradient id="linear-gradient-35" x1="113.91" y1="272.05" x2="72.76" y2="272.05" gradientTransform="matrix(1, 0, 0, 1, 0, 0)" xlink:href="#linear-gradient-23"/><linearGradient id="linear-gradient-36" x1="110.92" y1="251.17" x2="78.13" y2="251.17" gradientTransform="matrix(1, 0, 0, 1, 0, 0)" xlink:href="#linear-gradient-23"/><linearGradient id="linear-gradient-37" x1="-514.28" y1="-1490.01" x2="-514.28" y2="-1638.81" gradientTransform="matrix(0.69, 0.73, -0.73, 0.69, -455.72, 1639.47)" xlink:href="#linear-gradient"/><linearGradient id="linear-gradient-38" x1="-81.3" y1="-900.6" x2="-98.78" y2="-650.6" gradientTransform="matrix(0.85, 0.53, -0.53, 0.85, -59.4, 769.1)" gradientUnits="userSpaceOnUse"><stop offset="0" stop-color="#3e7ba8"/><stop offset="0.24" stop-color="#5e91b8"/><stop offset="0.78" stop-color="#b0c9e0"/><stop offset="0.97" stop-color="#cfdfef"/></linearGradient><linearGradient id="linear-gradient-39" x1="-107.69" y1="-858.74" x2="-110.39" y2="-803.29" gradientTransform="matrix(0.85, 0.53, -0.53, 0.85, -59.4, 769.1)" gradientUnits="userSpaceOnUse"><stop offset="0" stop-color="#3e7ba8"/><stop offset="0.97" stop-color="#b3b8d6"/></linearGradient><linearGradient id="linear-gradient-40" x1="-121.83" y1="-826.77" x2="-47.73" y2="-826.77" gradientTransform="matrix(0.85, 0.53, -0.53, 0.85, -59.4, 769.1)" gradientUnits="userSpaceOnUse"><stop offset="0" stop-color="#b3b8d6"/><stop offset="0.47" stop-color="#3e7ba8"/><stop offset="1" stop-color="#b3b8d6"/></linearGradient><linearGradient id="linear-gradient-41" x1="-59.89" y1="-814.94" x2="-59.89" y2="-837.76" gradientTransform="matrix(0.85, 0.53, -0.53, 0.85, -59.4, 769.1)" gradientUnits="userSpaceOnUse"><stop offset="0" stop-color="#3e7ba8"/><stop offset="0.5" stop-color="#b3b8d6"/><stop offset="1" stop-color="#3e7ba8"/></linearGradient><linearGradient id="linear-gradient-42" x1="-80.85" y1="-826.35" x2="-37.88" y2="-826.35" gradientTransform="matrix(0, 1, -1, 0, -494.58, 93.37)" gradientUnits="userSpaceOnUse"><stop offset="0" stop-color="#3e7ba8"/><stop offset="0.34" stop-color="#315b8d"/><stop offset="0.97" stop-color="#151654"/></linearGradient><linearGradient id="linear-gradient-43" x1="-94.36" y1="-530.67" x2="-94.36" y2="-750.21" gradientTransform="matrix(0.85, 0.53, -0.53, 0.85, -59.4, 769.1)" xlink:href="#linear-gradient-4"/><linearGradient id="linear-gradient-44" x1="-93.81" y1="-571.44" x2="-93.81" y2="-719.65" gradientTransform="matrix(0.85, 0.53, -0.53, 0.85, -59.4, 769.1)" xlink:href="#linear-gradient-13"/><linearGradient id="linear-gradient-45" x1="-770.28" y1="-1733.22" x2="-810.79" y2="-1739.08" gradientTransform="matrix(0.13, 0.97, -1.16, 0.12, -1665.87, 1066.37)" xlink:href="#linear-gradient-23"/><linearGradient id="linear-gradient-46" x1="-629.41" y1="-1701.75" x2="-660.4" y2="-1705.48" gradientTransform="matrix(0.13, 0.87, -0.99, 0.1, -1377.4, 833.96)" xlink:href="#linear-gradient-23"/><linearGradient id="linear-gradient-47" x1="-1145.29" y1="-1829.78" x2="-1181.98" y2="-1829.78" gradientTransform="matrix(0.07, 1.17, -1, 0.06, -1494.32, 1545.08)" xlink:href="#linear-gradient-23"/><linearGradient id="linear-gradient-48" x1="-1182.37" y1="-1863.17" x2="-1211.62" y2="-1863.17" gradientTransform="matrix(0.08, 1.22, -1, 0.09, -1505.97, 1698.79)" xlink:href="#linear-gradient-23"/><linearGradient id="linear-gradient-49" x1="-4716.36" y1="-1132.16" x2="-4716.36" y2="-1283.74" gradientTransform="matrix(-0.81, -0.58, -0.58, 0.81, -3942.64, -1326.02)" xlink:href="#linear-gradient"/><linearGradient id="linear-gradient-50" x1="-365.5" y1="-2055.83" x2="-232.79" y2="-2055.83" gradientTransform="matrix(0.62, 0.76, -0.6, 0.49, -270.15, 1663.24)" xlink:href="#linear-gradient-2"/><linearGradient id="linear-gradient-51" x1="-383.37" y1="-2054.42" x2="-280.07" y2="-2057.06" gradientTransform="matrix(0.62, 0.76, -0.6, 0.49, -270.15, 1663.24)" gradientUnits="userSpaceOnUse"><stop offset="0" stop-color="#ff4515"/><stop offset="0.21" stop-color="#ff4914"/><stop offset="0.4" stop-color="#ff5412"/><stop offset="0.59" stop-color="#ff670f"/><stop offset="0.78" stop-color="#ff820a"/><stop offset="0.96" stop-color="#ffa403"/><stop offset="0.99" stop-color="#ffaa02"/></linearGradient><linearGradient id="linear-gradient-52" x1="-369.23" y1="-2048.83" x2="-248.66" y2="-2065.28" gradientTransform="matrix(0.62, 0.76, -0.6, 0.49, -270.15, 1663.24)" gradientUnits="userSpaceOnUse"><stop offset="0" stop-color="#ff4515"/><stop offset="0.15" stop-color="#ff5811"/><stop offset="0.52" stop-color="#ff8409"/><stop offset="0.82" stop-color="#ffa004"/><stop offset="0.99" stop-color="#ffaa02"/></linearGradient><linearGradient id="linear-gradient-53" x1="-303.23" y1="-1958.04" x2="-303.23" y2="-2042.91" gradientTransform="matrix(0.62, 0.76, -0.6, 0.49, -270.15, 1663.24)" gradientUnits="userSpaceOnUse"><stop offset="0" stop-color="#3e7ba8"/><stop offset="0.13" stop-color="#4580ab"/><stop offset="0.31" stop-color="#588db5"/><stop offset="0.52" stop-color="#77a2c4"/><stop offset="0.76" stop-color="#a2c0d9"/><stop offset="0.97" stop-color="#cfdfef"/></linearGradient><linearGradient id="linear-gradient-54" x1="-303.23" y1="-2023.86" x2="-303.23" y2="-1820.62" gradientTransform="matrix(0.62, 0.76, -0.6, 0.49, -270.15, 1663.24)" xlink:href="#linear-gradient-4"/><linearGradient id="linear-gradient-55" x1="-4553.51" y1="-1753.98" x2="-4592.8" y2="-1759.67" gradientTransform="matrix(0.06, -1.11, -1.16, -0.06, -1041.89, -4686)" xlink:href="#linear-gradient-23"/><linearGradient id="linear-gradient-56" x1="-4659.92" y1="-1585.73" x2="-4689.88" y2="-1589.34" gradientTransform="matrix(0.05, -1.07, -1, -0.05, -635.76, -4561.04)" xlink:href="#linear-gradient-23"/><linearGradient id="linear-gradient-57" x1="-4848.12" y1="-1227.84" x2="-4883.54" y2="-1227.84" gradientTransform="matrix(0, -1, -1, 0, -497.05, -4364.06)" xlink:href="#linear-gradient-23"/><linearGradient id="linear-gradient-58" x1="-4850.69" y1="-1248.72" x2="-4878.92" y2="-1248.72" gradientTransform="matrix(0, -1, -1, 0, -506.64, -4380.63)" xlink:href="#linear-gradient-23"/><linearGradient id="linear-gradient-59" x1="-5234.28" y1="173.94" x2="-5234.28" y2="22.34" gradientTransform="matrix(-0.99, -0.16, -0.16, 0.99, -4588.75, -594.84)" xlink:href="#linear-gradient"/><linearGradient id="linear-gradient-60" x1="649.16" y1="-611.3" x2="649.16" y2="-480.87" gradientTransform="translate(-37.85 445.73) rotate(26.39)" xlink:href="#linear-gradient-4"/><linearGradient id="linear-gradient-61" x1="598.38" y1="-575.38" x2="598.38" y2="-644.03" gradientTransform="translate(160.4 -431.37) rotate(90)" xlink:href="#linear-gradient-2"/><linearGradient id="linear-gradient-62" x1="598.38" y1="-326.81" x2="598.38" y2="-532.2" gradientTransform="translate(-37.85 445.73) rotate(26.39)" xlink:href="#linear-gradient-2"/><linearGradient id="linear-gradient-63" x1="598.38" y1="-438.12" x2="598.38" y2="-510.74" gradientTransform="translate(-37.85 445.73) rotate(26.39)" xlink:href="#linear-gradient-2"/><linearGradient id="linear-gradient-64" x1="-5182.99" y1="-713.58" x2="-5223.79" y2="-719.48" gradientTransform="matrix(0.07, -1.11, -1.16, -0.07, 208.51, -5486.67)" xlink:href="#linear-gradient-23"/><linearGradient id="linear-gradient-65" x1="-5277.75" y1="-348.78" x2="-5308.86" y2="-352.52" gradientTransform="matrix(0.06, -1.07, -1, -0.05, 643.8, -5318.76)" xlink:href="#linear-gradient-23"/><linearGradient id="linear-gradient-66" x1="-5359.72" y1="75.29" x2="-5396.5" y2="75.29" gradientTransform="matrix(0, -1, -1, 0, 785.2, -5047.3)" xlink:href="#linear-gradient-23"/><linearGradient id="linear-gradient-67" x1="-5365.29" y1="57.51" x2="-5394.61" y2="57.51" gradientTransform="matrix(0, -1, -1, 0, 772.05, -5066.41)" xlink:href="#linear-gradient-23"/><linearGradient id="linear-gradient-68" x1="-4750.94" y1="1951.98" x2="-4750.94" y2="1803.16" gradientTransform="matrix(-0.81, 0.58, 0.58, 0.81, -4435.45, 1444.61)" xlink:href="#linear-gradient"/><linearGradient id="linear-gradient-69" x1="599.93" y1="345.73" x2="599.93" y2="590.16" gradientTransform="translate(-82.1 -199.63) rotate(-12.98)" gradientUnits="userSpaceOnUse"><stop offset="0" stop-color="#3e7ba8"/><stop offset="0.34" stop-color="#315b8e"/><stop offset="0.5" stop-color="#2a4a80"/><stop offset="0.97" stop-color="#151654"/></linearGradient><linearGradient id="linear-gradient-70" x1="571.11" y1="377.09" x2="592.34" y2="377.09" xlink:href="#linear-gradient-69"/><linearGradient id="linear-gradient-71" x1="580.5" y1="384.57" x2="600.6" y2="384.57" xlink:href="#linear-gradient-69"/><linearGradient id="linear-gradient-72" x1="511.71" y1="409.19" x2="601.6" y2="366.15" gradientTransform="translate(-82.1 -199.63) rotate(-12.98)" gradientUnits="userSpaceOnUse"><stop offset="0" stop-color="#3e7ba8"/><stop offset="0.3" stop-color="#75a1c3"/><stop offset="0.61" stop-color="#a5c2db"/><stop offset="0.84" stop-color="#c4d7e9"/><stop offset="0.97" stop-color="#cfdfef"/></linearGradient><linearGradient id="linear-gradient-73" x1="602.6" y1="394.03" x2="602.6" y2="419.76" xlink:href="#linear-gradient-69"/><linearGradient id="linear-gradient-74" x1="597.6" y1="415.32" x2="597.6" y2="400.81" gradientTransform="translate(-82.1 -199.63) rotate(-12.98)" xlink:href="#linear-gradient-41"/><linearGradient id="linear-gradient-75" x1="596.83" y1="401.6" x2="596.83" y2="415.33" xlink:href="#linear-gradient-69"/><linearGradient id="linear-gradient-76" x1="601.81" y1="413.22" x2="601.81" y2="398.7" gradientTransform="translate(-82.1 -199.63) rotate(-12.98)" xlink:href="#linear-gradient-41"/><linearGradient id="linear-gradient-77" x1="601.05" y1="399.5" x2="601.05" y2="413.23" xlink:href="#linear-gradient-69"/><linearGradient id="linear-gradient-78" x1="606.02" y1="411.11" x2="606.02" y2="396.6" gradientTransform="translate(-82.1 -199.63) rotate(-12.98)" xlink:href="#linear-gradient-41"/><linearGradient id="linear-gradient-79" x1="605.26" y1="397.39" x2="605.26" y2="411.12" xlink:href="#linear-gradient-69"/><linearGradient id="linear-gradient-80" x1="604.65" y1="598.65" x2="604.65" y2="273.48" gradientTransform="translate(-82.1 -199.63) rotate(-12.98)" gradientUnits="userSpaceOnUse"><stop offset="0" stop-color="#3e7ba8"/><stop offset="0.24" stop-color="#719ec1"/><stop offset="0.46" stop-color="#99bad5"/><stop offset="0.67" stop-color="#b7cee3"/><stop offset="0.84" stop-color="#c9dbec"/><stop offset="0.97" stop-color="#cfdfef"/></linearGradient><linearGradient id="linear-gradient-81" x1="607.04" y1="590.08" x2="607.04" y2="359.22" gradientTransform="translate(-82.1 -199.63) rotate(-12.98)" gradientUnits="userSpaceOnUse"><stop offset="0" stop-color="#3e7ba8"/><stop offset="0.07" stop-color="#4e86b0"/><stop offset="0.28" stop-color="#7ca6c6"/><stop offset="0.48" stop-color="#a0bed8"/><stop offset="0.67" stop-color="#bad0e5"/><stop offset="0.84" stop-color="#cadbec"/><stop offset="0.97" stop-color="#cfdfef"/></linearGradient><linearGradient id="linear-gradient-82" x1="-5694.31" y1="826.38" x2="-5732.88" y2="820.8" gradientTransform="matrix(-0.83, -0.06, -0.05, 1.16, -4049.74, -1168.91)" xlink:href="#linear-gradient-23"/><linearGradient id="linear-gradient-83" x1="-5370.73" y1="1641.65" x2="-5400.14" y2="1638.12" gradientTransform="matrix(-0.91, -0.05, -0.04, 0.87, -4209.21, -1518.75)" xlink:href="#linear-gradient-23"/><linearGradient id="linear-gradient-84" x1="-4865.8" y1="1861.99" x2="-4900.56" y2="1861.99" gradientTransform="matrix(-1, 0, 0, 1, -4260.03, -1730.55)" xlink:href="#linear-gradient-23"/><linearGradient id="linear-gradient-85" x1="-4872.07" y1="1850.29" x2="-4899.79" y2="1850.29" gradientTransform="matrix(-1, 0, 0, 1, -4267.32, -1729.97)" xlink:href="#linear-gradient-23"/><linearGradient id="linear-gradient-86" x1="292.25" y1="544.68" x2="528.39" y2="544.68" gradientUnits="userSpaceOnUse"><stop offset="0" stop-color="#3841f8"/><stop offset="0.99" stop-color="#4690fb"/></linearGradient><linearGradient id="linear-gradient-87" x1="409.67" y1="534.97" x2="409.67" y2="315.79" xlink:href="#linear-gradient-86"/><linearGradient id="linear-gradient-88" x1="370.49" y1="329.39" x2="555.13" y2="329.39" gradientUnits="userSpaceOnUse"><stop offset="0" stop-color="#db9289"/><stop offset="0.3" stop-color="#dfa295"/><stop offset="0.89" stop-color="#e8cdb5"/><stop offset="1" stop-color="#ead6bb"/></linearGradient><linearGradient id="linear-gradient-89" x1="280.82" y1="299.72" x2="661.53" y2="299.72" gradientUnits="userSpaceOnUse"><stop offset="0" stop-color="#db9289"/><stop offset="0.83" stop-color="#e7cab2"/><stop offset="1" stop-color="#ead6bb"/></linearGradient><linearGradient id="linear-gradient-90" x1="285.87" y1="332.09" x2="493.04" y2="332.09" gradientUnits="userSpaceOnUse"><stop offset="0" stop-color="#db9289"/><stop offset="0.17" stop-color="#dfa396"/><stop offset="0.5" stop-color="#e5bfaa"/><stop offset="0.78" stop-color="#e9d0b7"/><stop offset="1" stop-color="#ead6bb"/></linearGradient><linearGradient id="linear-gradient-91" x1="380.9" y1="156.4" x2="457.52" y2="156.4" xlink:href="#linear-gradient-88"/><linearGradient id="linear-gradient-92" x1="336.86" y1="97.98" x2="509.7" y2="97.98" gradientUnits="userSpaceOnUse"><stop offset="0" stop-color="#db9289"/><stop offset="0.01" stop-color="#dc958b"/><stop offset="0.12" stop-color="#e1ad9c"/><stop offset="0.25" stop-color="#e5bfaa"/><stop offset="0.41" stop-color="#e8ccb4"/><stop offset="0.6" stop-color="#ead4b9"/><stop offset="1" stop-color="#ead6bb"/></linearGradient></defs><title>handyman</title><g id="Layer_2" data-name="Layer 2"><g id="Layer_7" data-name="Layer 7"><path class="cls-1" d="M365.18,324c-19.09-24.49-85.27-22.07-69.58,32.29C311.17,410.25,281.23,399,281.23,399,240,387.18,177.32,452.43,153.56,431c-13.35-12.07-16.43-17.87-26.63-19-6.32-.72-7.64-8.44-11.13-12.42-3.64-4.18-14.21-6.68-10.09,11.52,2.05,9,10.32,4.26,13,13.5,3.69,12.74-17.13,17.12-34.33,21.17-15.26,3.6-3.43,15.34-5.7,20.4-.94,2.1,16.93,9.72,13,14.85s.79,10.56,5.89,9.84,3.73,9.77,13.28,8.69,37.3-9.71,45-22.46c9.91-16.35,152.17-28.11,154.33-28.12C381,448.53,384.28,348.53,365.18,324Z"/><path class="cls-2" d="M219.82,598l38.27-39.53L43.48,350.72,5.21,390.25ZM83.51,417.51a9.45,9.45,0,1,1-13.37.21A9.46,9.46,0,0,1,83.51,417.51Z"/><path class="cls-3" d="M76.93,416a8.3,8.3,0,1,1-6,2.53,8.22,8.22,0,0,1,6-2.53Zm0-1.16a9.47,9.47,0,1,0,6.58,2.67,9.44,9.44,0,0,0-6.58-2.67Z"/><path class="cls-4" d="M257.47,557.9l3.15,3.06a2.71,2.71,0,0,1,.07,3.82l-34.52,35.64a2.69,2.69,0,0,1-3.81.06l-3.16-3.05Z"/><path class="cls-5" d="M215.77,594.1l6.59,6.39.27.24a.91.91,0,0,0,1.18-1.38l-1.5-1.45a1.71,1.71,0,0,1,0-2.41l.78-.8a1.7,1.7,0,0,1,2.4,0l3.84,3.71a.91.91,0,0,0,1.29,0l1-1.05a.91.91,0,0,0,0-1.29l-3.22-3.12a1.7,1.7,0,0,1,0-2.4l.78-.8a1.7,1.7,0,0,1,2.4,0l3.22,3.12a.91.91,0,0,0,1.29,0l1-1.06a.91.91,0,0,0,0-1.29l-2.6-2.52a1.69,1.69,0,0,1,0-2.4l.78-.8a1.69,1.69,0,0,1,2.4,0l2.6,2.52a.91.91,0,0,0,1.29,0l1-1.06a.9.9,0,0,0,0-1.28l-2-1.93a1.7,1.7,0,0,1,0-2.4l.78-.81a1.7,1.7,0,0,1,2.4,0l2,1.92a.91.91,0,0,0,1.29,0l1-1.06a.9.9,0,0,0,0-1.28l-2.6-2.52a1.71,1.71,0,0,1,0-2.41l.78-.8a1.7,1.7,0,0,1,2.4,0l2.6,2.52a.91.91,0,0,0,1.29,0l1-1.06a.9.9,0,0,0,0-1.28l-3.22-3.12a1.7,1.7,0,0,1,0-2.4l.78-.81a1.7,1.7,0,0,1,2.4,0l3.22,3.12a.91.91,0,0,0,1.29,0l1-1.06a.9.9,0,0,0,0-1.28l-3.84-3.72a1.7,1.7,0,0,1,0-2.4l.78-.81a1.71,1.71,0,0,1,2.41,0l1.5,1.45c.82.79,2.09-.37,1.34-1.22l-.25-.27-6.6-6.38a5.33,5.33,0,0,0-7.52.12l-30.87,31.88A5.33,5.33,0,0,0,215.77,594.1Z"/><path class="cls-6" d="M251.93,555.44l.79.76a2.35,2.35,0,0,1-.3,3.26l-12.74,15.73a36,36,0,0,1-4.51,4.65l-14.78,12.71a2.36,2.36,0,0,1-3.25.4l-.78-.76a2.33,2.33,0,0,1,.3-3.25l32-33.09A2.34,2.34,0,0,1,251.93,555.44Z"/><path class="cls-7" d="M42.24,349.53l-3.15-3.06a2.72,2.72,0,0,0-3.82.06L.76,382.18A2.7,2.7,0,0,0,.82,386L4,389.05Z"/><path class="cls-8" d="M7.41,392.38c-7.22-7-6.68-6.46-6.85-6.65A.91.91,0,0,1,1.9,384.5L3.41,386a1.7,1.7,0,0,0,2.4,0l.78-.81a1.7,1.7,0,0,0,0-2.4L2.71,379a.91.91,0,0,1,0-1.29l1-1.06a.91.91,0,0,1,1.29,0l3.22,3.12a1.69,1.69,0,0,0,2.4,0l.78-.8a1.7,1.7,0,0,0,0-2.4l-3.22-3.12a.91.91,0,0,1,0-1.29l1-1.05a.91.91,0,0,1,1.29,0l2.6,2.52a1.7,1.7,0,0,0,2.4,0l.78-.81a1.7,1.7,0,0,0,0-2.4l-2.61-2.52a.91.91,0,0,1,0-1.29l1-1.05a.91.91,0,0,1,1.29,0l2,1.92a1.71,1.71,0,0,0,2.41,0l.78-.81a1.7,1.7,0,0,0,0-2.4l-2-1.92a.91.91,0,0,1,0-1.29l1-1.05a.91.91,0,0,1,1.29,0l2.6,2.52a1.71,1.71,0,0,0,2.41,0l.77-.81a1.7,1.7,0,0,0,0-2.4l-2.61-2.52a.91.91,0,0,1,0-1.29l1-1a.91.91,0,0,1,1.29,0l3.22,3.12a1.7,1.7,0,0,0,2.4,0l.78-.81a1.69,1.69,0,0,0,0-2.4L29.86,351a.9.9,0,0,1,0-1.28l1-1.06a.91.91,0,0,1,1.29,0L36,352.31a1.7,1.7,0,0,0,2.4,0l.78-.81a1.7,1.7,0,0,0,0-2.4l-1.5-1.46a.91.91,0,0,1,1.18-1.38c.22.18,6.9,6.66,6.87,6.63a5.34,5.34,0,0,1,.12,7.52L14.93,392.26A5.34,5.34,0,0,1,7.41,392.38Z"/><path class="cls-9" d="M44.88,355l-.79-.76a2.33,2.33,0,0,0-3.24.4L25.53,367.86A36.61,36.61,0,0,0,21,372.52L8.81,387.71A2.34,2.34,0,0,0,8.52,391l.78.76a2.33,2.33,0,0,0,3.24-.4l32-33.09A2.34,2.34,0,0,0,44.88,355Z"/><circle class="cls-10" cx="181.27" cy="522.92" r="21.49" transform="translate(-2.31 0.81) rotate(-0.25)"/><path class="cls-11" d="M121.77,458.13l26.43,25.59a6.75,6.75,0,0,0,9.54-.15l11.11-11.47-36.13-35-11.11,11.47A6.76,6.76,0,0,0,121.77,458.13Z"/><path class="cls-12" d="M142.64,445.52h8.68a0,0,0,0,1,0,0v37a0,0,0,0,1,0,0h-8.68A10.59,10.59,0,0,1,132,471.9V456.11A10.59,10.59,0,0,1,142.64,445.52Z" transform="translate(573.6 684.96) rotate(134.07)"/><rect class="cls-13" x="136.48" y="446.24" width="9.03" height="36.96" transform="translate(572.94 686.68) rotate(134.07)"/><ellipse class="cls-14" cx="140.14" cy="463.9" rx="2.15" ry="6.12" transform="translate(-290.63 241.91) rotate(-45.93)"/><path class="cls-15" d="M143.77,468.6a4.11,4.11,0,0,1-1.64-.44,13.78,13.78,0,0,1-3.6-2.59h0c-2.53-2.46-3.81-5.11-2.91-6s3.6.26,6.13,2.71a13.84,13.84,0,0,1,2.71,3.51c.58,1.16.65,2.06.2,2.53A1.21,1.21,0,0,1,143.77,468.6Zm-5-3.27a13.73,13.73,0,0,0,3.5,2.53c1,.47,1.82.54,2.16.19s.25-1.14-.26-2.15a13.36,13.36,0,0,0-2.64-3.42c-2.56-2.48-5-3.41-5.66-2.72s.34,3.09,2.9,5.57Z"/><rect class="cls-16" x="142.61" y="470.41" width="8.75" height="0.33" transform="translate(-281.88 227.43) rotate(-43.1)"/><rect class="cls-17" x="130.57" y="458.75" width="8.75" height="0.33" transform="translate(-277.16 216.04) rotate(-43.1)"/><rect class="cls-18" x="162.41" y="511.29" width="36.96" height="21.35" rx="3.4" transform="translate(-319.93 288.86) rotate(-45.93)"/><rect class="cls-13" x="176.41" y="503.5" width="9.03" height="36.96" transform="translate(-52.18 1022.85) rotate(-135.93)"/><ellipse class="cls-19" cx="180.92" cy="521.99" rx="7.31" ry="2.15" transform="translate(-319.94 288.89) rotate(-45.93)"/><path class="cls-20" d="M176.45,527.61a1,1,0,0,1-.73-.26c-1-1,1-4.34,3.54-7h0c2.55-2.64,5.82-4.77,6.86-3.76s-1,4.34-3.54,7C180.47,525.78,177.87,527.61,176.45,527.61Zm3.05-7c-3,3.06-4.23,5.84-3.55,6.51s3.42-.69,6.4-3.76,4.23-5.84,3.54-6.5-3.42.68-6.39,3.75Z"/><rect class="cls-21" x="174.9" y="523.61" width="0.33" height="8.75" transform="translate(-313.57 262.18) rotate(-43.11)"/><rect class="cls-22" x="186.56" y="511.56" width="0.33" height="8.75" transform="translate(-302.19 266.89) rotate(-43.11)"/><path class="cls-23" d="M181.27,502.92a19.86,19.86,0,1,1-7.68,1.52,19.88,19.88,0,0,1,7.68-1.52Zm0-1.49a21.49,21.49,0,1,0,14.94,6.05,21.42,21.42,0,0,0-14.94-6.05Z"/><ellipse class="cls-24" cx="104.35" cy="484.4" rx="22.17" ry="7.79" transform="translate(-255.79 144.06) rotate(-34.46)"/><ellipse class="cls-25" cx="120.66" cy="491.43" rx="16.18" ry="7.22" transform="matrix(0.84, -0.54, 0.54, 0.84, -245.77, 142.45)"/><ellipse class="cls-26" cx="92.94" cy="474.78" rx="17.71" ry="7.21" transform="translate(-218.77 104.79) rotate(-29.04)"/><ellipse class="cls-27" cx="85.72" cy="461.77" rx="14.12" ry="6.65" transform="translate(-213.36 99.65) rotate(-29.04)"/><path class="cls-28" d="M385.46,277.41c-4.81-30.68-63.84-60.68-76.51-5.54-12.57,54.7-33.26,30.3-33.26,30.3-30.31-30.3-116.8-3.69-127.15-34-5.82-17-5.69-23.6-14-29.57-5.18-3.69-2.59-11.09-3.7-16.26-1.16-5.42-9.19-12.74-14.41,5.17-2.59,8.87,6.94,8.74,4.8,18.11-3,12.94-7-.41-24,4.38-20,5.62-4.79,52.4,14.82,59.43,9,3.25,3.31,7.53,16.24.14,16.61-9.49,146.69,49.28,148.58,50.32C338.89,394,390.26,308.09,385.46,277.41Z"/><path class="cls-29" d="M109.17,189.18,61.23,205.8,47.16,170.33a8.88,8.88,0,0,1,5.07-11.88l34.69-12a8.89,8.89,0,0,1,11.34,6.2Z"/><path class="cls-30" d="M49.45,160l16.4,44.16,6.9-2.39L55.63,157.27C53,158.3,51.31,158.44,49.45,160Z"/><polygon class="cls-31" points="75.66 200.8 77.89 200.03 61.26 155.31 59.19 156.03 75.66 200.8"/><path class="cls-32" d="M116,209.86,68.64,226.29S69,237.23,84.1,238.61l.18-.06a14.67,14.67,0,0,1,1.89.54c11.92,7.1,13.52,28.6,17.74,45.08,5.2,20.3,16.71,43.94,30.19,57.32a1.25,1.25,0,0,0,1.83-.63c2.31-18.85-3.29-44.55-11.77-63.71-6.89-15.55-19-33.43-14-46.38a13.35,13.35,0,0,1,1.14-1.6l.18-.06C122.55,218.65,116,209.86,116,209.86Zm9.87,105a5.57,5.57,0,1,1,3.44-7.08A5.56,5.56,0,0,1,125.89,314.86Z"/><path class="cls-33" d="M116.51,210.19l-48,16.66-7.74-22.33a3.88,3.88,0,0,1,2.39-4.93l40.72-14.12a3.89,3.89,0,0,1,4.93,2.4Z"/><rect class="cls-34" x="66.84" y="213.89" width="50.85" height="2.78" transform="translate(-65.43 42.1) rotate(-19.12)"/><rect class="cls-34" x="65.13" y="208.95" width="50.85" height="2.78" transform="translate(-63.91 41.27) rotate(-19.12)"/><path class="cls-34" d="M105.29,185l-42,14.57c-1.65.58-2.31,3.05-1.46,5.5l.4,1.14,48-16.66-.4-1.14C109,185.93,107,184.4,105.29,185Z"/><ellipse class="cls-35" cx="100.22" cy="284.89" rx="25.73" ry="7.8" transform="translate(-22.09 8.76) rotate(-4.51)"/><ellipse class="cls-36" cx="103.47" cy="297.38" rx="18.79" ry="7.23" transform="translate(-14.83 5.58) rotate(-2.88)"/><ellipse class="cls-37" cx="93.33" cy="272.05" rx="20.57" ry="7.21"/><ellipse class="cls-38" cx="94.53" cy="251.17" rx="16.4" ry="6.65"/><path class="cls-39" d="M441.74,290.87c18.63-24.12.21-86.46-47.66-58.3-47.49,27.94-44.05-3.28-44.05-3.28,1.16-42.06-76.16-85.78-61.53-113.61,8.23-15.64,13-20,11.62-30-.86-6.19,6.16-9.33,9.1-13.61,3.08-4.49,2.89-15.15-13.41-6.79-8.08,4.14-1.55,10.85-9.68,15.64-11.22,6.62-10.54-12.1-25.52-20.83-16.94-9.87-46.84,31.89-43.49,40.71s14.15,24,28.15,28.27c18,5.44,63.81,137.85,64.34,139.91C327.21,336.28,423.1,315,441.74,290.87Z"/><path class="cls-40" d="M283.11,35.07l-52.26,77.6,13.55,8.45L291.07,40Z"/><path class="cls-34" d="M286.92,37.44l-50.26,78.85,3.87,2.42L289.2,38.86Z"/><path class="cls-41" d="M331.18,35.85c-2.69,0-11.13-5-13.4-8.73-2.47-4-2.1-12.07-16.08-19.34-5.34,2.6-10.9,4.85-16.19,7.54,1.51,1.87,1.35,4.28.78,6.27-1.15,4,1.22,14.2,1.22,14.2l5.32,3.32s-.35,1.22.79-.18c6.36-7.84,16.53-7.79,22.2-1.85,2.29,2.39,4.35,4.33,4.22,6.89C320.22,44.76,333.87,35.8,331.18,35.85Z"/><path class="cls-42" d="M330.53,25s-3.62,5.81-18.27-12.73l-8.39,4.85,15.79,14.55,8.37,3Z"/><path class="cls-41" d="M244.7,11.79S246,19.34,257.45,15c15.47-5.83,25.8-4.75,28.23,2.14s8.83,4.16,8.83,4.16L291.59,8.77l-11.85-4.7L253.46,8.52l-8.16,2.3Z"/><path class="cls-43" d="M315.21,16.85c-1.58-3.76-4.67-8.11-13.17-13-15.26-8.75-37-.65-51.91,4.59-10.33,3.64-6.28,6.84,12.26.74,17.18-5.66,26.36-.18,23.29,8a17.66,17.66,0,0,0-1.51,6.65,14.21,14.21,0,0,0,2.43,8c3,3.86,5.63,2.83,5.63,2.83s-.36,1.22.78-.18c3.86-4.75,9.06-6.66,14.06-6C313.82,27.49,316.78,23.15,315.21,16.85Z"/><path class="cls-44" d="M330.57,31.44c-2.69,0-11.16-2.63-13.4-8.74-.64-1.74-1.05-3.7-2-5.85,1.57,6.3-1.39,10.64-8.14,11.69a13.72,13.72,0,0,1,8.14,4.13c2.29,2.39,4.41,6.38,4.28,8.95C319.19,47.48,333.26,31.39,330.57,31.44Z"/><path class="cls-45" d="M337.77,29.53c0-.05.23.13-7.24-4.55-1.34-.83-5.12,2.83-8.45,8.17s-4.95,10.36-3.61,11.19c7.48,4.65,7.24,4.55,7.26,4.5L330.09,40C331.25,37.65,332.17,36.92,337.77,29.53Z"/><ellipse class="cls-46" cx="331.76" cy="39.19" rx="11.4" ry="2.85" transform="translate(123 299.99) rotate(-58.06)"/><path class="cls-47" d="M165.87,229.38h0c7.18,4.48,15.57,3.9,18.56-1.28l68.12-117.94c7.41-12.81-8.07-21.83-15.92-9.92C229.53,111,177.26,185.8,158.92,212,155.46,217,158.61,224.85,165.87,229.38Z"/><path class="cls-48" d="M179.91,207.9h0a7.19,7.19,0,0,0,10-2.45l46.76-79.13c5.08-8.6-2.36-12.81-7.59-4.74-4.74,7.3-39.22,58.3-51.32,76.19A7.2,7.2,0,0,0,179.91,207.9Z"/><path class="cls-49" d="M183.27,217.05l-13.06-8.15a2,2,0,0,1-.64-2.75h0a2,2,0,0,1,2.75-.63l13.06,8.14a2,2,0,0,1,.64,2.75h0A2,2,0,0,1,183.27,217.05Z"/><path class="cls-49" d="M179.8,222.61l-13.06-8.14a2,2,0,0,1-.64-2.75h0a2,2,0,0,1,2.75-.64l13.06,8.14a2,2,0,0,1,.64,2.75h0A2,2,0,0,1,179.8,222.61Z"/><path class="cls-41" d="M280.63,38.22c.24-3.07,1.56-6.4,3.73-7.08,1.91-.59,3.43.92,5.45,2s3.8,2.14,4.23,4c.52,2.24-1.69,4.7-4.71,6.47a22.88,22.88,0,0,0-4.53-3.5A22,22,0,0,0,280.63,38.22Z"/><ellipse class="cls-50" cx="239.27" cy="88.52" rx="8.15" ry="20.05" transform="translate(-4.77 162.9) rotate(-37.25)"/><ellipse class="cls-51" cx="228.28" cy="99.15" rx="7.53" ry="13.71" transform="matrix(0.82, -0.57, 0.57, 0.82, -15.81, 147.78)"/><ellipse class="cls-52" cx="246.72" cy="73.35" rx="7.47" ry="21.47" transform="translate(-1.62 141.03) rotate(-31.8)"/><ellipse class="cls-53" cx="259.32" cy="67.5" rx="6.89" ry="17.88" transform="translate(2.24 143.09) rotate(-30.97)"/><path class="cls-54" d="M472.8,323.92c21.74-22.18,87.22-12.29,65.49,39.94-21.56,51.83,9.46,44,9.46,44C590,400.8,645,472.71,671,454.06c14.63-10.48,18.34-15.9,28.61-15.9,6.36,0,8.55-7.53,12.46-11.09,4.1-3.74,14.88-5,8.73,12.58-3,8.73-10.73,3.08-14.44,12-5.11,12.25,15.09,18.95,31.72,24.92,14.76,5.29,17.1,10.39,15.34,14.13s-21.7-4.59-20,.69c.69,2.2,8.23,9.31,9.93,13.45,2.38,5.8-1.71,8.28-8.38,5.37-11.43-5-11.43-5-8.12.56s-2,10.4-7,9.11-4.81,9.28-14.18,7.13-36-13.86-42.2-27.4c-8-17.37-148-45.12-150.16-45.37C443,445.83,451.07,346.1,472.8,323.92Z"/><path class="cls-55" d="M787.81,471.28,741.16,413.8l25.37-26.94c3.75-4,10.93-2.33,15.92,3.82l36.48,45c5,6.15,5.13,13.52.47,16.37Z"/><path class="cls-56" d="M778.86,387.26l-33.2,32.08,6.71,8.27L786,395.09l-3.58-4.41A19.15,19.15,0,0,0,778.86,387.26Z"/><polygon class="cls-57" points="755.2 431.1 757.38 433.78 791.95 402.39 789.77 399.71 755.2 431.1"/><path class="cls-58" d="M771.82,484.36l-46.75-57.61,14.72-11.94a4.37,4.37,0,0,1,6.13.64l41.25,50.84a4.36,4.36,0,0,1-.64,6.13Z"/><rect class="cls-34" x="749.85" y="417.44" width="2.36" height="74.18" transform="translate(-118.56 574.79) rotate(-39.06)"/><rect class="cls-34" x="753.29" y="414.65" width="2.36" height="74.18" transform="translate(-116.03 576.33) rotate(-39.06)"/><path class="cls-34" d="M787.52,466.71l-40.89-50.39c-1.61-2-4.33-2.48-6-1.09l-.8.64,46.75,57.61.79-.65C789.05,471.45,789.13,468.69,787.52,466.71Z"/><path class="cls-59" d="M772.65,483,751.8,457.35l-2.16-2.66-.1-.12-2.16-2.67-20.85-25.69s-9.9,1.85-1.28,20.9-14,27.24-28.82,37.07-30.07,26.17-36.12,41.66c-.22.56.61,1.58,1.2,1.48,16.41-2.72,35.54-14.27,48.21-26.76s25.35-32.92,42.21-20.57S772.65,483,772.65,483Zm-93.41,28.67c-1.91-2.35-1.81-5.59.21-7.24s5.22-1.06,7.12,1.29,1.82,5.59-.21,7.23S681.15,514.06,679.24,511.71Z"/><ellipse class="cls-60" cx="718.75" cy="508.7" rx="7.79" ry="22.17" transform="matrix(0.66, -0.76, 0.76, 0.66, -136.52, 718.18)"/><ellipse class="cls-61" cx="701.32" cy="517.62" rx="7.22" ry="16.18" transform="translate(-142.63 735.6) rotate(-50.91)"/><ellipse class="cls-62" cx="731.03" cy="501.69" rx="7.21" ry="17.71" transform="translate(-102.04 805.15) rotate(-54.48)"/><ellipse class="cls-63" cx="742.33" cy="484.1" rx="6.65" ry="14.12" transform="translate(-82.99 806.98) rotate(-54.48)"/><path class="cls-64" d="M411.91,291.54c9.6-29.53,72.64-49.81,76.42,6.64,3.75,56,28.05,35.19,28.05,35.19,34.72-25.13,115.91,14.83,130.92-13.46,8.44-15.9,9.35-22.4,18.55-27,5.69-2.83,4.31-10.54,6.22-15.47,2-5.17,11.09-11.13,13.42,7.39,1.15,9.17-8.25,7.52-7.61,17.12a9.26,9.26,0,0,0,1.41,4.54c4,6.24,27.81-4.47,32.68,3.32,20.74,11.78,9,33.21-7.72,54.87-6.47,8.37-43.43-.71-43.43-.71-59.17-15.68-98.37,6.09-154.67,26.18C439.45,414,402.31,321.07,411.91,291.54Z"/><path class="cls-65" d="M715,281.52l-5.91-2,15.41-31.06a5.51,5.51,0,0,1,5.23-3L832.42,251a6.24,6.24,0,0,0,5.92-3.45L853.51,217a4,4,0,0,0-1.83-5.42L830.38,201l2.75-5.54,28,13.86a2.81,2.81,0,0,1,1.26,3.76l-20.07,40.45a6.91,6.91,0,0,1-6.57,3.84l-100-5.44a9,9,0,0,0-8.5,5Z"/><rect class="cls-66" x="743.45" y="85.61" width="49.86" height="162.77" rx="13.52" transform="translate(277.31 781.12) rotate(-63.61)"/><path class="cls-67" d="M727.51,268.39l-15.14-7.51a5,5,0,0,0-6.63,2.24L643.85,387.89a5,5,0,0,0,2.23,6.63L661.21,402a5,5,0,0,0,6.63-2.23L729.74,275A5,5,0,0,0,727.51,268.39ZM656,393.48a6.8,6.8,0,1,1,9.11-3.07A6.8,6.8,0,0,1,656,393.48Z"/><path class="cls-68" d="M728,268.71a5.74,5.74,0,0,0-.53-.32l-15.14-7.51c-.19-.09-.38-.16-.57-.23l-19.39,39.09a9.07,9.07,0,0,0,16.24,8.06Z"/><ellipse class="cls-69" cx="701.55" cy="342.7" rx="7.88" ry="23.02" transform="translate(195.66 937.42) rotate(-75.65)"/><ellipse class="cls-70" cx="698.77" cy="360.05" rx="7.31" ry="16.8" transform="translate(195.66 964.04) rotate(-77.47)"/><ellipse class="cls-71" cx="709.68" cy="330.86" rx="7.29" ry="18.39" transform="translate(270.68 979.23) rotate(-80.89)"/><ellipse class="cls-72" cx="714.32" cy="313.59" rx="6.73" ry="14.66" transform="translate(291.63 969.28) rotate(-80.89)"/><path class="cls-73" d="M398.65,292.89c-13.61-27.28,16.54-84.87,58.05-48,41.18,36.6,43.85,5.31,43.85,5.31,7-41.49,91.33-69.41,82.36-99.54-5-16.94-8.88-22.12-5.59-31.65,2-5.9-4.24-10.34-6.29-15.11-2.16-5,.1-15.42,14.47-4.06,7.12,5.62-.59,10.94,6.46,17.22,9.73,8.66,14.23,10.34,25.1-3.18,9.65-12,22.3,28.05,17.31,36.05s2.91,20.83-11.64,22.27c-18.68,1.86-89.3,122.89-90.22,124.8C502.21,359.61,412.26,320.16,398.65,292.89Z"/><path class="cls-74" d="M583.85,1.77c-.53.17-.87.63-.54,1.07l13.34,18.24c1.62,2.22-.23,4.27-1.12,7.71-.76,2.19-.53,1-30.8,25.08,0,0-5.17,3.79-3.15,5.05,1.51.95,9,7.42,12.3,8.4,5.73,1.72,12.12,8.8,18.74,36.29,10.15,42.17,22.69,104.09,28.65,124.32,5,17,23.19,14.78,26.85,3.42a9.26,9.26,0,0,0-1.18-13.69c-7.34-28.79-34.79-121.14-34.79-121.14s-7.91-19.35-2.95-33.45c3.86-11,7.09-21.31,8.21-29.39,1.35-2.2.45-5.84.41-6.3h0C615.49,15.83,601.21-3.83,583.85,1.77ZM627.8,228.15a9.27,9.27,0,0,1,9.27-11.34h0l.69.05h.12l.66.1.12,0q.33.06.66.15h0a6.45,6.45,0,0,1,.62.21l.1,0c.21.08.41.16.6.25l.12.06a6.54,6.54,0,0,1,.59.3l.06,0,.54.33.08.06a6.41,6.41,0,0,1,.52.39.39.39,0,0,1,.1.08c.17.14.34.28.5.43l.06.07c.16.14.31.3.45.45l0,.06a5.17,5.17,0,0,1,.42.51.76.76,0,0,1,.08.11c.13.17.26.35.38.54a9.28,9.28,0,0,1-3.53,13.22h0a9.38,9.38,0,0,1-2.19.8A9.26,9.26,0,0,1,627.8,228.15ZM591.3,75.4,579.14,61.26a7.35,7.35,0,0,0,.2-2.12c0-1.73,12-9.68,12-9.68s1.34-1.69,2.91-.48l-.35.32,10.34,14.9Z"/><path class="cls-75" d="M565,16.73c-6.22,5.67-8.56,21.77-1.31,38.24,4.31,9.78,10.46-.25,13.6-4.63,3.32-4.64,3.67-12.31,1.94-18C569.21,20.25,567.62,14.71,565,16.73Z"/><path class="cls-76" d="M579.76,36.58s.07,1.73,7.64,1.27c2.55-.16,1.89,2.58,1.89,2.58l-13.45,9.15-5.17-1.83S576.42,35.19,579.76,36.58Z"/><path class="cls-77" d="M568.66,18.4a1.88,1.88,0,0,0-2.15.06c-5,5.13-6,18.08-.54,32.32,3.21,8.33,7.6.22,10.22-3.44,1.27-4.83,6-11.33,2.59-15.94S570.32,20.33,568.66,18.4Z"/><path class="cls-78" d="M608.26,59.52l-7.38-9.06a5.48,5.48,0,0,0-7.68-.79l-7.62,6.21a5.47,5.47,0,0,0-.78,7.68l7.38,9.06a5.47,5.47,0,0,0,7.68.79l7.62-6.21A5.47,5.47,0,0,0,608.26,59.52Zm-12.4-6.58a1.18,1.18,0,0,1,.49-.24c1.19-.28,1.62,1,2.23,1.6l-11.41,9.29-.44-.53C585,61,586.93,60.43,595.86,52.94Zm9,11-7.62,6.2c-2,1.76-2.68,2.36-3.28,1.63L592.43,70,603.8,60.7l1.2,1.48A1.26,1.26,0,0,1,604.82,63.94Z"/><g class="cls-79"><path class="cls-80" d="M587.44,57.38l-1.21,1.1h0c1.07-.29,10.78,11.15,10.1,11.76,1.35-1.32,1.63-.86.66-2.38C594.73,64.35,588.24,57.19,587.44,57.38Z"/><path class="cls-81" d="M592,64.12c6.63,7.76,5.24,8.43-1.55.49S585.29,56.23,592,64.12Z"/></g><g class="cls-79"><path class="cls-82" d="M591.07,54.39l-1.21,1.09c1.1-.27,10.76,11.17,10.1,11.76,1.32-1.29,1.47-.94,1-1.8C599.67,63.07,592.26,54.28,591.07,54.39Z"/><path class="cls-83" d="M595.67,61.12c6.63,7.76,5.24,8.44-1.55.49C587.45,53.82,588.92,53.24,595.67,61.12Z"/></g><g class="cls-79"><path class="cls-84" d="M594.7,51.39l-1.21,1.1c1-.25,10.85,11.08,10.1,11.75,1.35-1.31,1.63-.86.66-2.38C602.57,59.25,595.87,51.4,594.7,51.39Z"/><path class="cls-85" d="M599.3,58.13c6.63,7.75,5.24,8.43-1.55.49S592.55,50.24,599.3,58.13Z"/></g><path class="cls-86" d="M588,.82a.68.68,0,0,0-.54,1.08l13.34,18.24a3.4,3.4,0,0,1,.47,3.1c-1.5,3.85-1.4,5.35-3,6.64l-29.34,23s-5.18,3.79-3.16,5,9.15,7.83,12.31,8.4,12.79,8,19.55,36.11c10.15,42.16,22.69,104.09,28.65,124.32s30.71,13.23,27.14-4.1S617.08,95.38,617.08,95.38s-7.92-19.34-3-33.45c3.35-9.51,8.92-25.75,8.63-35.69h0C621.91,16.11,611.79.44,588,.82ZM650.37,223A9.27,9.27,0,1,1,639.26,216,9.26,9.26,0,0,1,650.37,223ZM596.22,74.27,583.83,59.85A3.18,3.18,0,0,1,585,57.44c10.25-8.22,9.87-8.36,11.13-8.65a3.23,3.23,0,0,1,3.2,1.09l4.83,5.93,5,7.26Z"/><path class="cls-87" d="M622.8,139.62C641,196.21,640.26,205.68,636,206.85s-9.74-6.62-22.68-64.64c-6.15-27.56-7.89-41.5-6.29-41.94S614.14,112.74,622.8,139.62Z"/><rect class="cls-42" x="574.53" y="50.5" width="0.33" height="5.73" transform="translate(95.42 374.96) rotate(-39.17)"/><rect class="cls-42" x="575.24" y="49.61" width="0.33" height="3.58" transform="translate(96.82 374.97) rotate(-39.17)"/><rect class="cls-42" x="576.63" y="48.48" width="0.33" height="3.58" transform="translate(97.85 375.59) rotate(-39.17)"/><rect class="cls-42" x="578.02" y="47.35" width="0.33" height="3.58" transform="translate(98.88 376.22) rotate(-39.17)"/><rect class="cls-42" x="580.09" y="45.98" width="0.33" height="5.73" transform="translate(99.53 377.45) rotate(-39.17)"/><rect class="cls-42" x="580.8" y="45.09" width="0.33" height="3.58" transform="translate(100.93 377.46) rotate(-39.17)"/><rect class="cls-42" x="582.19" y="43.96" width="0.33" height="3.58" transform="translate(101.95 378.08) rotate(-39.17)"/><rect class="cls-42" x="583.57" y="42.82" width="0.33" height="3.58" transform="translate(102.97 378.69) rotate(-39.16)"/><rect class="cls-42" x="585.64" y="41.45" width="0.33" height="5.73" transform="translate(103.64 379.95) rotate(-39.17)"/><rect class="cls-42" x="586.35" y="40.56" width="0.33" height="3.58" transform="translate(105.03 379.95) rotate(-39.17)"/><rect class="cls-42" x="587.74" y="39.43" width="0.33" height="3.58" transform="translate(106.06 380.57) rotate(-39.17)"/><rect class="cls-42" x="589.13" y="38.3" width="0.33" height="3.58" transform="translate(107.09 381.2) rotate(-39.17)"/><rect class="cls-42" x="591.2" y="36.93" width="0.33" height="5.73" transform="translate(107.74 382.43) rotate(-39.17)"/><rect class="cls-42" x="591.91" y="36.04" width="0.33" height="3.58" transform="translate(109.14 382.44) rotate(-39.17)"/><rect class="cls-42" x="593.3" y="34.9" width="0.33" height="3.58" transform="translate(110.17 383.06) rotate(-39.17)"/><rect class="cls-42" x="594.69" y="33.77" width="0.33" height="3.58" transform="translate(111.19 383.69) rotate(-39.17)"/><rect class="cls-42" x="596.75" y="32.4" width="0.33" height="5.73" transform="translate(111.85 384.93) rotate(-39.17)"/><path class="cls-42" d="M601.24,39.23c.56.67.61,1.25.17,1.61s-.95.16-1.49-.49-.55-1.26-.15-1.59S600.73,38.59,601.24,39.23Zm-1,.91c.42.51.82.68,1.06.48s.15-.65-.26-1.16-.79-.71-1.07-.48S599.75,39.6,600.19,40.14Z"/><path class="cls-42" d="M594.47,42.12l-.76.62.34.57.15-.14a1,1,0,0,1,.52-.24.72.72,0,0,1,.7.27.91.91,0,0,1-.19,1.29,1.39,1.39,0,0,1-.59.28l-.1-.26a1.14,1.14,0,0,0,.51-.24.56.56,0,0,0,.12-.81c-.21-.26-.53-.3-.93,0a3.24,3.24,0,0,0-.26.25l-.65-1.06.95-.77Z"/><path class="cls-42" d="M588.28,48.59h0l-.19.47-.22-.17.24-.58.23-.19,1.62,2-.26.21Z"/><path class="cls-42" d="M591,47.56c.55.68.61,1.25.17,1.61s-.95.17-1.49-.48-.56-1.27-.15-1.6S590.5,46.93,591,47.56Zm-1,.91c.42.52.82.68,1.06.48s.15-.65-.26-1.16-.79-.71-1.07-.48S589.52,47.93,590,48.47Z"/><path class="cls-42" d="M581.86,52.43h0l-.2.46-.21-.16.24-.58.23-.19,1.62,2-.26.22Z"/><path class="cls-42" d="M583.86,50.76l-.76.62.34.57.15-.14a1,1,0,0,1,.52-.24.73.73,0,0,1,.7.28.89.89,0,0,1-.19,1.28,1.39,1.39,0,0,1-.59.28l-.1-.26a1.14,1.14,0,0,0,.51-.24.55.55,0,0,0,.12-.81c-.21-.26-.53-.3-.93,0l-.26.25-.64-1.06.95-.77Z"/><path class="cls-42" d="M578.18,59.7l-.13-.16,0-.38c.12-.9.14-1.34-.1-1.64a.46.46,0,0,0-.71-.07A.84.84,0,0,0,577,58l-.24-.12a1.14,1.14,0,0,1,.4-.66.72.72,0,0,1,1.08.09c.3.36.27.88.18,1.62l0,.28h0l.89-.72.18.22Z"/><path class="cls-42" d="M580.09,56.46c.55.67.6,1.25.16,1.61s-.94.17-1.48-.49-.56-1.26-.15-1.59S579.58,55.83,580.09,56.46Zm-1.05.91c.42.51.82.68,1.06.48s.15-.65-.27-1.16-.78-.71-1.06-.48S578.6,56.83,579,57.37Z"/><ellipse class="cls-88" cx="626.82" cy="142.95" rx="16.17" ry="7.65" transform="translate(12.5 332.57) rotate(-30)"/><ellipse class="cls-89" cx="630.5" cy="154.29" rx="13.53" ry="6.17" transform="translate(13.55 356.05) rotate(-31.86)"/><ellipse class="cls-90" cx="623.06" cy="131.65" rx="17.38" ry="7.08" transform="translate(39.03 385.52) rotate(-35.42)"/><ellipse class="cls-91" cx="618.52" cy="120.53" rx="13.86" ry="6.53" transform="translate(44.64 380.83) rotate(-35.42)"/><path class="cls-92" d="M520.57,540.87c-10.38-20.75-12-49.49-12-49.49l-33.53-34.33L317.81,502s-25.56,70.8-25.56,91.55V632.3H405.17l8.43-28.36,5.92,28.36H528.39c-.74-11.24-1.52-22.23-2.23-30.75C523.76,572.81,531,561.63,520.57,540.87Z"/><path class="cls-93" d="M519.77,207.18c-54.29-5.58-57.48-17.56-62.27-13.57s-6.38,23.15-39.91,30.34c0,0-22.63-2.14-37.52-31.93-2.4-4.79-21.56,16.76-56.68,19.16-16.8,1.14-48.17,17.35-47.45,77.91.35,29.06,5.37,24,5.37,24s10.21-64.54,59.4-33.38c-5.7,33.12-18.57,110.71-17.32,129.4,1.59,24,12.77,25.55,7.18,39.92S317,485,318.6,495.37s-11.18,16,2.39,12.77,178.82,4,190.8,5.59c10,1.34,10.05-5.56,10.32-5-.92-3.05-13.46-45.42-11.92-69.27,1.6-24.75-6.39-51.09.8-91.8,4.13-23.41-3.08-49.44-10-67.36,11.41-8.64,30.23-14.4,51.87,12.62C552.9,293,554.15,210.72,519.77,207.18Z"/><path class="cls-94" d="M447.92,485c-34.32,27.15-110.16-8.78-67-1s45.47-26.12,38.28-18.93-26.34,8-5.58-6.39-24-8.78-31.14-3.19-34.33,5.58-43.11,1.59,64.67-21.55,103-28.74c36.51-6.84,61.6-52.28,65.93-57.11,0-.25,0-.5.05-.75l-18.88-26,14.37-35.12s-8.78-23.95-10.37-35.93,46.3-30.33,38.31-32.73-31.93,15.17-31.93,15.17c21.56-35.92,35.93-30.34,27.94-38.32-5.58-5.58-17.78,12.62-23.27,23.28.6-7.35-.65-17.92-2.27-20.08-2.4-3.2-3.2,16.76-8.78,17.56s-8-36.72-10.38-23.95,10.38,34.33,10.38,45.5-10.38-33.53-12.78-27.94,12.78,27.14,8,41.51-18.37-.8-14.37,19.16-28.74,24.75-39.92,17.57-24-49.5-13.39-6.39-14.55,5.59-36.9,4-36.72-30.34-40.72-38.32,5.59-28.74,12-40.71c6.24-11.71,17.82-34.09,15.35-33.59l-.93.54c-2.95,2.21-6,8.49-10.43,10.7-2.6,1.29-5,9.86-6.7,16.81-1.48,5.86-2.51,10.56-2.88,8.73-.8-4-2.39-16.76-4.79-14.37-1.83,1.83-1.79,22.35-1,29.75-4.74-4.39-23.88-8.75-15-2.61,10.38,7.19,13.58,25.55-11.17,12s-39.12,4-26.35,0c9.07-2.83,32.08,11.7,44.67,20.38,1.49.81,3,1.7,4.59,2.69,0,.16-.06.32-.08.47,2.53,1.82,4.05,3,4.05,3l-5.84,7.55c-6.23,36.85-16.58,101.57-15.45,118.42,1.59,24,12.77,25.55,7.18,39.92S317,485,318.6,495.37s-11.18,16,2.39,12.77c8.11-1.9,70.34-.11,121.69,2C455.2,491.54,472.3,465.71,447.92,485Z"/><path class="cls-95" d="M552.9,293c-25.76-32.16-47.81-17.89-58-7.6a18.46,18.46,0,0,0-4.52,18.52c.86,2.72,1.45,11.88,3.05,11.08L370.49,332.52l8,24.74s82.22,47.1,138.9,20C560.1,356.76,557,313.17,552.9,293Z"/><path class="cls-96" d="M281.08,314.16c.73,2.38,4.79,10.37,4.79,10.37s38.5,8.74,52.95,3.68a14.85,14.85,0,0,0,9.89-13.12s45.73,24.61,1.58-26C305.25,237.47,277.88,303.78,281.08,314.16Z"/><path class="cls-97" d="M285.87,323.74s12.77,34.32,35.12,39.91,58.62,23,114.16-26.34a80.63,80.63,0,0,1,53.49-20.76c8.78,0,5.55-5.68-20-20.75-17.56-10.38-29.54,11.17-70.25,8S309,291.8,285.87,323.74Z"/><path class="cls-98" d="M417.59,224c33.53-7.19,35.12-26.35,39.91-30.34h0c-11.64-24.11-8-93.39-8-93.39s-60.67-25.54-53.49,0c6.86,24.39-8.83,75-15.13,93.39C395.79,221.87,417.59,224,417.59,224Z"/><path class="cls-99" d="M465.48,109.37c-1.58-5.09-5-5.11-7.93-3.86-.11-6.55-.44-14.1-.85-22.86-2.39-51.89-46.3-42.31-58.27-39.12s-24.75,23.15-23.95,39.12a155.6,155.6,0,0,0,2.34,29.95c-2.91-.43-6.33.13-6.33,5.17,0,8.79,0,16,4.79,17.57a9.17,9.17,0,0,0,8-1.28c6.78,14.7,18.74,25.29,39.94,19.64,20.73-5.53,29.5-11.06,32.75-24.71.71,1.87,1.51,3.26,2.38,3.74C462.29,134.92,468.68,119.59,465.48,109.37Z"/><path class="cls-100" d="M421.76,106.82a1.72,1.72,0,0,1-.41-2.54c.47-.55,1.34-.82,2.91,0,3.51,1.75,3.51,3.5,1.76,3.5A7.14,7.14,0,0,1,421.76,106.82Z"/><path class="cls-100" d="M416,105.35c.52-1.5-4.76-2.37-6.33.84-1.27,2.58,1,1.47,3.37,1.16A3.18,3.18,0,0,0,416,105.35Z"/><path class="cls-100" d="M404.82,121.88s17.63,7,27.94-.23l-6.43-5.54-14.37.13Z"/><path class="cls-101" d="M459.1,88.24c-4-16.77-6.39-52.69-23.15-59.08s-4.79,3.2-4,5.59-9.58-13.57-23.95-12-6.84,6.16-.8,8.78c4.67,2-34.33-8.78-39.12,8.78-1.41,5.16,12-3.19,10.38,0s-5,2.46-13.57,8c-13.57,8.78-12.77,28.74,5.59,17.56,2.46-1.49-2.4,8-2.4,20,0,6.77,4.9,25.37,9.46,27,1.42,10.57,5,33,10.5,36,7.18,4,23.58,9.34,35.12,8,13.58-1.6,20-5.59,23.95-6.39s8-3.19,9.58-20.75c.87-9.55,1-18.14,1-24C458.64,105.41,462.64,103.11,459.1,88.24Zm-29.54,47.89c-.94-1.4-.95-2.54-3.19-4.78a6.69,6.69,0,0,0-7.65-1.63c-2.81,1-4.28,2.63-4.33,5.62,0,2-8.06,3.4-8.78-1.6-.8-5.59,5.59-15.17,16.77-14.37,5.63.4,12.77,4,14.17,12.07C437.41,136.39,431.16,138.53,429.56,136.13ZM453.51,125c-3.19,2.39-11.18-.8-13.57-4s-7.19-9.58-20.76-10.38S400,125,400,125s-4.79,9.58-11.17,4.79c-4.52-3.39-8.63-13.16-10.66-18.59-.91-6.33-3.55-27.46.28-37.29,5.59-14.37,11.18-24,26.34-24.75s26.35-2.4,33.53,4.79c7,7,16.22,13.21,18.94,48.69C456.87,109.92,455.81,123.23,453.51,125Z"/><path class="cls-101" d="M420.78,75.71c-3.32,2.78.8,7,7.18,5s16-1,18.37,4,3.19-4-3.2-7S423.17,73.7,420.78,75.71Z"/><path class="cls-101" d="M408,79.48c0,3.82-2.4,2.12-9.58,2.12S385.65,88,384.86,89s-1.6-9.54,8-11.66S408,76.3,408,79.48Z"/><ellipse cx="434.55" cy="91.08" rx="3.8" ry="2.85"/><ellipse cx="399.5" cy="91.56" rx="4.27" ry="3.32"/><path class="cls-101" d="M425.57,89.83a17,17,0,0,1,2.05-1,20.53,20.53,0,0,1,2.17-.74,16.38,16.38,0,0,1,4.57-.64,12.85,12.85,0,0,1,2.32.23,10.63,10.63,0,0,1,2.21.74,9.12,9.12,0,0,1,1.95,1.28l.42.4a5.3,5.3,0,0,1,.38.43l.19.21L442,91l.33.47-.4-.4-.2-.2-.22-.19c-.14-.12-.28-.25-.42-.36l-.46-.33-.11-.09-.12-.07-.23-.15-.24-.15-.24-.13-.5-.25-.5-.22a12,12,0,0,0-2.13-.6,12.49,12.49,0,0,0-2.2-.19,15.08,15.08,0,0,0-2.23.12c-.74.08-1.48.21-2.21.36s-1.47.34-2.19.55S426.28,89.57,425.57,89.83Z"/><path class="cls-101" d="M390.05,95a10.11,10.11,0,0,1,1.28-2.35,12,12,0,0,1,1.82-2,11.23,11.23,0,0,1,2.26-1.53,11.34,11.34,0,0,1,2.58-.92,12.48,12.48,0,0,1,2.72-.26l.68,0,.34,0,.34,0c.23,0,.45,0,.67.09l.67.14a17.67,17.67,0,0,1,5,1.94,26.57,26.57,0,0,0-5.1-1.44l-.65-.09-.65-.07-.32,0h-1a12.43,12.43,0,0,0-2.58.28,10.65,10.65,0,0,0-2.44.83,12,12,0,0,0-2.21,1.37,13.46,13.46,0,0,0-1.89,1.81A13.14,13.14,0,0,0,390.05,95Z"/></g></g></svg>