<svg xmlns="http://www.w3.org/2000/svg" xmlns:xlink="http://www.w3.org/1999/xlink" viewBox="0 0 851.54 591.05"><defs><style>.cls-1{fill:#bff6fd;}.cls-2{fill:url(#radial-gradient);}.cls-15,.cls-26,.cls-3{fill:#fff;}.cls-3{opacity:0.5;}.cls-4{fill:url(#radial-gradient-2);}.cls-5{fill:url(#radial-gradient-3);}.cls-6{fill:url(#linear-gradient);}.cls-7{fill:url(#linear-gradient-2);}.cls-8{fill:url(#linear-gradient-3);}.cls-9{fill:url(#linear-gradient-4);}.cls-10{fill:url(#linear-gradient-5);}.cls-11{fill:url(#linear-gradient-6);}.cls-12{fill:url(#linear-gradient-7);}.cls-13{fill:url(#linear-gradient-8);}.cls-14{fill:url(#linear-gradient-9);}.cls-15{opacity:0.25;}.cls-16{fill:#1b5561;}.cls-17{fill:url(#linear-gradient-10);}.cls-18{fill:url(#linear-gradient-11);}.cls-19{fill:url(#linear-gradient-12);}.cls-20{fill:url(#linear-gradient-13);}.cls-21{fill:url(#linear-gradient-14);}.cls-22{fill:url(#linear-gradient-15);}.cls-23{fill:url(#linear-gradient-16);}.cls-24,.cls-33{fill:none;stroke-miterlimit:10;}.cls-24{stroke:#0287d2;}.cls-25{fill:#b3b3b3;}.cls-27{fill:url(#linear-gradient-17);}.cls-28{fill:#00adee;}.cls-28,.cls-29,.cls-30{fill-rule:evenodd;}.cls-29{fill:#21b9ec;}.cls-30{fill:#44c7f4;}.cls-31{fill:#0287d2;}.cls-32{fill:url(#linear-gradient-18);}.cls-33{stroke:#fff;stroke-width:3px;stroke-dasharray:8;}.cls-34{fill:url(#linear-gradient-19);}.cls-35{fill:#def9ff;}.cls-36{fill:#4f3854;}.cls-37{fill:#4f3855;}.cls-38{fill:#b9e8ee;}.cls-39{fill:url(#linear-gradient-20);}.cls-40{fill:#523b58;}.cls-41{fill:url(#linear-gradient-21);}.cls-42{fill:url(#linear-gradient-22);}.cls-43{fill:url(#linear-gradient-23);}.cls-44{fill:url(#linear-gradient-24);}.cls-45{fill:url(#linear-gradient-25);}.cls-46{fill:url(#linear-gradient-26);}.cls-47{fill:url(#linear-gradient-27);}</style><radialGradient id="radial-gradient" cx="234.75" cy="394.2" r="117.18" gradientUnits="userSpaceOnUse"><stop offset="0" stop-color="#e98756"/><stop offset="1" stop-color="#f5e478"/></radialGradient><radialGradient id="radial-gradient-2" cx="272.05" cy="488.96" r="205.26" xlink:href="#radial-gradient"/><radialGradient id="radial-gradient-3" cx="644.14" cy="496.19" r="111.45" xlink:href="#radial-gradient"/><linearGradient id="linear-gradient" x1="191.72" y1="572.98" x2="49.38" y2="468.84" gradientUnits="userSpaceOnUse"><stop offset="0" stop-color="#b9177c"/><stop offset="1" stop-color="#de3b7a"/></linearGradient><linearGradient id="linear-gradient-2" x1="6750.28" y1="569.75" x2="6607.94" y2="465.61" gradientTransform="matrix(-1, 0, 0, 1, 7410.1, 0)" xlink:href="#linear-gradient"/><linearGradient id="linear-gradient-3" x1="262.66" y1="427.47" x2="365.34" y2="427.47" gradientUnits="userSpaceOnUse"><stop offset="0" stop-color="#3841f8"/><stop offset="0.99" stop-color="#4690fb"/></linearGradient><linearGradient id="linear-gradient-4" x1="30.7" y1="574.39" x2="43.12" y2="574.39" gradientUnits="userSpaceOnUse"><stop offset="0" stop-color="#e8c896"/><stop offset="0.99" stop-color="#e46678"/></linearGradient><linearGradient id="linear-gradient-5" x1="59.65" y1="569.49" x2="72.07" y2="569.49" xlink:href="#linear-gradient-4"/><linearGradient id="linear-gradient-6" x1="83.05" y1="569.49" x2="95.47" y2="569.49" xlink:href="#linear-gradient-4"/><linearGradient id="linear-gradient-7" x1="65.23" y1="574.39" x2="21.63" y2="574.39" xlink:href="#linear-gradient-4"/><linearGradient id="linear-gradient-8" x1="89.09" y1="569.49" x2="59.59" y2="569.49" xlink:href="#linear-gradient-4"/><linearGradient id="linear-gradient-9" x1="111.93" y1="569.57" x2="73.98" y2="569.2" xlink:href="#linear-gradient-4"/><linearGradient id="linear-gradient-10" x1="468.02" y1="427.47" x2="570.7" y2="427.47" xlink:href="#radial-gradient"/><linearGradient id="linear-gradient-11" x1="262.66" y1="387.68" x2="365.34" y2="387.68" xlink:href="#linear-gradient"/><linearGradient id="linear-gradient-12" x1="365.34" y1="387.68" x2="468.02" y2="387.68" xlink:href="#radial-gradient"/><linearGradient id="linear-gradient-13" x1="468.02" y1="387.68" x2="570.7" y2="387.68" xlink:href="#linear-gradient-3"/><linearGradient id="linear-gradient-14" x1="262.66" y1="467.27" x2="365.34" y2="467.27" xlink:href="#radial-gradient"/><linearGradient id="linear-gradient-15" x1="365.34" y1="467.27" x2="468.02" y2="467.27" xlink:href="#linear-gradient"/><linearGradient id="linear-gradient-16" x1="468.02" y1="467.27" x2="570.7" y2="467.27" xlink:href="#linear-gradient-3"/><linearGradient id="linear-gradient-17" x1="416.68" y1="485.41" x2="416.68" y2="461.59" gradientUnits="userSpaceOnUse"><stop offset="0" stop-color="#5382ec"/><stop offset="1" stop-color="#78bfff"/></linearGradient><linearGradient id="linear-gradient-18" x1="259.61" y1="179.01" x2="307.36" y2="179.01" gradientUnits="userSpaceOnUse"><stop offset="0" stop-color="#00bff3"/><stop offset="0.99" stop-color="#76cfef"/></linearGradient><linearGradient id="linear-gradient-19" x1="360.03" y1="104.68" x2="445.97" y2="104.68" xlink:href="#linear-gradient"/><linearGradient id="linear-gradient-20" x1="596.22" y1="181.92" x2="653.8" y2="181.92" xlink:href="#linear-gradient"/><linearGradient id="linear-gradient-21" x1="394.23" y1="152.2" x2="428.99" y2="152.2" xlink:href="#linear-gradient"/><linearGradient id="linear-gradient-22" x1="591.37" y1="-203.44" x2="652.37" y2="-203.44" gradientTransform="translate(-184.97 528.09) rotate(-5.51)" xlink:href="#linear-gradient-18"/><linearGradient id="linear-gradient-23" x1="402.91" y1="325.04" x2="416.02" y2="325.04" gradientTransform="translate(33.12 -37.84) rotate(5.51)" xlink:href="#linear-gradient-4"/><linearGradient id="linear-gradient-24" x1="414.11" y1="324.32" x2="472.57" y2="319.99" gradientTransform="translate(33.05 -39.44) rotate(5.51)" xlink:href="#linear-gradient-4"/><linearGradient id="linear-gradient-25" x1="798.27" y1="1015.05" x2="846.01" y2="1015.05" gradientTransform="translate(-22.99 -914.47) rotate(13.74)" xlink:href="#linear-gradient-18"/><linearGradient id="linear-gradient-26" x1="509.13" y1="309.25" x2="521.92" y2="309.25" gradientTransform="translate(-58.71 131.31) rotate(-13.74)" xlink:href="#linear-gradient-4"/><linearGradient id="linear-gradient-27" x1="518.68" y1="310.87" x2="551.96" y2="316.06" gradientTransform="translate(-59.08 134.41) rotate(-13.74)" xlink:href="#linear-gradient-4"/></defs><title>Asset 11</title><g id="Layer_2" data-name="Layer 2"><g id="Layer_7" data-name="Layer 7"><path class="cls-1" d="M66.86,544.56S24.69,472.17,107.8,405.77c36.47-33.46,25.72-58,8.35-72.65S77.31,222.3,150.33,188.8c54.12-27.05,40.35-59.18,44.65-107.28s64.35-93.2,175.75-78.79c90.62,13.55,76,46.91,140.39,69.24s114.26,49,103.09,136.59c-5.16,44.67,49.82,87.62,77.31,107.38,93.64,48.76,0,231,0,231Z"/><path class="cls-2" d="M247,387.51s-3.49-24.36,16.15-49.81,37.4-31.79,37.4-31.79,7,39-11.49,59.58S247,387.51,247,387.51Z"/><polygon class="cls-3" points="253.94 379.8 266.04 360.7 267.7 339.53 268.05 359.05 283.7 333.54 284.18 322.29 284.98 330.74 292.88 319.68 277.28 347.12 290.17 339.17 275.2 349.95 255.06 380.48 253.94 379.8"/><path class="cls-4" d="M125.81,273.42s.44,90.46,29.28,141.15,54,83.91,114.38,109.26c0,0,21.74-53.51,0-122.9S162.08,287.4,125.81,273.42Z"/><polygon class="cls-3" points="258.66 523.83 219.01 450.85 169.34 410.64 217.34 442.66 169.76 354.77 146.79 339.06 166.89 349.02 150.72 314.5 197.48 394.91 197.04 349.02 201.22 403.22 271.77 523.83 258.66 523.83"/><path class="cls-5" d="M648.45,495.06s-23-28.16-17.63-75.36,23-68.81,23-68.81,38.67,44.07,31,84.17S648.45,495.06,648.45,495.06Z"/><polygon class="cls-3" points="651.3 480.03 652.01 446.61 637.93 418.56 653.29 443 653.6 398.76 645.61 384.16 653.08 394.24 654.63 374.21 655.85 420.84 666.08 400.94 655.38 426.02 653.24 480.03 651.3 480.03"/><path class="cls-6" d="M115.08,579.47s-43.54,19.47-68.71-34.62A110.93,110.93,0,0,1,38,518C25.78,451.2,0,467.27,0,467.27s10.77-37.35,105.16-30.46,116.37,141.8,116.37,141.8S198.26,554.91,115.08,579.47Z"/><path class="cls-3" d="M162.83,559.68,122,519l-56.89-2.66,50.84-2.56S72.08,477.93,32.36,461c0,0,37.67,8.45,61.76,29.21L85.19,461l15.44,33.72S145.7,528.31,162.83,559.68Z"/><path class="cls-7" d="M736.46,576.25s53,23.71,75.85-53.87c11.54-75.6,39.23-58.33,39.23-58.33s-10.78-37.36-105.17-30.46S630,575.39,630,575.39,653.28,551.68,736.46,576.25Z"/><path class="cls-3" d="M666,554.77l50.23-42.55,57-.31-50.7-4.66s45.27-34,85.65-49.31c0,0-38,6.9-62.91,26.65l10.12-28.82-16.81,33.06S684.37,524.14,666,554.77Z"/><rect class="cls-8" x="262.66" y="407.57" width="102.68" height="39.8"/><rect class="cls-9" x="30.7" y="560.22" width="12.42" height="28.35"/><rect class="cls-10" x="59.65" y="550.42" width="12.42" height="38.15"/><rect class="cls-11" x="83.05" y="550.42" width="12.42" height="38.15"/><rect class="cls-12" x="43.12" y="560.22" width="25.9" height="28.35"/><rect class="cls-13" x="72.07" y="550.42" width="18.03" height="38.15"/><rect class="cls-14" x="94.95" y="550.42" width="18.03" height="38.15"/><rect class="cls-15" x="268.91" y="411.95" width="90.2" height="31.05"/><rect class="cls-16" x="365.34" y="407.57" width="102.68" height="39.8"/><rect class="cls-15" x="371.59" y="411.95" width="90.2" height="31.05"/><rect class="cls-17" x="468.02" y="407.57" width="102.68" height="39.8"/><rect class="cls-15" x="474.27" y="411.95" width="90.2" height="31.05"/><rect class="cls-18" x="262.66" y="367.78" width="102.68" height="39.8"/><rect class="cls-15" x="268.91" y="372.15" width="90.2" height="31.05"/><rect class="cls-19" x="365.34" y="367.78" width="102.68" height="39.8"/><rect class="cls-15" x="371.59" y="372.15" width="90.2" height="31.05"/><rect class="cls-20" x="468.02" y="367.78" width="102.68" height="39.8"/><rect class="cls-15" x="474.27" y="372.15" width="90.2" height="31.05"/><rect class="cls-21" x="262.66" y="447.37" width="102.68" height="39.8"/><rect class="cls-15" x="268.91" y="451.75" width="90.2" height="31.05"/><rect class="cls-22" x="365.34" y="447.37" width="102.68" height="39.8"/><rect class="cls-15" x="371.59" y="451.75" width="90.2" height="31.05"/><rect class="cls-23" x="468.02" y="447.37" width="102.68" height="39.8"/><rect class="cls-15" x="474.27" y="451.75" width="90.2" height="31.05"/><polygon class="cls-24" points="183.8 529.97 668.74 529.97 640.87 563.09 221.69 563.09 183.8 529.97"/><polygon class="cls-25" points="668.74 529.97 640.87 563.09 221.69 563.09 183.8 529.97 668.74 529.97"/><polygon class="cls-26" points="705.52 486.24 698.97 494.03 668.74 529.97 183.8 529.97 157.93 507.35 133.78 486.24 705.52 486.24"/><polygon class="cls-27" points="721.99 466.65 705.52 486.24 133.78 486.24 111.38 466.65 141.68 466.65 154.15 477.18 645.62 477.18 658.09 466.65 721.99 466.65"/><path class="cls-28" d="M113,587.85v-36c9.9-3,16.07-5,26.25-3.5,33,5,67,4.25,99.65-3.43,37.95-8.94,59.63,3.95,90.43,5.84,21.26,1.3,46.44-11.17,74.85-9,33.1,2.46,46,14.9,98.71.77,16.45-4.41,56,8.51,82.86,8.51,50.51,0,38.12-16.81,106-2.83,49.68,10.24,91.14-20.09,115.38-9.91v49.57Z"/><path class="cls-29" d="M113,591.05v-27.4c48.35-3.44,56.06-27.66,108.9-12.84,49,13.76,75.86-8.58,148.93,3.91,32.51,5.56,55.58-21.15,107.81-6.27,69.27,19.73,81.37-22.64,128.54-1.19,24.46,11.12,41.28,10.07,68.28.36,14.66-5.28,35.07-3.58,51.06.43,28,7,36.47-13.17,79.5,5,.25.1.62.24,1.08.4v37.61Z"/><path class="cls-30" d="M113,591.05V567.58c8.87-2.36,25.15-9,75.6-1.13,27.18,4.23,51.17-10.09,78.67-4.63,9,1.78,42.94,6.11,57.35,3.72,72-11.94,75.41,5.8,115.92-3.66C495.84,549,501,575.57,574.26,560c29.22-6.21,59.67,4,89,4.41,43.59.65,53.23-13.9,84-6,11.3,2.91,36.85,4.88,50.47.79a63.67,63.67,0,0,1,9.36-2v33.79Z"/><polyline class="cls-31" points="16.56 591.05 16.56 586.09 807.08 586.09 807.08 591.05"/><polygon class="cls-26" points="268.79 184.54 272.49 189.57 306.29 179.88 268.79 184.54"/><polygon class="cls-32" points="272.04 169.75 268.29 174.19 269.89 179.14 264.97 179.4 259.61 188.27 307.36 179.69 272.04 169.75"/><polygon class="cls-26" points="269.89 179.14 268.29 174.19 293.14 178.26 269.89 179.14"/><path class="cls-33" d="M160.29,289.37s-15.42-109.49,101.6-109.49"/><polygon class="cls-34" points="379.71 132.31 360.03 77.05 388.97 77.05 445.96 131.74 379.71 132.31"/><path class="cls-35" d="M749.39,158c.38,16.53-35,13.83-68.81,15-.64,0-1.36.05-2.14.06l-1.58.05h0l-.84,0-.84,0c-43,1-202.81,1.7-242,1.42l-4.33,0c-.85,0-1.69,0-2.53-.08-15-.53-28.2-4.21-37.87-10a43.61,43.61,0,0,1-7.66-5.77,34.33,34.33,0,0,1-2.81-3,25.44,25.44,0,0,1-6-14.15c0-15,26.14-11.92,82.65-13.84,0,0,142.5-2.88,169.67-2.57,28.45-5.77,65.6-12,79.83,11,0,0,43.89,5.26,45.31,21.32C749.37,157.61,749.38,157.81,749.39,158Z"/><rect class="cls-36" x="453.09" y="138.89" width="75.45" height="8.93"/><rect class="cls-36" x="540.02" y="138.89" width="75.45" height="8.93"/><path class="cls-37" d="M693.89,135.94h-32v-7.13h23.75c4.55,0,9.83,3.19,9.83,7.13Z"/><rect class="cls-36" x="463.99" y="172.53" width="104.72" height="5.76" rx="2.36"/><path class="cls-38" d="M749.39,158c.38,16.53-35,13.83-68.81,15-.64,0-1.36.05-2.14.06l-1.58.05h0l-.84,0-.84,0c-36.41.78-171.48,1.27-248.9,1.31-15-.53-28.2-4.21-37.87-10,60.11-.65,246.6-.89,280.92-.89a526,526,0,0,0,80.05-6.12C749.37,157.61,749.38,157.81,749.39,158Z"/><rect class="cls-35" x="631.92" y="169.31" width="25.19" height="25.37"/><polygon class="cls-39" points="629.49 203.25 610.08 203.25 596.22 160.59 653.8 160.59 629.49 203.25"/><ellipse class="cls-40" cx="657.11" cy="182.17" rx="3.62" ry="12.87"/><path class="cls-41" d="M412.45,167.68h-6.18a5.11,5.11,0,0,1-4.7-4.08l-7.34-26.88H429l-12.17,27.79A4.91,4.91,0,0,1,412.45,167.68Z"/><path class="cls-26" d="M414.05,311.33l.56.59c-.87.08-1.62.18-2.37.21-.17,0-.38-.2-.52-.34q-7.16-7.38-14.29-14.77-5.64-5.82-11.29-11.65a1.73,1.73,0,0,1-.5-.95c.54-.36,1.09-.71,1.66-1.05a.77.77,0,0,0,.26.59Q400.82,297.64,414.05,311.33Z"/><path class="cls-26" d="M417.23,311.09l.25.56c-.66.06-1.27.16-1.88.16-.15,0-.35-.27-.44-.45-1.53-3.11-3-6.24-4.54-9.36-.13-.28-.27-.55-.4-.83q-4.68-9.66-9.34-19.31c-.09-.18-.17-.34-.27-.5.66-.51,1.34-1,2-1.43a1,1,0,0,0,0,1l9.59,19.83Q414.75,305.93,417.23,311.09Z"/><path class="cls-42" d="M438.21,260.06a29.84,29.84,0,0,0-20.31-9.91c-1-.08-2-.09-3-.13l-3.71.36a3.24,3.24,0,0,1-.41.13,28.64,28.64,0,0,0-14.35,6.84c-8,7.14-11.51,16.14-10.77,26.82a1,1,0,0,0,0,.25c.54-.36,1.09-.71,1.66-1.05a1.41,1.41,0,0,1,.05-.27,7.3,7.3,0,0,1,10.29-4.53,7.18,7.18,0,0,1,3,2.79c.66-.51,1.34-1,2-1.43h0a.41.41,0,0,1,.05-.09,7.25,7.25,0,0,1,7.66-3.3,7.15,7.15,0,0,1,4.05,2.41,1.71,1.71,0,0,1,.28.45l2.22-.22a1.42,1.42,0,0,1,.14-.38,7.09,7.09,0,0,1,3.66-3.28,7.25,7.25,0,0,1,8,1.68c.86.31,1.7.65,2.52,1a7.3,7.3,0,0,1,3.34-3.79,7.06,7.06,0,0,1,2.55-.81,7.3,7.3,0,0,1,6.37,2.43c.94.24,1.86.5,2.75.78A31.17,31.17,0,0,0,438.21,260.06Z"/><path class="cls-26" d="M416.91,279.18a1.77,1.77,0,0,0-.05.6q1,10,1.93,20.05l1.11,11.56-2,.19-1.12-11.52q-1-10-1.95-20a2,2,0,0,0-.17-.62Z"/><path class="cls-26" d="M431.18,278.24a5.88,5.88,0,0,0-.23.71q-2.7,10.2-5.38,20.4-1.49,5.63-3,11.24c-.11.44-.28.65-.75.65a15.14,15.14,0,0,0-1.51.14c.07-.3.12-.54.18-.77q1.47-5.58,3-11.16,2.77-10.59,5.58-21.17a.79.79,0,0,0-.18-.84l-.22-.24C429.52,277.51,430.36,277.85,431.18,278.24Z"/><path class="cls-26" d="M446.39,278.39a1.75,1.75,0,0,1-.26,1.07q-10,15.53-20.14,31a.82.82,0,0,1-.7.42c-.65,0-1.3.12-2.06.19l.37-.61q10.36-15.94,20.74-31.88a1,1,0,0,0,.05-1.18,7.69,7.69,0,0,0-.95-1.36c.94.24,1.86.5,2.75.78C446.27,277.36,446.33,277.87,446.39,278.39Z"/><rect class="cls-43" x="404.07" y="312.72" width="10.8" height="24.65" transform="translate(-29.33 40.84) rotate(-5.51)"/><rect class="cls-44" x="414.79" y="311.12" width="22.51" height="24.65" transform="translate(-29.1 42.43) rotate(-5.51)"/><path class="cls-26" d="M522.45,300.31l.26.58c-.66-.16-1.24-.29-1.81-.46-.12,0-.22-.24-.29-.38l-6.75-14.6q-2.65-5.76-5.33-11.52a1.35,1.35,0,0,1-.12-.83c.48-.13,1-.24,1.49-.35a.62.62,0,0,0,0,.51Q516.21,286.77,522.45,300.31Z"/><path class="cls-26" d="M524.86,301c0,.13,0,.27,0,.47a13.53,13.53,0,0,1-1.43-.37c-.11,0-.19-.29-.21-.44-.32-2.7-.63-5.39-.94-8.09,0-.24-.05-.48-.08-.72l-1.92-16.68c0-.14,0-.29-.07-.43.62-.21,1.25-.38,1.87-.53a.79.79,0,0,0-.26.75q1,8.56,2,17.12Z"/><path class="cls-45" d="M553.53,268.67a23.36,23.36,0,0,0-12.45-12.57c-.73-.32-1.48-.58-2.22-.88l-2.84-.69a1.82,1.82,0,0,1-.33,0,22.43,22.43,0,0,0-12.37,1.35c-7.76,3.2-12.66,9-14.88,17a.69.69,0,0,0,0,.2c.48-.13,1-.24,1.49-.35a1.3,1.3,0,0,1,.11-.19,5.69,5.69,0,0,1,6-2.25,5.64,5.64,0,0,1,4.2,4.39c.62-.21,1.25-.38,1.87-.53h0a.15.15,0,0,1,.06-.05,5.69,5.69,0,0,1,6.51-.47,5.6,5.6,0,0,1,2.37,2.83,1.3,1.3,0,0,1,.09.4l1.7.42a1.29,1.29,0,0,1,.2-.25,5.53,5.53,0,0,1,3.55-1.48,5.68,5.68,0,0,1,5.44,3.3,21.09,21.09,0,0,1,1.59,1.41,5.79,5.79,0,0,1,3.45-1.94,5.45,5.45,0,0,1,2.09.07,5.71,5.71,0,0,1,4.08,3.43q.94.63,1.83,1.29A24.37,24.37,0,0,0,553.53,268.67Z"/><path class="cls-26" d="M532.86,277.3a1.18,1.18,0,0,0-.19.43q-1.89,7.65-3.75,15.3l-2.16,8.83-1.51-.37,2.15-8.8q1.88-7.65,3.73-15.3a1.45,1.45,0,0,0,0-.51Z"/><path class="cls-26" d="M543.64,280.28c-.12.15-.24.31-.35.47l-9.24,13.68L529,302c-.2.29-.37.4-.72.27s-.72-.18-1.15-.28l.34-.52,5.05-7.49,9.58-14.2a.59.59,0,0,0,.09-.66,1.6,1.6,0,0,0-.1-.23A21.09,21.09,0,0,1,543.64,280.28Z"/><path class="cls-26" d="M554.84,284.32a1.37,1.37,0,0,1-.47.73l-22.88,17.72a.63.63,0,0,1-.63.13c-.49-.14-1-.25-1.57-.39l.43-.36q11.78-9.09,23.55-18.2a.78.78,0,0,0,.34-.85,5.87,5.87,0,0,0-.35-1.26q.94.63,1.83,1.29C555,283.53,554.93,283.92,554.84,284.32Z"/><rect class="cls-46" x="511.3" y="299.61" width="8.45" height="19.29" transform="translate(88.22 -113.61) rotate(13.74)"/><rect class="cls-47" x="519.38" y="302.71" width="17.62" height="19.29" transform="translate(89.32 -116.53) rotate(13.74)"/></g></g></svg>