<svg xmlns="http://www.w3.org/2000/svg" viewBox="0 0 366.2 77.53"><defs><style>.cls-1{fill:#f69c4e;}.cls-2{fill:#2c348c;}.cls-3{fill:#000000;}</style></defs><title>logo_1</title><g id="Layer_2" data-name="Layer 2"><g id="Layer_4" data-name="Layer 4"><path class="cls-1" d="M96.2,0A25.85,25.85,0,0,0,73.46,38.12L94.79,76.7a1.62,1.62,0,0,0,2.83,0L119,38.11A25.84,25.84,0,0,0,96.2,0Zm0,38.76a12.92,12.92,0,1,1,12.93-12.92A12.93,12.93,0,0,1,96.2,38.76Z"/><path class="cls-2" d="M65.24,36.25V58.36H54V38c0-6.25-2.79-9.12-7.32-9.12-5,0-8.54,3.23-8.54,10.12V58.36H27V38c0-6.25-2.66-9.12-7.32-9.12-5,0-8.47,3.23-8.47,10.12V58.36H0V19.75H10.69V24.2c2.87-3.31,7.18-5,12.13-5,5.39,0,10,2.08,12.71,6.32a17.35,17.35,0,0,1,13.92-6.32C58.64,19.17,65.24,24.48,65.24,36.25Z"/><path class="cls-2" d="M170.05,19.75,153.76,58.36H142.2L126,19.75h11.56L148.23,46l11.05-26.26Z"/><path class="cls-2" d="M170.69,39.05c0-11.63,9-19.88,21.24-19.88s21.18,8.25,21.18,19.88-8.9,19.88-21.18,19.88S170.69,50.68,170.69,39.05Zm31.08,0c0-6.67-4.24-10.69-9.84-10.69s-9.9,4-9.9,10.69,4.31,10.7,9.9,10.7S201.77,45.73,201.77,39.05Z"/><path class="cls-2" d="M260,36.25V58.36H248.85V38c0-6.25-2.87-9.12-7.83-9.12-5.38,0-9.26,3.3-9.26,10.41V58.36H220.57V19.75h10.69v4.52c3-3.3,7.54-5.1,12.78-5.1C253.15,19.17,260,24.48,260,36.25Z"/><path class="cls-2" d="M268.79,8.12c0-3.52,2.8-6.25,7-6.25s7,2.59,7,6c0,3.74-2.8,6.46-7,6.46S268.79,11.64,268.79,8.12Zm1.37,11.63h11.19V58.36H270.16Z"/><path class="cls-2" d="M288.89,39.05c0-11.63,9-19.88,21.53-19.88,8.11,0,14.5,3.52,17.3,9.83L319,33.67a9.62,9.62,0,0,0-8.68-5.31c-5.67,0-10.12,4-10.12,10.69s4.45,10.7,10.12,10.7A9.48,9.48,0,0,0,319,44.43l8.69,4.74c-2.8,6.17-9.19,9.76-17.3,9.76C297.86,58.93,288.89,50.68,288.89,39.05Z"/><path class="cls-2" d="M330.44,54.77l3.73-8a26.4,26.4,0,0,0,13.42,3.73c5.17,0,7.11-1.36,7.11-3.51,0-6.32-23.33.14-23.33-15.29,0-7.32,6.61-12.49,17.87-12.49,5.32,0,11.2,1.22,14.86,3.37l-3.73,8a22.21,22.21,0,0,0-11.13-2.87c-5,0-7.17,1.58-7.17,3.59,0,6.6,23.32.21,23.32,15.43,0,7.18-6.67,12.27-18.23,12.27C340.63,58.93,334,57.14,330.44,54.77Z"/><path class="cls-3" d="M119.38,65.81h1.28v7.84h4.85v1.12h-6.13Z"/><path class="cls-3" d="M126.09,71.37a3.53,3.53,0,1,1,3.53,3.47A3.37,3.37,0,0,1,126.09,71.37Zm5.81,0a2.29,2.29,0,1,0-4.57,0,2.29,2.29,0,1,0,4.57,0Z"/><path class="cls-3" d="M134.22,71.37a3.39,3.39,0,0,1,3.59-3.45,3,3,0,0,1,2.76,1.45l-.93.6a2.11,2.11,0,0,0-1.84-1,2.39,2.39,0,0,0,0,4.78,2.13,2.13,0,0,0,1.84-1l.93.58a3,3,0,0,1-2.76,1.46A3.4,3.4,0,0,1,134.22,71.37Z"/><path class="cls-3" d="M147.54,70.67v4.1h-1.16v-.9a2.51,2.51,0,0,1-2.23,1c-1.54,0-2.51-.82-2.51-2s.7-2,2.73-2h1.94v-.24c0-1-.6-1.64-1.82-1.64a3.44,3.44,0,0,0-2.15.73l-.51-.92a4.57,4.57,0,0,1,2.81-.87C146.49,67.92,147.54,68.81,147.54,70.67Zm-1.23,2v-.94h-1.89c-1.22,0-1.56.47-1.56,1s.56,1.1,1.49,1.1A2,2,0,0,0,146.31,72.69Z"/><path class="cls-3" d="M149.82,65.27h1.23v9.5h-1.23Z"/><path class="cls-3" d="M165.33,74.77V68.24l-3.24,5.44h-.59l-3.24-5.4v6.49H157v-9h1l3.74,6.29,3.69-6.29h1.05v9Z"/><path class="cls-3" d="M168.45,71.37A3.53,3.53,0,1,1,172,74.84,3.37,3.37,0,0,1,168.45,71.37Zm5.81,0a2.29,2.29,0,1,0-4.57,0,2.29,2.29,0,1,0,4.57,0Z"/><path class="cls-3" d="M183,68l-3,6.79H178.8l-3-6.79h1.28l2.33,5.44L181.82,68Z"/><path class="cls-3" d="M190.09,71.78h-5.5a2.3,2.3,0,0,0,2.45,2,2.53,2.53,0,0,0,2-.82l.68.79a3.7,3.7,0,0,1-6.32-2.37,3.32,3.32,0,0,1,3.4-3.45,3.27,3.27,0,0,1,3.36,3.49C190.12,71.52,190.1,71.67,190.09,71.78Zm-5.5-.88h4.35a2.19,2.19,0,0,0-4.35,0Z"/><path class="cls-3" d="M195.47,67.92v1.19h-.28a2,2,0,0,0-2.14,2.29v3.38h-1.23V68H193v1.14A2.6,2.6,0,0,1,195.47,67.92Z"/><path class="cls-3" d="M196.18,74.05l.51-1a4.37,4.37,0,0,0,2.38.7c1.14,0,1.62-.34,1.62-.92,0-1.52-4.29-.2-4.29-2.91,0-1.21,1.09-2,2.83-2a5,5,0,0,1,2.47.61l-.53,1a3.51,3.51,0,0,0-2-.54c-1.07,0-1.6.4-1.6.93,0,1.6,4.3.3,4.3,2.93,0,1.23-1.12,2-2.93,2A4.88,4.88,0,0,1,196.18,74.05Z"/><path class="cls-3" d="M204.59,74a2.64,2.64,0,0,1-.21.92l-.61,1.78H203l.47-1.91a.8.8,0,0,1-.54-.79.84.84,0,0,1,.86-.87A.82.82,0,0,1,204.59,74Z"/><path class="cls-3" d="M217.22,68.93c0,1.95-1.41,3.12-3.74,3.12h-2.21v2.72H210v-9h3.49C215.81,65.81,217.22,67,217.22,68.93Zm-1.28,0c0-1.28-.86-2-2.5-2h-2.17v4h2.17C215.08,70.94,215.94,70.21,215.94,68.93Z"/><path class="cls-3" d="M224.24,70.67v4.1h-1.17v-.9a2.49,2.49,0,0,1-2.22,1c-1.54,0-2.51-.82-2.51-2s.7-2,2.72-2H223v-.24c0-1-.6-1.64-1.82-1.64a3.44,3.44,0,0,0-2.15.73l-.51-.92a4.54,4.54,0,0,1,2.8-.87C223.19,67.92,224.24,68.81,224.24,70.67Zm-1.23,2v-.94h-1.89c-1.22,0-1.57.47-1.57,1s.57,1.1,1.5,1.1A2,2,0,0,0,223,72.69Z"/><path class="cls-3" d="M225.93,71.37a3.39,3.39,0,0,1,3.59-3.45,3,3,0,0,1,2.76,1.45l-.93.6a2.12,2.12,0,0,0-1.85-1,2.39,2.39,0,0,0,0,4.78,2.13,2.13,0,0,0,1.85-1l.93.58a3,3,0,0,1-2.76,1.46A3.4,3.4,0,0,1,225.93,71.37Z"/><path class="cls-3" d="M236.42,71.61,235,72.91v1.86h-1.23v-9.5H235v6.09l3.7-3.38h1.49l-2.86,2.81,3.14,4H239Z"/><path class="cls-3" d="M247.5,71.78H242a2.31,2.31,0,0,0,2.46,2,2.53,2.53,0,0,0,2-.82l.68.79a3.7,3.7,0,0,1-6.32-2.37,3.32,3.32,0,0,1,3.4-3.45,3.27,3.27,0,0,1,3.36,3.49C247.53,71.52,247.51,71.67,247.5,71.78ZM242,70.9h4.36a2.19,2.19,0,0,0-4.36,0Z"/><path class="cls-3" d="M252.88,67.92v1.19h-.28a2,2,0,0,0-2.14,2.29v3.38h-1.23V68h1.18v1.14A2.59,2.59,0,0,1,252.88,67.92Z"/><path class="cls-3" d="M253.59,74.05l.51-1a4.37,4.37,0,0,0,2.38.7c1.14,0,1.61-.34,1.61-.92,0-1.52-4.29-.2-4.29-2.91,0-1.21,1.09-2,2.83-2a5,5,0,0,1,2.48.61l-.53,1a3.51,3.51,0,0,0-2-.54c-1.07,0-1.6.4-1.6.93,0,1.6,4.3.3,4.3,2.93,0,1.23-1.12,2-2.93,2A4.85,4.85,0,0,1,253.59,74.05Z"/><path class="cls-3" d="M271,74.91l-1.19-1.19a4.19,4.19,0,0,1-3,1.15c-1.82,0-3.14-1-3.14-2.33,0-1.1.63-1.87,2.18-2.75a2.82,2.82,0,0,1-1.08-2.05c0-1.2.95-2,2.42-2s2.23.7,2.23,1.87c0,.91-.54,1.56-1.91,2.34l2.21,2.2a5.33,5.33,0,0,0,.55-1.62l1,.32a5.88,5.88,0,0,1-.78,2l1.2,1.2ZM269.12,73l-2.55-2.53c-1.25.7-1.65,1.23-1.65,1.94,0,.86.81,1.44,2,1.44A3.05,3.05,0,0,0,269.12,73ZM266,67.71c0,.46.18.8.91,1.54,1.18-.67,1.56-1.08,1.56-1.64s-.42-1-1.19-1S266,67.07,266,67.71Z"/><path class="cls-3" d="M284,68.93c0,1.95-1.41,3.12-3.74,3.12H278v2.72h-1.28v-9h3.49C282.54,65.81,284,67,284,68.93Zm-1.28,0c0-1.28-.86-2-2.49-2H278v4h2.18C281.81,70.94,282.67,70.21,282.67,68.93Z"/><path class="cls-3" d="M291,70.67v4.1h-1.16v-.9a2.51,2.51,0,0,1-2.23,1c-1.54,0-2.51-.82-2.51-2s.7-2,2.73-2h1.94v-.24c0-1-.6-1.64-1.81-1.64a3.45,3.45,0,0,0-2.16.73l-.51-.92a4.57,4.57,0,0,1,2.81-.87C289.92,67.92,291,68.81,291,70.67Zm-1.23,2v-.94h-1.89c-1.22,0-1.56.47-1.56,1s.56,1.1,1.49,1.1A2,2,0,0,0,289.74,72.69Z"/><path class="cls-3" d="M293,65.88a.8.8,0,0,1,.83-.8.79.79,0,0,1,.83.78.83.83,0,0,1-1.66,0Zm.22,2.1h1.22v6.79h-1.22Z"/><path class="cls-3" d="M303.27,70.86v3.91H302V71c0-1.33-.67-2-1.83-2a2,2,0,0,0-2.15,2.25v3.5h-1.23V68H298v1a2.91,2.91,0,0,1,2.44-1.09A2.63,2.63,0,0,1,303.27,70.86Z"/><path class="cls-3" d="M309.37,74.37a2.33,2.33,0,0,1-1.49.47,1.93,1.93,0,0,1-2.15-2.12V69h-1.15V68h1.15V66.5H307V68h2v1h-2v3.68A1,1,0,0,0,308,73.81a1.56,1.56,0,0,0,1-.32Z"/><path class="cls-3" d="M313.66,73.74l.47-1a4.59,4.59,0,0,0,3,1c1.55,0,2.21-.6,2.21-1.38,0-2.19-5.42-.81-5.42-4.14,0-1.38,1.07-2.56,3.43-2.56a5.28,5.28,0,0,1,2.88.8l-.42,1a4.64,4.64,0,0,0-2.46-.73c-1.53,0-2.18.64-2.18,1.42,0,2.19,5.43.82,5.43,4.11,0,1.37-1.1,2.55-3.47,2.55A5.3,5.3,0,0,1,313.66,73.74Z"/><path class="cls-3" d="M328.36,71.78h-5.5a2.3,2.3,0,0,0,2.45,2,2.53,2.53,0,0,0,2-.82l.68.79a3.7,3.7,0,0,1-6.32-2.37,3.32,3.32,0,0,1,3.4-3.45,3.27,3.27,0,0,1,3.36,3.49C328.39,71.52,328.37,71.67,328.36,71.78Zm-5.5-.88h4.35a2.19,2.19,0,0,0-4.35,0Z"/><path class="cls-3" d="M333.74,67.92v1.19h-.28a2,2,0,0,0-2.14,2.29v3.38h-1.23V68h1.18v1.14A2.6,2.6,0,0,1,333.74,67.92Z"/><path class="cls-3" d="M341.54,68l-3,6.79h-1.25l-3-6.79h1.28L338,73.42,340.34,68Z"/><path class="cls-3" d="M342.48,65.88a.8.8,0,0,1,.83-.8.79.79,0,0,1,.83.78.83.83,0,0,1-1.66,0Zm.22,2.1h1.22v6.79H342.7Z"/><path class="cls-3" d="M345.64,71.37a3.39,3.39,0,0,1,3.59-3.45A3,3,0,0,1,352,69.37l-.93.6a2.12,2.12,0,0,0-1.85-1,2.39,2.39,0,0,0,0,4.78,2.13,2.13,0,0,0,1.85-1l.93.58a3,3,0,0,1-2.76,1.46A3.4,3.4,0,0,1,345.64,71.37Z"/><path class="cls-3" d="M359.59,71.78h-5.51a2.31,2.31,0,0,0,2.46,2,2.54,2.54,0,0,0,2-.82l.68.79a3.7,3.7,0,0,1-6.33-2.37,3.33,3.33,0,0,1,3.41-3.45,3.27,3.27,0,0,1,3.35,3.49C359.61,71.52,359.6,71.67,359.59,71.78Zm-5.51-.88h4.36a2.19,2.19,0,0,0-4.36,0Z"/><path class="cls-3" d="M360.46,74.05l.51-1a4.38,4.38,0,0,0,2.39.7c1.13,0,1.61-.34,1.61-.92,0-1.52-4.29-.2-4.29-2.91,0-1.21,1.09-2,2.83-2a5,5,0,0,1,2.47.61l-.53,1A3.49,3.49,0,0,0,363.5,69c-1.08,0-1.6.4-1.6.93,0,1.6,4.3.3,4.3,2.93,0,1.23-1.13,2-2.93,2A4.91,4.91,0,0,1,360.46,74.05Z"/></g></g></svg>