<svg xmlns="http://www.w3.org/2000/svg" viewBox="0 0 365.39 77.53"><defs><style>.cls-1{fill:#ea7704;}.cls-2{fill:#2c348c;}</style></defs><title>logo secondary</title><g id="Layer_2" data-name="Layer 2"><g id="Layer_4" data-name="Layer 4"><path class="cls-1" d="M96.2,0A25.85,25.85,0,0,0,73.46,38.12L94.79,76.7a1.62,1.62,0,0,0,2.83,0L119,38.11A25.84,25.84,0,0,0,96.2,0Zm0,38.76a12.92,12.92,0,1,1,12.93-12.92A12.93,12.93,0,0,1,96.2,38.76Z"/><path class="cls-2" d="M65.24,36.25V58.36H54V38c0-6.25-2.79-9.12-7.32-9.12-5,0-8.54,3.23-8.54,10.12V58.36H27V38c0-6.25-2.66-9.12-7.32-9.12-5,0-8.47,3.23-8.47,10.12V58.36H0V19.75H10.69V24.2c2.87-3.31,7.18-5,12.13-5,5.39,0,10,2.08,12.71,6.32a17.35,17.35,0,0,1,13.92-6.32C58.64,19.17,65.24,24.48,65.24,36.25Z"/><path class="cls-2" d="M170.05,19.75,153.76,58.36H142.2L126,19.75h11.56L148.23,46l11.05-26.26Z"/><path class="cls-2" d="M170.69,39.05c0-11.63,9-19.88,21.24-19.88s21.18,8.25,21.18,19.88-8.9,19.88-21.18,19.88S170.69,50.68,170.69,39.05Zm31.08,0c0-6.67-4.24-10.69-9.84-10.69s-9.9,4-9.9,10.69,4.31,10.7,9.9,10.7S201.77,45.73,201.77,39.05Z"/><path class="cls-2" d="M260,36.25V58.36H248.85V38c0-6.25-2.87-9.12-7.83-9.12-5.38,0-9.26,3.3-9.26,10.41V58.36H220.57V19.75h10.69v4.52c3-3.3,7.54-5.1,12.78-5.1C253.15,19.17,260,24.48,260,36.25Z"/><path class="cls-2" d="M268.79,8.12c0-3.52,2.8-6.25,7-6.25s7,2.59,7,6c0,3.74-2.8,6.46-7,6.46S268.79,11.64,268.79,8.12Zm1.37,11.63h11.19V58.36H270.16Z"/><path class="cls-2" d="M288.89,39.05c0-11.63,9-19.88,21.53-19.88,8.11,0,14.5,3.52,17.3,9.83L319,33.67a9.62,9.62,0,0,0-8.68-5.31c-5.67,0-10.12,4-10.12,10.69s4.45,10.7,10.12,10.7A9.48,9.48,0,0,0,319,44.43l8.69,4.74c-2.8,6.17-9.19,9.76-17.3,9.76C297.86,58.93,288.89,50.68,288.89,39.05Z"/><path class="cls-2" d="M330.44,54.77l3.73-8a26.4,26.4,0,0,0,13.42,3.73c5.17,0,7.11-1.36,7.11-3.51,0-6.32-23.33.14-23.33-15.29,0-7.32,6.61-12.49,17.87-12.49,5.32,0,11.2,1.22,14.86,3.37l-3.73,8a22.21,22.21,0,0,0-11.13-2.87c-5,0-7.17,1.58-7.17,3.59,0,6.6,23.32.21,23.32,15.43,0,7.18-6.67,12.27-18.23,12.27C340.63,58.93,334,57.14,330.44,54.77Z"/></g></g></svg>