<svg xmlns="http://www.w3.org/2000/svg" viewBox="0 0 365.39 81.24"><defs><style>.cls-1{fill:#ea7704;}.cls-2{fill:#2c348c;}.cls-3{fill:#b3b3b3;}</style></defs><title>logo</title><g id="Layer_2" data-name="Layer 2"><g id="Layer_4" data-name="Layer 4"><path class="cls-1" d="M96.2,0A25.85,25.85,0,0,0,73.46,38.12L94.79,76.7a1.62,1.62,0,0,0,2.83,0L119,38.11A25.84,25.84,0,0,0,96.2,0Zm0,38.76a12.92,12.92,0,1,1,12.93-12.92A12.93,12.93,0,0,1,96.2,38.76Z"/><path class="cls-2" d="M65.24,36.25V58.36H54V38c0-6.25-2.79-9.12-7.32-9.12-5,0-8.54,3.23-8.54,10.12V58.36H27V38c0-6.25-2.66-9.12-7.32-9.12-5,0-8.47,3.23-8.47,10.12V58.36H0V19.75H10.69V24.2c2.87-3.31,7.18-5,12.13-5,5.39,0,10,2.08,12.71,6.32a17.35,17.35,0,0,1,13.92-6.32C58.64,19.17,65.24,24.48,65.24,36.25Z"/><path class="cls-2" d="M170.05,19.75,153.76,58.36H142.2L126,19.75h11.56L148.23,46l11.05-26.26Z"/><path class="cls-2" d="M170.69,39.05c0-11.63,9-19.88,21.24-19.88s21.18,8.25,21.18,19.88-8.9,19.88-21.18,19.88S170.69,50.68,170.69,39.05Zm31.08,0c0-6.67-4.24-10.69-9.84-10.69s-9.9,4-9.9,10.69,4.31,10.7,9.9,10.7S201.77,45.73,201.77,39.05Z"/><path class="cls-2" d="M260,36.25V58.36H248.85V38c0-6.25-2.87-9.12-7.83-9.12-5.38,0-9.26,3.3-9.26,10.41V58.36H220.57V19.75h10.69v4.52c3-3.3,7.54-5.1,12.78-5.1C253.15,19.17,260,24.48,260,36.25Z"/><path class="cls-2" d="M268.79,8.12c0-3.52,2.8-6.25,7-6.25s7,2.59,7,6c0,3.74-2.8,6.46-7,6.46S268.79,11.64,268.79,8.12Zm1.37,11.63h11.19V58.36H270.16Z"/><path class="cls-2" d="M288.89,39.05c0-11.63,9-19.88,21.53-19.88,8.11,0,14.5,3.52,17.3,9.83L319,33.67a9.62,9.62,0,0,0-8.68-5.31c-5.67,0-10.12,4-10.12,10.69s4.45,10.7,10.12,10.7A9.48,9.48,0,0,0,319,44.43l8.69,4.74c-2.8,6.17-9.19,9.76-17.3,9.76C297.86,58.93,288.89,50.68,288.89,39.05Z"/><path class="cls-2" d="M330.44,54.77l3.73-8a26.4,26.4,0,0,0,13.42,3.73c5.17,0,7.11-1.36,7.11-3.51,0-6.32-23.33.14-23.33-15.29,0-7.32,6.61-12.49,17.87-12.49,5.32,0,11.2,1.22,14.86,3.37l-3.73,8a22.21,22.21,0,0,0-11.13-2.87c-5,0-7.17,1.58-7.17,3.59,0,6.6,23.32.21,23.32,15.43,0,7.18-6.67,12.27-18.23,12.27C340.63,58.93,334,57.14,330.44,54.77Z"/><path class="cls-3" d="M127.18,64H129V77.66h-1.77Z"/><path class="cls-3" d="M131.42,72.77a5.09,5.09,0,1,1,5.1,5A4.87,4.87,0,0,1,131.42,72.77Zm8.38,0a3.3,3.3,0,1,0-6.59,0,3.3,3.3,0,1,0,6.59,0Z"/><path class="cls-3" d="M143.13,72.77a4.89,4.89,0,0,1,5.17-5,4.36,4.36,0,0,1,4,2.08l-1.34.87a3.05,3.05,0,0,0-2.66-1.4,3.44,3.44,0,0,0,0,6.88,3.05,3.05,0,0,0,2.66-1.4l1.34.85a4.37,4.37,0,0,1-4,2.1A4.9,4.9,0,0,1,143.13,72.77Z"/><path class="cls-3" d="M162.32,71.76v5.9h-1.68V76.37a3.64,3.64,0,0,1-3.21,1.4c-2.22,0-3.62-1.18-3.62-2.88s1-2.86,3.93-2.86h2.8v-.35c0-1.49-.86-2.36-2.62-2.36a4.94,4.94,0,0,0-3.09,1.05L154.09,69a6.51,6.51,0,0,1,4-1.25C160.8,67.79,162.32,69.08,162.32,71.76Zm-1.78,2.91V73.31h-2.73c-1.75,0-2.25.68-2.25,1.51,0,1,.82,1.58,2.16,1.58A2.82,2.82,0,0,0,160.54,74.67Z"/><path class="cls-3" d="M165.59,64h1.78V77.66h-1.78Z"/><path class="cls-3" d="M191.93,72v5.63h-1.77V72.23c0-1.91-.92-2.85-2.52-2.85-1.78,0-2.94,1.12-2.94,3.24v5h-1.77V72.23c0-1.91-.92-2.85-2.53-2.85-1.77,0-2.93,1.12-2.93,3.24v5H175.7V67.88h1.7v1.46a4,4,0,0,1,3.37-1.55,3.62,3.62,0,0,1,3.4,1.81,4.4,4.4,0,0,1,3.76-1.81C190.31,67.79,191.93,69.15,191.93,72Z"/><path class="cls-3" d="M194.34,72.77a5.09,5.09,0,1,1,5.09,5A4.87,4.87,0,0,1,194.34,72.77Zm8.38,0a3.3,3.3,0,1,0-3.29,3.45A3.21,3.21,0,0,0,202.72,72.77Z"/><path class="cls-3" d="M215.33,67.88l-4.28,9.78h-1.81L205,67.88h1.85l3.36,7.84,3.43-7.84Z"/><path class="cls-3" d="M225.51,73.36h-7.93a3.3,3.3,0,0,0,3.54,2.86A3.66,3.66,0,0,0,223.94,75l1,1.14a5.32,5.32,0,0,1-9.11-3.41,4.78,4.78,0,0,1,4.9-5,4.72,4.72,0,0,1,4.84,5C225.55,73,225.53,73.19,225.51,73.36Zm-7.93-1.27h6.27a3.15,3.15,0,0,0-6.27,0Z"/><path class="cls-3" d="M233.26,67.79V69.5h-.41c-1.9,0-3.08,1.16-3.08,3.3v4.87H228V67.88h1.69v1.64A3.75,3.75,0,0,1,233.26,67.79Z"/><path class="cls-3" d="M234.27,76.63l.73-1.41a6.3,6.3,0,0,0,3.44,1c1.64,0,2.32-.5,2.32-1.33,0-2.2-6.18-.3-6.18-4.19,0-1.75,1.57-2.93,4.08-2.93a7.16,7.16,0,0,1,3.56.88l-.76,1.41a5,5,0,0,0-2.82-.78c-1.55,0-2.31.57-2.31,1.35,0,2.3,6.2.42,6.2,4.22,0,1.77-1.62,2.9-4.22,2.9A7.08,7.08,0,0,1,234.27,76.63Z"/><path class="cls-3" d="M257.45,71.76v5.9h-1.68V76.37a3.64,3.64,0,0,1-3.21,1.4c-2.21,0-3.61-1.18-3.61-2.88S250,72,252.87,72h2.81v-.35c0-1.49-.87-2.36-2.62-2.36a5,5,0,0,0-3.1,1.05L249.22,69a6.53,6.53,0,0,1,4-1.25C255.94,67.79,257.45,69.08,257.45,71.76Zm-1.77,2.91V73.31H253c-1.75,0-2.25.68-2.25,1.51,0,1,.81,1.58,2.16,1.58A2.83,2.83,0,0,0,255.68,74.67Z"/><path class="cls-3" d="M270,72v5.63h-1.77V72.23c0-1.91-1-2.85-2.64-2.85a2.9,2.9,0,0,0-3.1,3.24v5h-1.77V67.88h1.7v1.48A4.18,4.18,0,0,1,266,67.79C268.33,67.79,270,69.15,270,72Z"/><path class="cls-3" d="M282.57,64V77.66h-1.7V76.11a4.12,4.12,0,0,1-3.49,1.66,5,5,0,0,1,0-10,4.18,4.18,0,0,1,3.42,1.57V64Zm-1.76,8.8a3.29,3.29,0,1,0-3.28,3.45A3.22,3.22,0,0,0,280.81,72.77Z"/><path class="cls-3" d="M301,72.77a4.75,4.75,0,0,1-4.95,5,4.18,4.18,0,0,1-3.41-1.59v5.06h-1.77V67.88h1.7v1.55a4.14,4.14,0,0,1,3.48-1.64A4.75,4.75,0,0,1,301,72.77Zm-1.79,0a3.3,3.3,0,1,0-3.3,3.45A3.23,3.23,0,0,0,299.22,72.77Z"/><path class="cls-3" d="M311.11,71.76v5.9h-1.68V76.37a3.64,3.64,0,0,1-3.21,1.4c-2.21,0-3.61-1.18-3.61-2.88s1-2.86,3.93-2.86h2.8v-.35c0-1.49-.87-2.36-2.62-2.36a5,5,0,0,0-3.1,1.05L302.88,69a6.55,6.55,0,0,1,4-1.25C309.6,67.79,311.11,69.08,311.11,71.76Zm-1.77,2.91V73.31h-2.73c-1.75,0-2.25.68-2.25,1.51,0,1,.81,1.58,2.16,1.58A2.82,2.82,0,0,0,309.34,74.67Z"/><path class="cls-3" d="M313.54,72.77a4.89,4.89,0,0,1,5.17-5,4.36,4.36,0,0,1,4,2.08l-1.34.87a3.05,3.05,0,0,0-2.66-1.4,3.44,3.44,0,0,0,0,6.88,3.05,3.05,0,0,0,2.66-1.4l1.34.85a4.37,4.37,0,0,1-4,2.1A4.9,4.9,0,0,1,313.54,72.77Z"/><path class="cls-3" d="M328.65,73.1l-2,1.88v2.68h-1.77V64h1.77v8.78L332,67.88h2.14l-4.11,4,4.52,5.74h-2.18Z"/><path class="cls-3" d="M344.6,73.36h-7.93a3.3,3.3,0,0,0,3.54,2.86A3.66,3.66,0,0,0,343,75l1,1.14a5.32,5.32,0,0,1-9.11-3.41,4.78,4.78,0,0,1,4.9-5,4.72,4.72,0,0,1,4.84,5C344.64,73,344.62,73.19,344.6,73.36Zm-7.93-1.27h6.27a3.15,3.15,0,0,0-6.27,0Z"/><path class="cls-3" d="M352.34,67.79V69.5h-.4c-1.9,0-3.08,1.16-3.08,3.3v4.87h-1.77V67.88h1.69v1.64A3.74,3.74,0,0,1,352.34,67.79Z"/><path class="cls-3" d="M353.36,76.63l.73-1.41a6.3,6.3,0,0,0,3.44,1c1.64,0,2.32-.5,2.32-1.33,0-2.2-6.18-.3-6.18-4.19,0-1.75,1.57-2.93,4.08-2.93a7.16,7.16,0,0,1,3.56.88l-.76,1.41a5,5,0,0,0-2.82-.78c-1.55,0-2.31.57-2.31,1.35,0,2.3,6.2.42,6.2,4.22,0,1.77-1.62,2.9-4.22,2.9A7.08,7.08,0,0,1,353.36,76.63Z"/></g></g></svg>