<svg xmlns="http://www.w3.org/2000/svg" xmlns:xlink="http://www.w3.org/1999/xlink" viewBox="0 0 948.41 486.14"><defs><style>.cls-1{fill:#BFF6FD;}.cls-2{fill:#a7edf8;}.cls-3{fill:#f2f2f2;}.cls-4{fill:#ddd;}.cls-5{fill:url(#linear-gradient);}.cls-6{fill:none;stroke:#a7edf8;stroke-miterlimit:10;stroke-width:6px;}.cls-7{fill:url(#linear-gradient-2);}.cls-8{fill:url(#linear-gradient-3);}.cls-9{fill:url(#linear-gradient-4);}.cls-10{fill:url(#linear-gradient-5);}.cls-11{fill:url(#linear-gradient-6);}.cls-12{fill:url(#linear-gradient-7);}.cls-13{fill:url(#linear-gradient-8);}.cls-14{fill:url(#linear-gradient-9);}.cls-15{fill:#432060;}.cls-16{fill:url(#linear-gradient-10);}.cls-17{fill:url(#linear-gradient-11);}.cls-18{fill:url(#linear-gradient-12);}.cls-19{fill:url(#linear-gradient-13);}.cls-20{fill:url(#linear-gradient-14);}.cls-21{fill:url(#linear-gradient-15);}.cls-22{fill:url(#linear-gradient-16);}.cls-23{fill:url(#linear-gradient-17);}.cls-24{fill:url(#linear-gradient-18);}.cls-25{fill:#31164b;}.cls-26{fill:url(#linear-gradient-19);}.cls-27{fill:url(#linear-gradient-20);}.cls-28{fill:url(#linear-gradient-21);}.cls-29{fill:url(#linear-gradient-22);}.cls-30{fill:url(#linear-gradient-23);}.cls-31{fill:#3f215f;}.cls-32{fill:url(#linear-gradient-24);}.cls-33{fill:url(#linear-gradient-25);}.cls-34{fill:url(#linear-gradient-26);}.cls-35{fill:#fef8fa;}.cls-36{fill:url(#linear-gradient-27);}.cls-37{fill:url(#linear-gradient-28);}.cls-38{fill:url(#linear-gradient-29);}.cls-39{fill:#ed4465;}.cls-40{fill:url(#linear-gradient-30);}.cls-41{fill:url(#linear-gradient-31);}.cls-42{fill:url(#linear-gradient-32);}.cls-43{fill:#432362;}.cls-44{fill:url(#linear-gradient-33);}</style><linearGradient id="linear-gradient" x1="795.78" y1="374.25" x2="841.32" y2="374.25" gradientUnits="userSpaceOnUse"><stop offset="0.42" stop-color="#e98756"/><stop offset="1" stop-color="#f5e478"/></linearGradient><linearGradient id="linear-gradient-2" x1="344.04" y1="279.35" x2="369.55" y2="279.35" gradientUnits="userSpaceOnUse"><stop offset="0" stop-color="#e8c896"/><stop offset="0.99" stop-color="#e46678"/></linearGradient><linearGradient id="linear-gradient-3" x1="302.23" y1="275.31" x2="334.87" y2="275.31" xlink:href="#linear-gradient-2"/><linearGradient id="linear-gradient-4" x1="327.61" y1="309" x2="377.95" y2="309" gradientUnits="userSpaceOnUse"><stop offset="0" stop-color="#5382ec"/><stop offset="1" stop-color="#78bfff"/></linearGradient><linearGradient id="linear-gradient-5" x1="317.21" y1="344.31" x2="370.87" y2="344.31" gradientUnits="userSpaceOnUse"><stop offset="0" stop-color="#e98756"/><stop offset="1" stop-color="#f5e478"/></linearGradient><linearGradient id="linear-gradient-6" x1="507.57" y1="162.94" x2="572.24" y2="162.94" xlink:href="#linear-gradient-2"/><linearGradient id="linear-gradient-7" x1="616.09" y1="206.24" x2="712.86" y2="206.24" xlink:href="#linear-gradient-2"/><linearGradient id="linear-gradient-8" x1="562.75" y1="233.62" x2="621.92" y2="233.62" gradientUnits="userSpaceOnUse"><stop offset="0" stop-color="#b9177c"/><stop offset="1" stop-color="#de3b7a"/></linearGradient><linearGradient id="linear-gradient-9" x1="569.44" y1="376.27" x2="649.05" y2="376.27" xlink:href="#linear-gradient-2"/><linearGradient id="linear-gradient-10" x1="216.95" y1="237.32" x2="248.01" y2="237.32" xlink:href="#linear-gradient-2"/><linearGradient id="linear-gradient-11" x1="670.82" y1="352.47" x2="749.33" y2="352.47" xlink:href="#linear-gradient-2"/><linearGradient id="linear-gradient-12" x1="644.03" y1="435.14" x2="802.3" y2="435.14" xlink:href="#linear-gradient-2"/><linearGradient id="linear-gradient-13" x1="729.32" y1="352.47" x2="759.69" y2="352.47" xlink:href="#linear-gradient-2"/><linearGradient id="linear-gradient-14" x1="736.54" y1="435.14" x2="778.39" y2="435.14" xlink:href="#linear-gradient-2"/><linearGradient id="linear-gradient-15" x1="671.34" y1="327.36" x2="704.11" y2="327.36" xlink:href="#linear-gradient-8"/><linearGradient id="linear-gradient-16" x1="707.2" y1="318.38" x2="758.45" y2="318.38" xlink:href="#linear-gradient-5"/><linearGradient id="linear-gradient-17" x1="266.19" y1="418.5" x2="438.95" y2="418.5" xlink:href="#linear-gradient-2"/><linearGradient id="linear-gradient-18" x1="374.77" y1="418.5" x2="430.93" y2="418.5" xlink:href="#linear-gradient-2"/><linearGradient id="linear-gradient-19" x1="229.66" y1="240.61" x2="267.58" y2="240.61" gradientTransform="translate(19.09 -18.28) rotate(4.38)" xlink:href="#linear-gradient-2"/><linearGradient id="linear-gradient-20" x1="195.33" y1="243.23" x2="233.55" y2="243.23" gradientTransform="translate(19.19 -15.66) rotate(4.38)" xlink:href="#linear-gradient-2"/><linearGradient id="linear-gradient-21" x1="141.56" y1="376.57" x2="221.22" y2="376.57" xlink:href="#linear-gradient-5"/><linearGradient id="linear-gradient-22" x1="161.8" y1="193.15" x2="204.34" y2="193.15" xlink:href="#linear-gradient-2"/><linearGradient id="linear-gradient-23" x1="131.29" y1="241.63" x2="223.87" y2="241.63" xlink:href="#linear-gradient-4"/><linearGradient id="linear-gradient-24" x1="144.98" y1="247.91" x2="179.88" y2="247.91" gradientTransform="translate(19.4 -11.67) rotate(4.38)" xlink:href="#linear-gradient-2"/><linearGradient id="linear-gradient-25" x1="104.48" y1="250.66" x2="148.53" y2="250.66" gradientTransform="translate(19.5 -8.93) rotate(4.38)" xlink:href="#linear-gradient-2"/><linearGradient id="linear-gradient-26" x1="118.61" y1="230.95" x2="153.9" y2="260.68" xlink:href="#linear-gradient-2"/><linearGradient id="linear-gradient-27" x1="549.71" y1="301.77" x2="602.73" y2="301.77" xlink:href="#linear-gradient-4"/><linearGradient id="linear-gradient-28" x1="543.8" y1="397" x2="571.62" y2="397" xlink:href="#linear-gradient-2"/><linearGradient id="linear-gradient-29" x1="580.28" y1="201.58" x2="601.42" y2="201.58" xlink:href="#linear-gradient-2"/><linearGradient id="linear-gradient-30" x1="315.62" y1="377.02" x2="337.61" y2="377.02" xlink:href="#linear-gradient-2"/><linearGradient id="linear-gradient-31" x1="350.87" y1="377.02" x2="372.86" y2="377.02" xlink:href="#linear-gradient-2"/><linearGradient id="linear-gradient-32" x1="364.91" y1="331.2" x2="399.85" y2="331.2" xlink:href="#linear-gradient-2"/><linearGradient id="linear-gradient-33" x1="65.1" y1="457.88" x2="116.91" y2="457.88" xlink:href="#linear-gradient"/></defs><title>Asset 7</title><g id="Layer_2" data-name="Layer 2"><g id="Layer_7" data-name="Layer 7"><path class="cls-1" d="M5.25,483.64S-10.64,458,12.86,440.38s25.56-48.68,7.6-85.85,5.53-100.73,68.41-96,82.92-52.73,70.48-125.06S245,31.4,322.43,65.2s174.14,39.21,269.5-21.63S811.67-17.27,833.09,61.82s-67,139.26,8.3,165.62,118.75,58.81,104.24,98-71.87,158.85-71.87,158.85Z"/><path class="cls-2" d="M89.21,439.65s-5-19.79-29.5-10.43c-17.27,7.22-28.42-14.3-5.76-18.48s13.31-20.38-.72-27.93c-18.35-11.16-24.76-20.51-12-31.3s30.37-3.3,39.36,12.92,16.91,8.66,20.87-4.65,25.54-31.61,36.34-18.5.35,23.3-15.11,34.21-5.44,27.1,5.73,23.15,23.22,13.54,4.79,17.92S102.88,415.55,89.21,439.65Z"/><path class="cls-2" d="M813.65,355.7s2.24-15.95-11.45-25.15c-9-6.29-14.6-11-12.58-17.52s17.29-1.8,17.07-15c-.45-9.66-20.89-24.25-12.8-56.37,6.51-20.65,22.23-8.75,22.9,2.7s1.57,32.78,12.13,27.17,24.47-9.43,22,7.86-24.25,21.78-23.35,37.27c1.12,10.33,14.92,2.25,13.75,14.82S813.65,355.7,813.65,355.7Z"/><rect class="cls-3" x="430.93" y="386.29" width="74.79" height="97.71"/><rect class="cls-4" x="505.72" y="386.29" width="39.82" height="97.71"/><path class="cls-5" d="M795.78,355.19s23.4-9.48,45.54,0c0,0-.32,34.49-9.81,41.91l-24.93.42S795.47,386.81,795.78,355.19Z"/><rect class="cls-3" x="774.86" y="397" width="68.2" height="86.99"/><rect class="cls-4" x="843.05" y="397" width="31.45" height="86.99"/><rect class="cls-6" x="274.65" y="112.15" width="135.31" height="222.98"/><rect class="cls-6" x="639.55" y="109.1" width="135.31" height="226.03"/><path class="cls-7" d="M344,285.3h5l1.08-2.87s-6.21-4.06-2.27-11.71,6.21-12.86,6.21-12.86,6,2.67,9.71,2.39l3.07,9.3s6.46,2.7-.71,5.76a26.58,26.58,0,0,0-5.61,13.58l2.76.66,0,7.22-9.44,4.07L344,294.27Z"/><path class="cls-8" d="M327.61,292.76c0-.11-12.5-5.42-23-21.24-6.18-8.92,1.46-14.62,4.61-13.53s2.54,5,2.54,5l21.42,16.9,1.73,9.76Z"/><path class="cls-9" d="M334.18,278.62s-7.49,8.1-6.48,15.59l7.49,3s-6.79,21.89-5.32,35.43l10.58,6.71h21.41l2-3.36s-1-16.11,0-25.62c0,0,10.35,1.62,14-2.84,0,0,1.82-12.75-14.57-18,0,0-4.26,8.5-12.45,6.07s-4.95-10.92-4.95-10.92A20.93,20.93,0,0,1,334.18,278.62Z"/><path class="cls-10" d="M329.87,332.67s-13.8,5.09-12.59,20.64c0,0,14.47,4,22.51,1.47,3.48-1.07,7.42.88,11.08.84s15.31,1.44,20-1.51c0,0-.13-10.32-7-18.09C363.9,336,344.21,342.45,329.87,332.67Z"/><path class="cls-11" d="M563.62,199.46s-20.56-38.71-42.57-61.18c0,0-9.2-1.87-12.95-8s13.42,1.56,13.42,1.56.47-1.56-.62-5.46c0,0,5,4.37,4.21,10.77,0,0,41.36,41.31,47.13,57.17Z"/><path class="cls-12" d="M621.91,223.65S669,202,694.43,198.36c0,0,15.29,4.68,18.1,0s-12.95-5.77-12.95-5.77.62-2.38,3.9-3.77c0,0-6.88,2.05-9.83,6.11,0,0-62.89,7-77.56,18.88Z"/><path class="cls-13" d="M621.71,225s-24.56,11.26-27.07,46.56c0,0-16.63,5.44-26.54-3.29,0,0,2.09-17.9-1.15-27.82s-1.53-11.42,1.82-18.3-2.77-16.8-6-22.15l10.12-5.91,13.14,22s-3.29-1.37-4.75-1.14c0,4.42.58,10.93,4.2,11.56,5.53.95,9.73-11.45,9.73-11.45l20.6-2.86S623.23,220,621.71,225Z"/><path class="cls-14" d="M571.62,334.27S568,364.85,570.11,375s28.38,20.11,38.08,25.31S643.91,422,643.91,422l5.14-4s-29.74-34.53-62.86-51.8c0,0,10.07-24.45,10.83-35.76Z"/><path class="cls-15" d="M590.85,203.5s-21.78,6.29-20.71-13.77c.71-10.44,16.14-11.63,19.7-19.22s6.43-9.73,11.58-9.38,5.86,9.5,11.8,9.73,13.29-7.47,21,8.9-6.41,36.79-16.26,36.79-10.64-2.73-14.69-7.35S595.79,202.66,590.85,203.5Z"/><path class="cls-16" d="M223.87,204.09s14.71,9.68,20.17,19.55,3.7,40.06,3.7,40.06S241.5,276.56,230,267l-7-43.37L217,217.43Z"/><rect class="cls-17" x="668.58" y="318.65" width="60.74" height="67.64"/><rect class="cls-18" x="645.81" y="386.29" width="90.73" height="97.71"/><rect class="cls-19" x="729.32" y="318.65" width="30.37" height="67.64"/><rect class="cls-20" x="736.54" y="386.29" width="41.85" height="97.71"/><path class="cls-21" d="M704.11,318.65s-18.69-20.16-27.59-5.84-5.57,35,4.07,34.22S692.8,337,688,327.45,691.37,318.38,704.11,318.65Z"/><path class="cls-22" d="M707.2,318.65s1.83-9.16,13.58-7.8,10.86,2,18.69-4.82,21.11,11.91,18.69,18.69-2.56,11-11.45,3.47c-4.83-3.62-7.25,5.87-13.57-.16S732.23,318,707.2,318.65Z"/><rect class="cls-23" x="254.77" y="353.01" width="120" height="130.99"/><rect class="cls-24" x="374.77" y="353.01" width="56.16" height="130.99"/><path class="cls-25" d="M144.16,464.89s-3.59,15.51-1.31,17.63,27.43,5.08,34,1.48c2.44-2-2.45-7-9.8-9.48s-8.32-6.69-8.32-6.69S148.89,469,144.16,464.89Z"/><path class="cls-25" d="M195.42,464.89s-3.6,15.51-1.31,17.63,27.42,5.08,33.95,1.48c2.45-2-2.44-7-9.79-9.48s-8.33-6.69-8.33-6.69S200.15,469,195.42,464.89Z"/><rect class="cls-26" x="231.56" y="215.16" width="34.13" height="50.9" transform="translate(-17.64 19.68) rotate(-4.38)"/><rect class="cls-27" x="197.22" y="217.78" width="34.44" height="50.9" transform="translate(-17.94 17.08) rotate(-4.38)"/><path class="cls-28" d="M143.82,466.42s-3.59,1.81-1.73-9.59S157.48,325.46,150,284.16c0,0,46.57,5.69,62.45-1.07,0,0,9.11,66.58,8.76,96.48s-4,79.58-6.77,85.32-7.2,5.53-13.53,4.76-9.43,1.43-7.56-17.44,0-111.46-6.73-131.76c0,0-15.26,129.26-23.45,142.08C159.77,470.05,151.17,468.18,143.82,466.42Z"/><path class="cls-29" d="M168.14,198.25s2.43-1.49,7.23-1.32v-8.61s-4.83-5-5.13-9.27c0,0-6.2-4.31-1.43-6.42l5.24-10,13.87,2s8.14,16.87,2,23.32l.89,8.61,7.38.83,6.13,15.22-11.92,11-30.62-6.52Z"/><path class="cls-30" d="M131.29,202.78s4.52,16,15.62,22l-.75,58.3s44.78,10.2,70-.9L214.27,218l1.89.94,7.71-14.87s-8.24-10.11-31.2-7.29c0,0,7.58,19-10.34,18.4-12.84-.39-9.41-16.11-7-18.27C175.37,196.93,149.92,192.24,131.29,202.78Z"/><path class="cls-31" d="M169.94,174.74s-4.64-5.82,1-12.94c1.68-1.77-1.37-1.46-1.25-3.55s1.58-3.86,9.68-2.08,7.17-3.85,7.27-6.61,6.42-6.13,9.29-.79S190.39,165,190.39,165l.22,6.76-2.69-7.05L173.4,164S175.08,169.31,169.94,174.74Z"/><rect class="cls-32" x="146.71" y="224.64" width="31.43" height="46.54" transform="translate(-18.45 13.12) rotate(-4.38)"/><rect class="cls-33" x="106.2" y="227.39" width="40.62" height="46.54" transform="translate(-18.76 10.39) rotate(-4.38)"/><path class="cls-34" d="M132.34,205.82,112,223s8.74,49.51,17,53.29S140,273.52,140,273.52l-7.57-.44L132,232.89l14.93-8.1Z"/><path class="cls-35" d="M181.13,180.34a.91.91,0,0,1,1-1.16c1.5.12,4.36.21,5.76-.69,1.95-1.26.48,4-2.59,4C183.68,182.3,181.58,181.91,181.13,180.34Z"/><path class="cls-36" d="M568.09,268.23s-15.24,11.32-18.38,57.86c0,0,30.3,17.36,47.31,4.42,0,0,14.3-24.05-2.38-59C594.64,271.52,582.74,273.69,568.09,268.23Z"/><path class="cls-25" d="M547.9,468.31c-.42,2.21-1.8,5.47-6,8.42-8.45,3.64-7.4,9.16-1.52,9.4s15.15-6.93,14.91-15c-.09-3-1.13-4.56-2.41-5.27A3.45,3.45,0,0,0,547.9,468.31Z"/><path class="cls-25" d="M642.41,419.4s4.35,5.87,2.83,12.62,2.61,10.67,8,5.44,2.62-17.85-5.44-22.42S642.41,419.4,642.41,419.4Z"/><path class="cls-37" d="M548.58,466.8s-6.74-44.15-4.21-82.83,5.34-57.88,5.34-57.88l21.91,8.18S555,431.05,555,467.92Z"/><path class="cls-38" d="M600.72,192.63c-4.14,8.07-4.73,12.42-5.53,22.41,0,0-4.2,12.4-9.73,11.45-3.62-.63-4.22-7.14-4.2-11.56A25.51,25.51,0,0,0,586.1,203s-5.7,1.55-5.82-7.12c0-6.73,9.06-9.19,8.92-19.28C589.2,176.63,604.87,184.55,600.72,192.63Z"/><path class="cls-39" d="M336.46,434.33c-14.92,2.88-12.1-23.45-12.1-23.45,8.21,9.58,10-2,10-2S351.38,431.44,336.46,434.33Z"/><path class="cls-40" d="M335.15,365.11c-1.63,14.95-2.93,33.76-.79,43.73,0,0-1.79,11.62-10,2,0,0-11.67-20.23-8.05-41.69s8.79-31.34,15.94-29.61C341,341.86,336.78,350.17,335.15,365.11Z"/><path class="cls-39" d="M352,434.33c14.92,2.88,12.1-23.45,12.1-23.45-8.22,9.58-10-2-10-2S337.09,431.44,352,434.33Z"/><path class="cls-41" d="M353.33,365.11c1.63,14.95,2.93,33.76.79,43.73,0,0,1.78,11.62,10,2,0,0,11.67-20.23,8.05-41.69s-8.79-31.34-15.94-29.61C347.47,341.86,351.7,350.17,353.33,365.11Z"/><path class="cls-42" d="M364.91,310.52s2.82,24.48,18.94,38.22c0,0-3,6.87,5.6,6,5.43-.54,8.32-.9,9.7-1.1a.81.81,0,0,0,.58-1.23c-1.09-1.85-4.27-5.45-12.38-5.66l-9.46-39.22Z"/><path class="cls-43" d="M350.89,264.75l1-8s-7.31-8.55.59-13.06,7.66,7,10.76,9.15,9.8,4.38,6.93,11.19-4.06,7.17-4.06,7.17-5.38-3.73-3.94-10l-8.37-2.75Z"/><path class="cls-35" d="M351.09,272.76c-.89-.16-1.75.31-1.68.91.11.82.63,1.89,2.53,2.33a5.69,5.69,0,0,0,3.7-.25c.69-.32.74-1,.1-1.34A14.25,14.25,0,0,0,351.09,272.76Z"/><path class="cls-44" d="M65.1,436.32s26.63-10.8,51.81,0c0,0-.36,39.24-11.15,47.68l-28.06.24S64.74,472.29,65.1,436.32Z"/></g></g></svg>