<svg xmlns="http://www.w3.org/2000/svg" viewBox="0 0 112.51 73.32"><defs><style>.cls-1{fill:#fff;}</style></defs><title>mastercard</title><g id="Layer_2" data-name="Layer 2"><g id="Layer_7" data-name="Layer 7"><path class="cls-1" d="M69.42,0A23.56,23.56,0,0,0,56.26,4,23.72,23.72,0,1,0,43.09,47.45a23.55,23.55,0,0,0,13.17-4,23.49,23.49,0,0,0,13.16,4A23.73,23.73,0,0,0,69.42,0Zm0,43.13a19.43,19.43,0,0,1-16.66-9.46h2.5a2.16,2.16,0,1,0,0-4.32H50.85a18.71,18.71,0,0,1-.62-2.71h8.49a2.16,2.16,0,1,0,0-4.32H50.06a20.24,20.24,0,0,1,.39-2.72h4.81a2.16,2.16,0,1,0,0-4.32H52A19.4,19.4,0,1,1,69.42,43.13Z"/><path class="cls-1" d="M89.89,73.13l2.5-13h3.06l.39,1.34a4.48,4.48,0,0,1,3.45-1.34l-1,3.45c-1,0-2.49-.19-3.64,3.65l-1.15,5.94Z"/><path class="cls-1" d="M42.93,56.83h3.45l-.76,3.45h1.91L47,63H45.23l-.95,5.17c-.2,1,0,1.92,1.91,1.54l-.38,2.87a4.26,4.26,0,0,1-2.68.58c-.77,0-3.45-.58-2.88-4l2.68-12.27Z"/><path class="cls-1" d="M58.27,67.38c.38-2.11,1.34-7.29-4.79-7.29-5.75,0-6.52,5.75-6.52,6.52-.19.77-.19,6.52,5.94,6.52a15.61,15.61,0,0,0,4.6-.58l.58-2.68a19.1,19.1,0,0,1-4,.38c-1.34,0-3.64,0-3.26-2.87Zm-4.6-4.79c1.34,0,1.72.95,1.53,2.3H50.79A2.72,2.72,0,0,1,53.67,62.59Z"/><path class="cls-1" d="M39.48,63.16l.77-2.68a10.66,10.66,0,0,0-3.45-.58c-.57,0-4.79,0-5.37,3.07-.57,2.49.39,3.45,1.15,3.83,1.35.58,2.11,1.15,2.88,1.54a1,1,0,0,1-.38,1.91,14.52,14.52,0,0,1-4.6-.38l-.58,2.68a17,17,0,0,0,4.22.39c1,0,5.17.19,5.75-3.65A3.1,3.1,0,0,0,38.72,66a16.5,16.5,0,0,0-2.49-1.35c-.77-.38-1.35-1.53,0-1.91.57.19,2.3.19,3.25.38Z"/><polygon class="cls-1" points="16.48 73.13 19.55 57.41 13.61 57.41 9.39 66.99 8.63 57.41 3.07 57.41 0 73.13 3.45 73.13 5.75 61.82 6.71 73.13 9.97 73.13 14.95 62.01 12.84 73.13 16.48 73.13 16.48 73.13"/><path class="cls-1" d="M24.75,60.22a22.83,22.83,0,0,0-4.24.26l-.58,2.87c1,0,3.26-.38,4.41-.38s2.69-.19,2.11,1.72c-1,0-7.28-.95-8.24,4.6a3.54,3.54,0,0,0,3.64,4,4.26,4.26,0,0,0,2.88-.77l.38.77h3.26l1.34-7.09C30.09,64.5,30.69,60.22,24.75,60.22Zm.93,8.5a2.59,2.59,0,0,1-3.06,1.53c-1.34-.38-1-1.72.19-2.49a4.61,4.61,0,0,1,3.07-.38Z"/><path class="cls-1" d="M77.82,61.05a4.33,4.33,0,0,0-2.69-.57,4.73,4.73,0,0,0-4.21,4.21c-.58,3.84,1.91,5.56,5.56,4.41l1,3.26a8.66,8.66,0,0,1-4.21.77c-3.64,0-7.67-3.26-5.94-10,1.34-4.79,5.55-6.71,8-6.52,2.87.19,4,1.15,4.79,2.11l-2.3,2.3Z"/><path class="cls-1" d="M108.87,56.64l-1,5c-.77-.58-1.15-1.54-2.68-1.54-1.92,0-5-.38-6.71,5.56-1.15,4,1.15,7.48,3.64,7.48a7.31,7.31,0,0,0,3.07-1l.38,1h3.83l3.07-16.49ZM106.76,67c-.77,1.54-1.53,2.5-2.87,2.5-1.15,0-2.3-1.35-1.73-3.26.77-2.88,3.26-4,4.41-2.49A4.54,4.54,0,0,1,106.76,67Z"/><path class="cls-1" d="M84.53,60.29a10.62,10.62,0,0,0-4.22.19l-.58,2.87c1,0,3.26-.38,4.41-.38s2.5-.19,2.11,1.72c-1,0-7.28-.95-8.24,4.6a3.54,3.54,0,0,0,3.64,4,4.26,4.26,0,0,0,2.88-.77l.38.77h3.26l1.34-7.09C89.89,64.5,90.47,60.29,84.53,60.29Zm1.15,8.43c-.19,1.15-1.92,1.92-3.07,1.53-1.34-.38-1-1.72.19-2.49a4.61,4.61,0,0,1,3.07-.38Z"/><path class="cls-1" d="M58.27,73.13l2.49-12.85h3.07l.38,1.35a4.45,4.45,0,0,1,3.45-1.35l-1,3.46c-.77,0-2.49-.2-3.64,3.64l-1.15,5.94H58.27Z"/></g></g></svg>