<svg xmlns="http://www.w3.org/2000/svg" xmlns:xlink="http://www.w3.org/1999/xlink" viewBox="0 0 872.55 537.07"><defs><style>.cls-1{fill:url(#radial-gradient);}.cls-2{opacity:0.2;}.cls-3{fill:url(#radial-gradient-2);}.cls-4{fill:url(#linear-gradient);}.cls-5{fill:url(#linear-gradient-2);}.cls-6{fill:url(#linear-gradient-3);}.cls-7{fill:#fff1ea;}.cls-8{fill:url(#linear-gradient-4);}.cls-9{fill:url(#linear-gradient-5);}.cls-10{fill:url(#linear-gradient-6);}.cls-11{fill:url(#linear-gradient-7);}.cls-12{fill:url(#linear-gradient-8);}.cls-13{fill:url(#linear-gradient-9);}.cls-14{fill:url(#linear-gradient-10);}.cls-15{fill:url(#linear-gradient-11);}.cls-16,.cls-21,.cls-50{fill:none;stroke:#fff;stroke-miterlimit:10;}.cls-17{fill:url(#linear-gradient-12);}.cls-18{fill:url(#linear-gradient-13);}.cls-19{fill:url(#linear-gradient-14);}.cls-20{fill:url(#linear-gradient-15);}.cls-21{stroke-width:2px;}.cls-22{fill:url(#linear-gradient-16);}.cls-23{fill:url(#linear-gradient-17);}.cls-24{fill:url(#linear-gradient-18);}.cls-25{fill:url(#linear-gradient-19);}.cls-26{fill:url(#linear-gradient-20);}.cls-27{fill:url(#linear-gradient-21);}.cls-28{fill:url(#linear-gradient-22);}.cls-29{fill:url(#linear-gradient-23);}.cls-30{fill:url(#radial-gradient-3);}.cls-31{fill:url(#radial-gradient-4);}.cls-32{fill:url(#linear-gradient-24);}.cls-33{fill:#ededed;}.cls-34{fill:url(#linear-gradient-25);}.cls-35{fill:url(#linear-gradient-26);}.cls-36{fill:url(#linear-gradient-27);}.cls-37{fill:url(#linear-gradient-28);}.cls-38{fill:url(#linear-gradient-29);}.cls-39{fill:#3c274e;}.cls-40{fill:url(#linear-gradient-30);}.cls-41{fill:url(#linear-gradient-31);}.cls-42{fill:url(#linear-gradient-32);}.cls-43{fill:url(#linear-gradient-33);}.cls-44{fill:url(#linear-gradient-34);}.cls-45{fill:url(#linear-gradient-35);}.cls-46{fill:url(#linear-gradient-36);}.cls-47{fill:url(#linear-gradient-37);}.cls-48{fill:url(#linear-gradient-38);}.cls-49{fill:url(#linear-gradient-39);}.cls-50{opacity:0.5;}</style><radialGradient id="radial-gradient" cx="144.81" cy="72.43" r="255.87" gradientUnits="userSpaceOnUse"><stop offset="0" stop-color="#d93b7a"/><stop offset="1" stop-color="#b4177c"/></radialGradient><radialGradient id="radial-gradient-2" cx="28.25" cy="163.33" r="332.88" gradientUnits="userSpaceOnUse"><stop offset="0" stop-color="#f0df78"/><stop offset="1" stop-color="#e48256"/></radialGradient><linearGradient id="linear-gradient" x1="146.89" y1="204.6" x2="329.87" y2="204.6" gradientTransform="translate(482.19 402.7) rotate(178.45)" gradientUnits="userSpaceOnUse"><stop offset="0" stop-color="#b4177c"/><stop offset="1" stop-color="#d93b7a"/></linearGradient><linearGradient id="linear-gradient-2" x1="237.38" y1="316.25" x2="237.38" y2="211.75" gradientUnits="userSpaceOnUse"><stop offset="0" stop-color="#3841f3"/><stop offset="0.99" stop-color="#468bf6"/></linearGradient><linearGradient id="linear-gradient-3" x1="9343.2" y1="425.54" x2="9451.46" y2="425.54" gradientTransform="matrix(1, 0, 0, -1, -9208.61, 851.09)" gradientUnits="userSpaceOnUse"><stop offset="0" stop-color="#5380e7"/><stop offset="1" stop-color="#78baff"/></linearGradient><linearGradient id="linear-gradient-4" x1="9364.6" y1="415.17" x2="9394.76" y2="415.17" gradientTransform="matrix(1, 0, 0, -1, -9173.3, 830.34)" xlink:href="#linear-gradient"/><linearGradient id="linear-gradient-5" x1="9400.11" y1="415.17" x2="9430.27" y2="415.17" gradientTransform="matrix(1, 0, 0, -1, -9244.33, 830.34)" xlink:href="#linear-gradient"/><linearGradient id="linear-gradient-6" x1="505.91" y1="204.11" x2="688.88" y2="204.11" gradientTransform="translate(5.72 -16.04) rotate(1.55)" xlink:href="#linear-gradient"/><linearGradient id="linear-gradient-7" x1="599.47" y1="315.51" x2="599.47" y2="195.49" xlink:href="#linear-gradient-2"/><linearGradient id="linear-gradient-8" x1="418.28" y1="251.8" x2="418.28" y2="528.99" gradientTransform="matrix(1, 0, 0, 1, 0, 0)" xlink:href="#linear-gradient-3"/><linearGradient id="linear-gradient-9" x1="376.42" y1="445.46" x2="451.6" y2="445.46" gradientTransform="matrix(1, 0, 0, 1, 0, 0)" xlink:href="#linear-gradient"/><linearGradient id="linear-gradient-10" x1="594" y1="425.54" x2="702.26" y2="425.54" gradientTransform="matrix(1, 0, 0, 1, 0, 0)" xlink:href="#linear-gradient-3"/><linearGradient id="linear-gradient-11" x1="414.19" y1="524.39" x2="414.19" y2="557.65" gradientTransform="matrix(1, 0, 0, 1, 0, 0)" xlink:href="#linear-gradient-3"/><linearGradient id="linear-gradient-12" x1="277.34" y1="424.95" x2="311.65" y2="424.95" gradientTransform="matrix(1, 0, 0, 1, 0, 0)" xlink:href="#linear-gradient"/><linearGradient id="linear-gradient-13" x1="321.35" y1="424.95" x2="355.67" y2="424.95" gradientTransform="matrix(1, 0, 0, 1, 0, 0)" xlink:href="#linear-gradient"/><linearGradient id="linear-gradient-14" x1="277.34" y1="329.99" x2="311.65" y2="329.99" gradientTransform="matrix(1, 0, 0, 1, 0, 0)" xlink:href="#linear-gradient"/><linearGradient id="linear-gradient-15" x1="321.35" y1="329.99" x2="355.67" y2="329.99" gradientTransform="matrix(1, 0, 0, 1, 0, 0)" xlink:href="#linear-gradient"/><linearGradient id="linear-gradient-16" x1="471.61" y1="424.95" x2="505.92" y2="424.95" gradientTransform="matrix(1, 0, 0, 1, 0, 0)" xlink:href="#linear-gradient"/><linearGradient id="linear-gradient-17" x1="515.62" y1="424.95" x2="549.94" y2="424.95" gradientTransform="matrix(1, 0, 0, 1, 0, 0)" xlink:href="#linear-gradient"/><linearGradient id="linear-gradient-18" x1="471.61" y1="329.99" x2="505.92" y2="329.99" gradientTransform="matrix(1, 0, 0, 1, 0, 0)" xlink:href="#linear-gradient"/><linearGradient id="linear-gradient-19" x1="515.62" y1="329.99" x2="549.94" y2="329.99" gradientTransform="matrix(1, 0, 0, 1, 0, 0)" xlink:href="#linear-gradient"/><linearGradient id="linear-gradient-20" x1="414.88" y1="267.36" x2="414.88" y2="97.66" xlink:href="#linear-gradient-2"/><linearGradient id="linear-gradient-21" x1="238.54" y1="116.38" x2="594.41" y2="116.38" gradientTransform="matrix(1, 0, 0, 1, 0, 0)" xlink:href="#linear-gradient"/><linearGradient id="linear-gradient-22" x1="615.4" y1="415.17" x2="645.56" y2="415.17" gradientTransform="matrix(1, 0, 0, 1, 0, 0)" xlink:href="#linear-gradient"/><linearGradient id="linear-gradient-23" x1="650.91" y1="415.17" x2="681.07" y2="415.17" gradientTransform="matrix(1, 0, 0, 1, 0, 0)" xlink:href="#linear-gradient"/><radialGradient id="radial-gradient-3" cx="327.81" cy="260.71" r="198.46" gradientUnits="userSpaceOnUse"><stop offset="0" stop-color="#e48256"/><stop offset="1" stop-color="#f0df78"/></radialGradient><radialGradient id="radial-gradient-4" cx="749.13" cy="317.96" r="164.4" xlink:href="#radial-gradient"/><linearGradient id="linear-gradient-24" x1="805.71" y1="440.07" x2="872.55" y2="440.07" gradientTransform="matrix(1, 0, 0, 1, 0, 0)" xlink:href="#linear-gradient-3"/><linearGradient id="linear-gradient-25" x1="2833.53" y1="1091.78" x2="2854.91" y2="1091.78" gradientTransform="translate(-1138.22 -2514.94) rotate(43.57)" xlink:href="#linear-gradient-2"/><linearGradient id="linear-gradient-26" x1="188.7" y1="206.72" x2="219.51" y2="206.72" gradientUnits="userSpaceOnUse"><stop offset="0" stop-color="#e3c391"/><stop offset="0.99" stop-color="#df6678"/></linearGradient><linearGradient id="linear-gradient-27" x1="117.15" y1="375.05" x2="123.1" y2="375.05" xlink:href="#linear-gradient-26"/><linearGradient id="linear-gradient-28" x1="144.91" y1="375.05" x2="150.86" y2="375.05" xlink:href="#linear-gradient-26"/><linearGradient id="linear-gradient-29" x1="111.58" y1="179.5" x2="138.49" y2="179.5" xlink:href="#linear-gradient-26"/><linearGradient id="linear-gradient-30" x1="93.8" y1="260.86" x2="115.82" y2="260.86" xlink:href="#linear-gradient-26"/><linearGradient id="linear-gradient-31" x1="110.25" y1="317.42" x2="129.99" y2="317.42" gradientTransform="matrix(1, 0, 0, 1, 0, 0)" xlink:href="#linear-gradient"/><linearGradient id="linear-gradient-32" x1="121.99" y1="319.28" x2="152.7" y2="319.28" gradientTransform="matrix(1, 0, 0, 1, 0, 0)" xlink:href="#linear-gradient"/><linearGradient id="linear-gradient-33" x1="83.56" y1="224.88" x2="104.04" y2="224.88" gradientTransform="matrix(1, 0, 0, 1, 0, 0)" xlink:href="#linear-gradient-3"/><linearGradient id="linear-gradient-34" x1="104.19" y1="165.23" x2="137.34" y2="165.23" xlink:href="#radial-gradient-3"/><linearGradient id="linear-gradient-35" x1="228.02" y1="189.55" x2="356.17" y2="189.55" gradientTransform="translate(-26.37 -59.18) rotate(1.8)" xlink:href="#radial-gradient-3"/><linearGradient id="linear-gradient-36" x1="2793.29" y1="1006.56" x2="2900.48" y2="1006.56" gradientTransform="translate(-2616.08 -830.09)" xlink:href="#linear-gradient-2"/><linearGradient id="linear-gradient-37" x1="116.45" y1="382.84" x2="132.89" y2="382.84" xlink:href="#linear-gradient-2"/><linearGradient id="linear-gradient-38" x1="144.91" y1="382.59" x2="164.83" y2="382.59" xlink:href="#linear-gradient-2"/><linearGradient id="linear-gradient-39" x1="100.5" y1="229.1" x2="197.03" y2="229.1" gradientTransform="matrix(1, 0, 0, 1, 0, 0)" xlink:href="#linear-gradient-3"/></defs><title>paint</title><g id="Layer_2" data-name="Layer 2"><g id="Layer_7" data-name="Layer 7"><path class="cls-1" d="M226.26,266.81c-8.9-27.42,20.4-33.37,27.7-72.55s-52.81-25.94-56.49-63.94c-5.28-54.56,40.72-40.77,37.78-85.25-7.46-41.81-55-47.71-72-44.23-11,.79-65.91,26-56.83,73.71,11,52.09,47.29,24.84,49.57,62.94S100.91,177.38,113.13,208C128,245,177,247.13,173.64,275.76c-2.82,24.17-37.38,18.51-49,44a35.81,35.81,0,0,0-.45,27.79c22,56.89,79.78,59.28,79.8,59.29l0,.18s62.11-30.46,67.9-84.31C274.68,294.72,235.17,294.24,226.26,266.81Z"/><g class="cls-2"><path d="M221.3,382c-2.64-7.24-5-14.58-7.25-22-1.15-3.68-2.21-7.38-3.27-11.09s-2.17-7.4-3.12-11.14c-1.95-7.46-3.93-14.91-5.65-22.43l-2.68-11.25-2.44-11.31-2.44-11.31c-.75-3.78-1.42-7.58-2.13-11.37-1.4-7.58-2.88-15.15-4-22.78L186.45,236c-.59-3.81-1.29-7.61-1.77-11.43l-3.11-22.93c-.55-3.82-.89-7.66-1.3-11.5l-1.19-11.51-1.18-11.5c-.39-3.84-.61-7.69-.93-11.54l-1.74-23.07c-.47-7.69-.73-15.4-1-23.11l-.48-11.55-.11-2.89,0-2.89-.06-5.78-.25-23.13,0-5.78c0-1.93.09-3.85.13-5.78l.3-11.56q.3-11.55.68-23.1.1,11.55.12,23.11l0,11.55c0,1.92,0,3.85,0,5.77l.2,5.78.66,23.08.17,5.77.08,2.89.17,2.88.68,11.53,1.34,23,1.87,23c.34,3.84.58,7.68,1,11.5l1.26,11.48,1.25,11.47c.42,3.82.8,7.65,1.35,11.46,3.62,30.57,8.67,61,14.6,91.15l2.24,11.32L203.85,315c1.58,7.53,3.44,15,5.23,22.49C212.71,352.42,216.67,367.31,221.3,382Z"/></g><path class="cls-3" d="M143.89,389.31c-12-26.21,16.39-35.52,19.09-75.28s-55.47-19.63-63.53-56.95C87.86,203.5,135.16,211.86,127.07,168c-12.26-40.66-60.13-41-76.62-35.57C39.64,134.51-12,165.89,2.57,212.26c17,50.46,49.85,19.17,56.55,56.76S9,315,24.71,344.07c19,35,68,31.4,68,60.24,0,24.33-35,22.72-43.61,49.38a35.81,35.81,0,0,0,2.78,27.66C80.29,535.3,138,531,138,531l0,.17s58.15-37.46,57.65-91.62C195.22,411.4,155.92,415.51,143.89,389.31Z"/><g class="cls-2"><path d="M156.73,501l.32.65a.42.42,0,0,1,.07.18c-.09,0-.08-.09-.13-.12l-.18-.31-.71-1.26-1.38-2.53-2.67-5.11c-1.74-3.43-3.43-6.88-5.1-10.34q-5-10.38-9.71-20.91-9.32-21.11-17.6-42.64c-5.58-14.33-10.66-28.85-15.53-43.44s-9.39-29.29-13.63-44.08S82.5,301.38,79,286.4s-6.74-30-9.43-45.16-5.12-30.33-7.11-45.58-3.5-30.55-4.52-45.88c1.7,15.27,3.59,30.51,6,45.68s4.92,30.3,7.92,45.35c1.5,7.52,3.09,15,4.69,22.53s3.33,15,5.13,22.43q5.36,22.38,11.71,44.5,6.19,22.17,13.33,44.05c4.73,14.6,9.86,29.06,15.09,43.48s10.87,28.71,16.8,42.87q4.4,10.63,9.08,21.16,2.34,5.26,4.79,10.47l2.46,5.21,1.28,2.58.65,1.28.18.31c0,.05.09.12.06.13l-.06-.15Z"/></g><rect class="cls-4" x="146.92" y="198.66" width="182.91" height="11.89" rx="3.66" transform="translate(471.15 415.56) rotate(-178.45)"/><path class="cls-5" d="M120.2,315H354.56c7.19,0,11.39-8,9.46-17.67l-3.76-18.7L347.06,213l-198.59-5.67-37.73,90C108.81,307,113,315,120.2,315Z"/><rect class="cls-6" x="134.59" y="315.04" width="108.26" height="221.01" transform="translate(377.44 851.09) rotate(-180)"/><rect class="cls-7" x="151.2" y="358.79" width="75.03" height="112.77" transform="translate(377.44 830.34) rotate(-180)"/><rect class="cls-8" x="191.3" y="364.75" width="30.16" height="100.84" transform="translate(412.75 830.34) rotate(-180)"/><rect class="cls-9" x="155.78" y="364.75" width="30.16" height="100.84" transform="translate(341.72 830.34) rotate(-180)"/><rect class="cls-10" x="505.94" y="198.17" width="182.91" height="11.89" rx="3.66" transform="translate(-5.29 16.19) rotate(-1.55)"/><path class="cls-11" d="M716.65,315H482.29c-7.19,0-11.39-8-9.45-17.67l3.75-18.7L489.79,213l198.59-5.67,37.73,90C728.05,307,723.84,315,716.65,315Z"/><rect class="cls-12" x="242.16" y="274.69" width="352.25" height="261.36"/><rect class="cls-13" x="376.42" y="372.67" width="75.18" height="145.57"/><rect class="cls-14" x="594" y="315.04" width="108.26" height="221.01"/><rect class="cls-15" x="359.49" y="518.24" width="109.4" height="17.81"/><rect class="cls-16" x="385.43" y="381.4" width="24.53" height="98.47" rx="6.24"/><rect class="cls-16" x="385.43" y="483.35" width="24.53" height="21.49" rx="6.24"/><rect class="cls-16" x="417.23" y="381.4" width="24.53" height="98.47" rx="6.24"/><rect class="cls-16" x="417.23" y="483.35" width="24.53" height="21.49" rx="6.24"/><rect class="cls-17" x="277.34" y="372.67" width="34.31" height="104.55"/><rect class="cls-18" x="321.35" y="372.67" width="34.32" height="104.55"/><path class="cls-19" d="M311.65,297v66H277.34v-27.1A39.15,39.15,0,0,1,311.65,297Z"/><path class="cls-20" d="M355.67,335.87V363H321.35V297a39.16,39.16,0,0,1,34.32,38.86Z"/><path class="cls-21" d="M304.82,288.24h23a41.34,41.34,0,0,1,41.34,41.34V485a0,0,0,0,1,0,0H263.48a0,0,0,0,1,0,0V329.58A41.34,41.34,0,0,1,304.82,288.24Z"/><rect class="cls-22" x="471.61" y="372.67" width="34.31" height="104.55"/><rect class="cls-23" x="515.62" y="372.67" width="34.32" height="104.55"/><path class="cls-24" d="M505.92,297v66H471.61v-27.1A39.15,39.15,0,0,1,505.92,297Z"/><path class="cls-25" d="M549.94,335.87V363H515.62V297a39.18,39.18,0,0,1,34.32,38.86Z"/><path class="cls-21" d="M499.09,288.24h23a41.34,41.34,0,0,1,41.34,41.34V485a0,0,0,0,1,0,0H457.75a0,0,0,0,1,0,0V329.58A41.34,41.34,0,0,1,499.09,288.24Z"/><path class="cls-26" d="M603.16,274.69H226.6c-11.55,0-18.3-11.12-15.2-24.46l6-25.87,23.62-101.22H588.7l29.66,127.09C621.46,263.57,614.7,274.69,603.16,274.69Z"/><rect class="cls-27" x="238.54" y="109.62" width="355.87" height="13.53" rx="6.16"/><rect class="cls-7" x="610.62" y="358.79" width="75.03" height="112.77"/><rect class="cls-28" x="615.4" y="364.75" width="30.16" height="100.84"/><rect class="cls-29" x="650.91" y="364.75" width="30.16" height="100.84"/><path class="cls-30" d="M537.73,123.14c-7.63,16.15-43.44,73-73.44,72.76-28.34-.21-20-22.52-53.16-21.55-42.92,1.25-32.48,43.09-113.28,65.17-41.16,11.25-66-.71-80.41-15.16l23.62-101.22Z"/><path class="cls-31" d="M791.39,508.81s-34.94,4.07-42-28.94,3.77-49.07,9.44-75,2.36-52.88-7.08-71.3,10.84-40.94,36.83-21.24c14.54,13.65,10.38,43.91,13.69,58.54s25.68,54.3,23.7,84S827.74,508.9,791.39,508.81Z"/><g class="cls-2"><path d="M781.76,535.82c2-9.09,3.56-18.34,4.86-27.6s2.33-18.57,3.08-27.9a447.25,447.25,0,0,0,1.12-56.12c-.38-9.35-1.16-18.69-2.27-28s-2.61-18.55-4.5-27.72A276.84,276.84,0,0,0,777,341.3l-2.21-6.67c-.74-2.23-1.63-4.4-2.43-6.6l-1.24-3.29c-.42-1.09-.91-2.15-1.36-3.24L767,315l2.82,6.44c.46,1.08,1,2.14,1.38,3.23l1.27,3.28c.83,2.19,1.74,4.36,2.5,6.58l2.26,6.65a274.8,274.8,0,0,1,7.32,27.16c2,9.17,3.61,18.42,4.75,27.74s2.06,18.66,2.53,28a449.74,449.74,0,0,1-.62,56.28q-1,14.06-2.84,28c-1.23,9.31-2.7,18.58-4.65,27.81a1,1,0,1,1-2-.41h0Z"/></g><path class="cls-32" d="M806.74,462a73.66,73.66,0,0,1,12.31-30c5.76-8.38,14.9-24.64,16.65-45.44,2.58-30.82,30.27-27.5,34.33-7.93s2.58,55.74,0,75.31,1.85,48.36-28.79,60.54C816.59,524.33,801.53,494.63,806.74,462Z"/><g class="cls-2"><path d="M826.69,535.74c4.08-12.91,7.6-26.06,10.75-39.26s5.86-26.53,8.19-39.91c.56-3.36,1.2-6.69,1.68-10.06l1.5-10.08c.49-3.36.85-6.74,1.28-10.11l.62-5.05c.21-1.69.34-3.39.51-5.08l1-10.14.66-10.18.33-5.08.15-5.1.31-10.19-.18,10.19-.1,5.1-.26,5.1-.54,10.18-.84,10.17c-.15,1.7-.26,3.39-.45,5.08l-.56,5.07c-.39,3.38-.71,6.77-1.16,10.14l-1.38,10.11c-.43,3.38-1,6.73-1.55,10.09q-3.25,20.14-7.72,40.09c-3,13.28-6.35,26.47-10.3,39.54a1,1,0,0,1-1.92-.58h0Z"/></g><polygon class="cls-33" points="37.13 536.67 32.73 536.67 155.88 279.55 160.28 279.55 37.13 536.67"/><polygon class="cls-33" points="90.9 536.67 86.5 536.67 209.64 279.55 214.05 279.55 90.9 536.67"/><polygon class="cls-33" points="115.57 475.97 64 475.97 65.97 471.86 117.53 471.86 115.57 475.97"/><polygon class="cls-33" points="128.75 448.45 77.18 448.45 79.15 444.35 130.71 444.35 128.75 448.45"/><polygon class="cls-33" points="141.93 420.93 90.36 420.93 92.33 416.83 143.89 416.83 141.93 420.93"/><polygon class="cls-33" points="155.11 393.41 103.55 393.41 105.51 389.31 157.07 389.31 155.11 393.41"/><polygon class="cls-33" points="168.29 365.89 116.72 365.89 118.69 361.79 170.25 361.79 168.29 365.89"/><polygon class="cls-33" points="181.47 338.38 129.91 338.38 131.87 334.27 183.44 334.27 181.47 338.38"/><polygon class="cls-33" points="194.65 310.86 143.09 310.86 145.05 306.75 196.62 306.75 194.65 310.86"/><path class="cls-34" d="M113.58,295.85h0a10.69,10.69,0,0,1-.15-15.35l109-107.67L231,181,128.92,295.22A10.69,10.69,0,0,1,113.58,295.85Z"/><path class="cls-35" d="M194.51,209.91s14.34,2.42,22-12.71l2.63-2.94s5.07,16.37-23.29,24.93l-7.17-2.39Z"/><rect class="cls-36" x="117.15" y="370.01" width="5.95" height="10.08"/><rect class="cls-37" x="144.91" y="370.01" width="5.95" height="10.08"/><path class="cls-38" d="M117.79,198.59l.6-19.7-6.81-8,19.84-10.45s10.48,18.94,5.92,22.88-5.16-.61-5.16-.61l-.3,14.4Z"/><path class="cls-39" d="M113.22,179.87A14.25,14.25,0,0,0,124.15,182l-3.71-4.44s-3.67,1.34-3.7-2.17,3.65-.83,3.65-.83l-2-8.52s17.42-5.43,14.68-6.7-13.41-2.24-13.41-2.24L113.62,163l-3.37,8.53Z"/><path class="cls-40" d="M93.8,255.84s15,16.12,22,19l-1.7-11.68-17.45-16.2Z"/><path class="cls-41" d="M110.26,269.89s.95,90.65,6.06,101.82h7.34s11.17-53.94,3.83-87.78S110.22,267,110.26,269.89Z"/><path class="cls-42" d="M143.13,369.79s-10.21-67-19.15-89.05,15-16.6,17.56-11.17S154.62,351,152.39,369.79C150.79,375.22,144,375.07,143.13,369.79Z"/><path class="cls-43" d="M104,193.92S76,213.3,85.55,242.88c1.41,4.51,8.25,13,8.25,13l6.7-6.48s-1.08-18.81,3.54-24.48Z"/><path class="cls-44" d="M109,179.73l28.36-22.9s-2.19,2.8-12.23-3.74c-6.55-3.51-10.4-3.39-16.13,2.34S102,170.61,109,179.73Z"/><path class="cls-45" d="M246,69.17s-14.25,44.12-50.35,66.89l77.65,73.66s35.79-27.82,50.28-64.59L302.21,122.4l-9.32,4.3V112L273.68,94.39l-12.77,4.2.46-14.69Z"/><path class="cls-46" d="M177.22,171.43H284.4a0,0,0,0,1,0,0v0a10.08,10.08,0,0,1-10.08,10.08h-87a10.08,10.08,0,0,1-10.08-10.08v0a0,0,0,0,1,0,0Z" transform="translate(185.2 -110.47) rotate(43.57)"/><path class="cls-47" d="M117,377.21s1,3.83,6.1-.29c0,0,9.79,4.79,9.79,11.84H116.45Z"/><path class="cls-48" d="M144.91,377.21V388h17a3,3,0,0,0,1.64-5.42,38.36,38.36,0,0,0-12.64-5.35S149.57,381.2,144.91,377.21Z"/><path class="cls-49" d="M110.26,269.89s1.6-18.62-2.45-29.34S95.93,198.26,104,193.92s11.76,3.53,26-.82,12.58-9.32,28.8,2.85S179.64,211,194.71,208.4c0,0-1.74,10.14,2.32,11.59,0,0-26.37,11-43.17-4.06,0,0-10.11,27.32-11.62,39.93s-.7,13.71-.7,13.71Z"/><path class="cls-50" d="M249,87.8s-9.83,30.11-41.53,50.08"/><path class="cls-50" d="M261.42,100.27s-9.83,30.11-41.53,50.09"/><path class="cls-50" d="M273.89,112.74s-9.83,30.12-41.53,50.09"/><path class="cls-50" d="M286.36,125.21s-9.83,30.12-41.53,50.09"/><path class="cls-50" d="M298.83,137.68S289,167.8,257.3,187.77"/></g></g></svg>