<svg xmlns="http://www.w3.org/2000/svg" viewBox="0 0 106.52 92.78"><defs><style>.cls-1{fill:#2c348c;}</style></defs><title>roller</title><g id="Layer_2" data-name="Layer 2"><g id="Layer_4" data-name="Layer 4"><path class="cls-1" d="M14.9,67.09V82.42a2.09,2.09,0,0,0,4.18,0V67.09a2.09,2.09,0,0,0-4.18,0Z"/><path class="cls-1" d="M14.9,61.62c0,2.68,4.18,2.69,4.18,0S14.9,58.92,14.9,61.62Z"/><path class="cls-1" d="M11.61,7.42v3.95H2.09A2.1,2.1,0,0,0,0,13.46V90.69a2.09,2.09,0,0,0,2.09,2.09H25.31a2.08,2.08,0,0,0,2.08-2.09V13.46a2.09,2.09,0,0,0-2.08-2.09H15.79V7.42A3.24,3.24,0,0,1,19,4.18H29.69a12,12,0,0,1,12,12V41.32a13.23,13.23,0,0,0,11.13,13v4.85a2.1,2.1,0,0,0,2.09,2.09H97.66a8.86,8.86,0,1,0,0-17.72H54.92a2.1,2.1,0,0,0-2.09,2.09v4.44a9.08,9.08,0,0,1-7-8.8V16.19A16.2,16.2,0,0,0,29.69,0H19A7.43,7.43,0,0,0,11.61,7.42Zm11.61,8.13V88.61h-19V15.55ZM97.66,47.77a4.68,4.68,0,1,1,0,9.36h-1V47.77Zm-5.22,0v9.36H86.72V47.77Zm-9.9,0v9.36H76.81V47.77Zm-9.9,0v9.36H66.91V47.77ZM57,47.77h5.72v9.36H57Z"/></g></g></svg>