<svg xmlns="http://www.w3.org/2000/svg" viewBox="0 0 180.12 55.45"><defs><style>.cls-1{fill:#fff;}</style></defs><title>visa</title><g id="Layer_2" data-name="Layer 2"><g id="Layer_7" data-name="Layer 7"><polygon class="cls-1" points="72.12 0.92 62.97 54.64 77.61 54.64 86.77 0.92 72.12 0.92"/><path class="cls-1" d="M50.69,1,36.35,37.62l-1.53-5.53C32,25.42,24,15.85,14.54,9.82l13.11,44.8,15.5,0L66.2,1Z"/><path class="cls-1" d="M29.27,4.83C28.42,1.56,26,.58,22.89.46H.19L0,1.53c17.66,4.29,29.35,14.61,34.2,27Z"/><path class="cls-1" d="M116.44,11.22a27,27,0,0,1,11,2.06l1.32.62,2-11.64A37.71,37.71,0,0,0,117.59,0C103.12,0,92.92,7.29,92.84,17.73c-.09,7.71,7.27,12,12.83,14.59s7.61,4.32,7.59,6.67c-.05,3.59-4.55,5.24-8.76,5.24a30.76,30.76,0,0,1-13.78-2.81l-1.89-.86-2.06,12c3.43,1.5,9.75,2.79,16.31,2.86,15.39,0,25.39-7.2,25.5-18.36.06-6.1-3.84-10.76-12.3-14.58-5.12-2.5-8.26-4.15-8.23-6.67C108.05,13.61,110.71,11.22,116.44,11.22Z"/><path class="cls-1" d="M168.28,1H157c-3.51,0-6.12,1-7.67,4.46L127.56,54.67h15.37s2.51-6.62,3.08-8.07l18.75,0c.43,1.87,1.78,8,1.78,8h13.58ZM150.22,35.61c1.21-3.09,5.83-15,5.83-15s1.2-3.1,1.95-5.12l1,4.63s2.81,12.82,3.39,15.51Z"/></g></g></svg>